<?xml version="1.0" encoding="utf-8" standalone="no"?>
<!DOCTYPE svg PUBLIC "-//W3C//DTD SVG 1.1//EN"
  "http://www.w3.org/Graphics/SVG/1.1/DTD/svg11.dtd">
<svg xmlns:xlink="http://www.w3.org/1999/xlink" width="542.40625pt" height="507.6325pt" viewBox="0 0 542.40625 507.6325" xmlns="http://www.w3.org/2000/svg" version="1.1">
 <metadata>
  <rdf:RDF xmlns:dc="http://purl.org/dc/elements/1.1/" xmlns:cc="http://creativecommons.org/ns#" xmlns:rdf="http://www.w3.org/1999/02/22-rdf-syntax-ns#">
   <cc:Work>
    <dc:type rdf:resource="http://purl.org/dc/dcmitype/StillImage"/>
    <dc:date>2022-02-20T10:44:55.497673</dc:date>
    <dc:format>image/svg+xml</dc:format>
    <dc:creator>
     <cc:Agent>
      <dc:title>Matplotlib v3.5.1, https://matplotlib.org/</dc:title>
     </cc:Agent>
    </dc:creator>
   </cc:Work>
  </rdf:RDF>
 </metadata>
 <defs>
  <style type="text/css">*{stroke-linejoin: round; stroke-linecap: butt}</style>
 </defs>
 <g id="figure_1">
  <g id="patch_1">
   <path d="M 0 507.6325 
L 542.40625 507.6325 
L 542.40625 0 
L 0 0 
z
" style="fill: #ffffff"/>
  </g>
  <g id="axes_1">
   <g id="patch_2">
    <path d="M 88.80625 450.72 
L 535.20625 450.72 
L 535.20625 7.2 
L 88.80625 7.2 
z
" style="fill: #ffffff"/>
   </g>
   <g id="matplotlib.axis_1">
    <g id="xtick_1">
     <g id="line2d_1">
      <path d="M 109.097159 450.72 
L 109.097159 7.2 
" clip-path="url(#p53ef44a637)" style="fill: none; stroke: #b0b0b0; stroke-width: 0.8; stroke-linecap: square"/>
     </g>
     <g id="line2d_2">
      <defs>
       <path id="m5b1930237b" d="M 0 0 
L 0 3.5 
" style="stroke: #000000; stroke-width: 0.8"/>
      </defs>
      <g>
       <use xlink:href="#m5b1930237b" x="109.097159" y="450.72" style="stroke: #000000; stroke-width: 0.8"/>
      </g>
     </g>
     <g id="text_1">
      <!-- −5 -->
      <g transform="translate(94.354972 472.916875)scale(0.2 -0.2)">
       <defs>
        <path id="DejaVuSans-2212" d="M 678 2272 
L 4684 2272 
L 4684 1741 
L 678 1741 
L 678 2272 
z
" transform="scale(0.015625)"/>
        <path id="DejaVuSans-35" d="M 691 4666 
L 3169 4666 
L 3169 4134 
L 1269 4134 
L 1269 2991 
Q 1406 3038 1543 3061 
Q 1681 3084 1819 3084 
Q 2600 3084 3056 2656 
Q 3513 2228 3513 1497 
Q 3513 744 3044 326 
Q 2575 -91 1722 -91 
Q 1428 -91 1123 -41 
Q 819 9 494 109 
L 494 744 
Q 775 591 1075 516 
Q 1375 441 1709 441 
Q 2250 441 2565 725 
Q 2881 1009 2881 1497 
Q 2881 1984 2565 2268 
Q 2250 2553 1709 2553 
Q 1456 2553 1204 2497 
Q 953 2441 691 2322 
L 691 4666 
z
" transform="scale(0.015625)"/>
       </defs>
       <use xlink:href="#DejaVuSans-2212"/>
       <use xlink:href="#DejaVuSans-35" x="83.789062"/>
      </g>
     </g>
    </g>
    <g id="xtick_2">
     <g id="line2d_3">
      <path d="M 312.00625 450.72 
L 312.00625 7.2 
" clip-path="url(#p53ef44a637)" style="fill: none; stroke: #b0b0b0; stroke-width: 0.8; stroke-linecap: square"/>
     </g>
     <g id="line2d_4">
      <g>
       <use xlink:href="#m5b1930237b" x="312.00625" y="450.72" style="stroke: #000000; stroke-width: 0.8"/>
      </g>
     </g>
     <g id="text_2">
      <!-- 0 -->
      <g transform="translate(305.64375 472.916875)scale(0.2 -0.2)">
       <defs>
        <path id="DejaVuSans-30" d="M 2034 4250 
Q 1547 4250 1301 3770 
Q 1056 3291 1056 2328 
Q 1056 1369 1301 889 
Q 1547 409 2034 409 
Q 2525 409 2770 889 
Q 3016 1369 3016 2328 
Q 3016 3291 2770 3770 
Q 2525 4250 2034 4250 
z
M 2034 4750 
Q 2819 4750 3233 4129 
Q 3647 3509 3647 2328 
Q 3647 1150 3233 529 
Q 2819 -91 2034 -91 
Q 1250 -91 836 529 
Q 422 1150 422 2328 
Q 422 3509 836 4129 
Q 1250 4750 2034 4750 
z
" transform="scale(0.015625)"/>
       </defs>
       <use xlink:href="#DejaVuSans-30"/>
      </g>
     </g>
    </g>
    <g id="xtick_3">
     <g id="line2d_5">
      <path d="M 514.915341 450.72 
L 514.915341 7.2 
" clip-path="url(#p53ef44a637)" style="fill: none; stroke: #b0b0b0; stroke-width: 0.8; stroke-linecap: square"/>
     </g>
     <g id="line2d_6">
      <g>
       <use xlink:href="#m5b1930237b" x="514.915341" y="450.72" style="stroke: #000000; stroke-width: 0.8"/>
      </g>
     </g>
     <g id="text_3">
      <!-- 5 -->
      <g transform="translate(508.552841 472.916875)scale(0.2 -0.2)">
       <use xlink:href="#DejaVuSans-35"/>
      </g>
     </g>
    </g>
    <g id="text_4">
     <!-- $z$ -->
     <g transform="translate(306.70625 496.273125)scale(0.2 -0.2)">
      <defs>
       <path id="DejaVuSans-Oblique-7a" d="M 744 3500 
L 3475 3500 
L 3372 2975 
L 738 459 
L 2913 459 
L 2822 0 
L -19 0 
L 84 525 
L 2719 3041 
L 653 3041 
L 744 3500 
z
" transform="scale(0.015625)"/>
      </defs>
      <use xlink:href="#DejaVuSans-Oblique-7a" transform="translate(0 0.3125)"/>
     </g>
    </g>
   </g>
   <g id="matplotlib.axis_2">
    <g id="ytick_1">
     <g id="line2d_7">
      <path d="M 88.80625 433.29517 
L 535.20625 433.29517 
" clip-path="url(#p53ef44a637)" style="fill: none; stroke: #b0b0b0; stroke-width: 0.8; stroke-linecap: square"/>
     </g>
     <g id="line2d_8">
      <defs>
       <path id="ma40c76a934" d="M 0 0 
L -3.5 0 
" style="stroke: #000000; stroke-width: 0.8"/>
      </defs>
      <g>
       <use xlink:href="#ma40c76a934" x="88.80625" y="433.29517" style="stroke: #000000; stroke-width: 0.8"/>
      </g>
     </g>
     <g id="text_5">
      <!-- 0.0 -->
      <g transform="translate(50 440.893607)scale(0.2 -0.2)">
       <defs>
        <path id="DejaVuSans-2e" d="M 684 794 
L 1344 794 
L 1344 0 
L 684 0 
L 684 794 
z
" transform="scale(0.015625)"/>
       </defs>
       <use xlink:href="#DejaVuSans-30"/>
       <use xlink:href="#DejaVuSans-2e" x="63.623047"/>
       <use xlink:href="#DejaVuSans-30" x="95.410156"/>
      </g>
     </g>
    </g>
    <g id="ytick_2">
     <g id="line2d_9">
      <path d="M 88.80625 228.96 
L 535.20625 228.96 
" clip-path="url(#p53ef44a637)" style="fill: none; stroke: #b0b0b0; stroke-width: 0.8; stroke-linecap: square"/>
     </g>
     <g id="line2d_10">
      <g>
       <use xlink:href="#ma40c76a934" x="88.80625" y="228.96" style="stroke: #000000; stroke-width: 0.8"/>
      </g>
     </g>
     <g id="text_6">
      <!-- 0.5 -->
      <g transform="translate(50 236.558437)scale(0.2 -0.2)">
       <use xlink:href="#DejaVuSans-30"/>
       <use xlink:href="#DejaVuSans-2e" x="63.623047"/>
       <use xlink:href="#DejaVuSans-35" x="95.410156"/>
      </g>
     </g>
    </g>
    <g id="ytick_3">
     <g id="line2d_11">
      <path d="M 88.80625 24.62483 
L 535.20625 24.62483 
" clip-path="url(#p53ef44a637)" style="fill: none; stroke: #b0b0b0; stroke-width: 0.8; stroke-linecap: square"/>
     </g>
     <g id="line2d_12">
      <g>
       <use xlink:href="#ma40c76a934" x="88.80625" y="24.62483" style="stroke: #000000; stroke-width: 0.8"/>
      </g>
     </g>
     <g id="text_7">
      <!-- 1.0 -->
      <g transform="translate(50 32.223268)scale(0.2 -0.2)">
       <defs>
        <path id="DejaVuSans-31" d="M 794 531 
L 1825 531 
L 1825 4091 
L 703 3866 
L 703 4441 
L 1819 4666 
L 2450 4666 
L 2450 531 
L 3481 531 
L 3481 0 
L 794 0 
L 794 531 
z
" transform="scale(0.015625)"/>
       </defs>
       <use xlink:href="#DejaVuSans-31"/>
       <use xlink:href="#DejaVuSans-2e" x="63.623047"/>
       <use xlink:href="#DejaVuSans-30" x="95.410156"/>
      </g>
     </g>
    </g>
    <g id="text_8">
     <!-- $g(z)$ -->
     <g transform="translate(7.2 224.76)scale(0.2 -0.2)">
      <defs>
       <path id="DejaVuSans-Oblique-67" d="M 3816 3500 
L 3219 434 
Q 3047 -456 2561 -893 
Q 2075 -1331 1253 -1331 
Q 950 -1331 690 -1286 
Q 431 -1241 206 -1147 
L 313 -588 
Q 525 -725 762 -790 
Q 1000 -856 1269 -856 
Q 1816 -856 2167 -557 
Q 2519 -259 2631 300 
L 2681 563 
Q 2441 288 2122 144 
Q 1803 0 1434 0 
Q 903 0 598 351 
Q 294 703 294 1319 
Q 294 1803 478 2267 
Q 663 2731 997 3091 
Q 1219 3328 1514 3456 
Q 1809 3584 2131 3584 
Q 2484 3584 2746 3420 
Q 3009 3256 3138 2956 
L 3238 3500 
L 3816 3500 
z
M 2950 2216 
Q 2950 2641 2750 2872 
Q 2550 3103 2181 3103 
Q 1953 3103 1747 3012 
Q 1541 2922 1394 2759 
Q 1156 2491 1023 2127 
Q 891 1763 891 1375 
Q 891 944 1092 712 
Q 1294 481 1672 481 
Q 2219 481 2584 976 
Q 2950 1472 2950 2216 
z
" transform="scale(0.015625)"/>
       <path id="DejaVuSans-28" d="M 1984 4856 
Q 1566 4138 1362 3434 
Q 1159 2731 1159 2009 
Q 1159 1288 1364 580 
Q 1569 -128 1984 -844 
L 1484 -844 
Q 1016 -109 783 600 
Q 550 1309 550 2009 
Q 550 2706 781 3412 
Q 1013 4119 1484 4856 
L 1984 4856 
z
" transform="scale(0.015625)"/>
       <path id="DejaVuSans-29" d="M 513 4856 
L 1013 4856 
Q 1481 4119 1714 3412 
Q 1947 2706 1947 2009 
Q 1947 1309 1714 600 
Q 1481 -109 1013 -844 
L 513 -844 
Q 928 -128 1133 580 
Q 1338 1288 1338 2009 
Q 1338 2731 1133 3434 
Q 928 4138 513 4856 
z
" transform="scale(0.015625)"/>
      </defs>
      <use xlink:href="#DejaVuSans-Oblique-67" transform="translate(0 0.125)"/>
      <use xlink:href="#DejaVuSans-28" transform="translate(63.476562 0.125)"/>
      <use xlink:href="#DejaVuSans-Oblique-7a" transform="translate(102.490234 0.125)"/>
      <use xlink:href="#DejaVuSans-29" transform="translate(154.980469 0.125)"/>
     </g>
    </g>
   </g>
   <g id="line2d_13">
    <path d="M 109.097159 430.56 
L 113.196333 430.271436 
L 117.295506 429.952678 
L 121.39468 429.600624 
L 125.493853 429.211862 
L 129.593027 428.782649 
L 133.6922 428.308875 
L 137.791374 427.786037 
L 141.890548 427.209203 
L 145.989721 426.57298 
L 150.088895 425.871472 
L 154.188068 425.098249 
L 158.287242 424.246308 
L 162.386415 423.308028 
L 166.485589 422.275141 
L 170.584762 421.138688 
L 174.683936 419.888988 
L 178.78311 418.515606 
L 182.882283 417.007328 
L 186.981457 415.352138 
L 191.08063 413.537216 
L 195.179804 411.548934 
L 199.278977 409.372874 
L 203.378151 406.993865 
L 207.477324 404.396042 
L 211.576498 401.562921 
L 215.675671 398.477519 
L 219.774845 395.122497 
L 223.874019 391.480346 
L 227.973192 387.53361 
L 232.072366 383.265159 
L 236.171539 378.658505 
L 240.270713 373.698168 
L 244.369886 368.370079 
L 248.46906 362.662033 
L 252.568233 356.564171 
L 256.667407 350.069482 
L 260.766581 343.174317 
L 264.865754 335.878891 
L 268.964928 328.187752 
L 273.064101 320.110201 
L 277.163275 311.66062 
L 281.262448 302.858702 
L 285.361622 293.729545 
L 289.460795 284.303592 
L 293.559969 274.61641 
L 297.659143 264.708287 
L 301.758316 254.623661 
L 305.85749 244.410391 
L 309.956663 234.118882 
L 314.055837 223.801118 
L 318.15501 213.509609 
L 322.254184 203.296339 
L 326.353357 193.211713 
L 330.452531 183.30359 
L 334.551705 173.616408 
L 338.650878 164.190455 
L 342.750052 155.061298 
L 346.849225 146.25938 
L 350.948399 137.809799 
L 355.047572 129.732248 
L 359.146746 122.041109 
L 363.245919 114.745683 
L 367.345093 107.850518 
L 371.444267 101.355829 
L 375.54344 95.257967 
L 379.642614 89.549921 
L 383.741787 84.221832 
L 387.840961 79.261495 
L 391.940134 74.654841 
L 396.039308 70.38639 
L 400.138481 66.439654 
L 404.237655 62.797503 
L 408.336829 59.442481 
L 412.436002 56.357079 
L 416.535176 53.523958 
L 420.634349 50.926135 
L 424.733523 48.547126 
L 428.832696 46.371066 
L 432.93187 44.382784 
L 437.031043 42.567862 
L 441.130217 40.912672 
L 445.22939 39.404394 
L 449.328564 38.031012 
L 453.427738 36.781312 
L 457.526911 35.644859 
L 461.626085 34.611972 
L 465.725258 33.673692 
L 469.824432 32.821751 
L 473.923605 32.048528 
L 478.022779 31.34702 
L 482.121952 30.710797 
L 486.221126 30.133963 
L 490.3203 29.611125 
L 494.419473 29.137351 
L 498.518647 28.708138 
L 502.61782 28.319376 
L 506.716994 27.967322 
L 510.816167 27.648564 
L 514.915341 27.36 
" clip-path="url(#p53ef44a637)" style="fill: none; stroke: #1f77b4; stroke-width: 1.5; stroke-linecap: square"/>
   </g>
   <g id="patch_3">
    <path d="M 88.80625 450.72 
L 88.80625 7.2 
" style="fill: none; stroke: #000000; stroke-width: 0.8; stroke-linejoin: miter; stroke-linecap: square"/>
   </g>
   <g id="patch_4">
    <path d="M 535.20625 450.72 
L 535.20625 7.2 
" style="fill: none; stroke: #000000; stroke-width: 0.8; stroke-linejoin: miter; stroke-linecap: square"/>
   </g>
   <g id="patch_5">
    <path d="M 88.80625 450.72 
L 535.20625 450.72 
" style="fill: none; stroke: #000000; stroke-width: 0.8; stroke-linejoin: miter; stroke-linecap: square"/>
   </g>
   <g id="patch_6">
    <path d="M 88.80625 7.2 
L 535.20625 7.2 
" style="fill: none; stroke: #000000; stroke-width: 0.8; stroke-linejoin: miter; stroke-linecap: square"/>
   </g>
  </g>
 </g>
 <defs>
  <clipPath id="p53ef44a637">
   <rect x="88.80625" y="7.2" width="446.4" height="443.52"/>
  </clipPath>
 </defs>
</svg>
