<svg xmlns="http://www.w3.org/2000/svg" width="1745" height="836" style="cursor: move;"><g transform="translate(-634.1635882940113,-373.73690419326635) scale(1.8381860003426707)"><path class="link" marker-end="" d="M704.5,328, 892.5,408" style="stroke-width: 0.5; stroke-opacity: 1; stroke: rgb(80, 80, 80);"></path><path class="link" marker-end="" d="M704.5,328, 892.5,448" style="stroke-width: 0.5; stroke-opacity: 1; stroke: rgb(80, 80, 80);"></path><path class="link" marker-end="" d="M704.5,368, 892.5,408" style="stroke-width: 0.5; stroke-opacity: 1; stroke: rgb(80, 80, 80);"></path><path class="link" marker-end="" d="M704.5,368, 892.5,448" style="stroke-width: 0.5; stroke-opacity: 1; stroke: rgb(80, 80, 80);"></path><path class="link" marker-end="" d="M704.5,408, 892.5,408" style="stroke-width: 0.5; stroke-opacity: 1; stroke: rgb(80, 80, 80);"></path><path class="link" marker-end="" d="M704.5,408, 892.5,448" style="stroke-width: 0.5; stroke-opacity: 1; stroke: rgb(80, 80, 80);"></path><path class="link" marker-end="" d="M892.5,368, 1080.5,388" style="stroke-width: 0.5; stroke-opacity: 1; stroke: rgb(80, 80, 80);"></path><path class="link" marker-end="" d="M892.5,368, 1080.5,428" style="stroke-width: 0.5; stroke-opacity: 1; stroke: rgb(80, 80, 80);"></path><path class="link" marker-end="" d="M892.5,408, 1080.5,388" style="stroke-width: 0.5; stroke-opacity: 1; stroke: rgb(80, 80, 80);"></path><path class="link" marker-end="" d="M892.5,408, 1080.5,428" style="stroke-width: 0.5; stroke-opacity: 1; stroke: rgb(80, 80, 80);"></path><path class="link" marker-end="" d="M892.5,448, 1080.5,388" style="stroke-width: 0.5; stroke-opacity: 1; stroke: rgb(80, 80, 80);"></path><path class="link" marker-end="" d="M892.5,448, 1080.5,428" style="stroke-width: 0.5; stroke-opacity: 1; stroke: rgb(80, 80, 80);"></path><path class="link" marker-end="" d="M704.5,448, 892.5,408" style="stroke-width: 0.5; stroke-opacity: 1; stroke: rgb(80, 80, 80);"></path><path class="link" marker-end="" d="M704.5,448, 892.5,448" style="stroke-width: 0.5; stroke-opacity: 1; stroke: rgb(80, 80, 80);"></path><path class="link" marker-end="" d="M704.5,488, 892.5,408" style="stroke-width: 0.5; stroke-opacity: 1; stroke: rgb(80, 80, 80);"></path><path class="link" marker-end="" d="M704.5,488, 892.5,448" style="stroke-width: 0.5; stroke-opacity: 1; stroke: rgb(80, 80, 80);"></path><path class="link" marker-end="" d="M704.5,328, 892.5,368" style="stroke-width: 0.5; stroke-opacity: 1; stroke: rgb(80, 80, 80);"></path><path class="link" marker-end="" d="M704.5,368, 892.5,368" style="stroke-width: 0.5; stroke-opacity: 1; stroke: rgb(80, 80, 80);"></path><path class="link" marker-end="" d="M704.5,408, 892.5,368" style="stroke-width: 0.5; stroke-opacity: 1; stroke: rgb(80, 80, 80);"></path><path class="link" marker-end="" d="M704.5,448, 892.5,368" style="stroke-width: 0.5; stroke-opacity: 1; stroke: rgb(80, 80, 80);"></path><path class="link" marker-end="" d="M704.5,488, 892.5,368" style="stroke-width: 0.5; stroke-opacity: 1; stroke: rgb(80, 80, 80);"></path><circle r="12.5" class="node" id="0_0" cx="704.5" cy="328" style="fill: rgb(255, 255, 255); stroke: rgb(51, 51, 51);"></circle><circle r="12.5" class="node" id="0_1" cx="704.5" cy="368" style="fill: rgb(255, 255, 255); stroke: rgb(51, 51, 51);"></circle><circle r="12.5" class="node" id="0_2" cx="704.5" cy="408" style="fill: rgb(255, 255, 255); stroke: rgb(51, 51, 51);"></circle><circle r="12.5" class="node" id="0_3" cx="704.5" cy="448" style="fill: rgb(255, 255, 255); stroke: rgb(51, 51, 51);"></circle><circle r="12.5" class="node" id="0_4" cx="704.5" cy="488" style="fill: rgb(255, 255, 255); stroke: rgb(51, 51, 51);"></circle><circle r="12.5" class="node" id="1_0" cx="892.5" cy="368" style="fill: rgb(255, 255, 255); stroke: rgb(51, 51, 51);"></circle><circle r="12.5" class="node" id="1_1" cx="892.5" cy="408" style="fill: rgb(255, 255, 255); stroke: rgb(51, 51, 51);"></circle><circle r="12.5" class="node" id="1_2" cx="892.5" cy="448" style="fill: rgb(255, 255, 255); stroke: rgb(51, 51, 51);"></circle><circle r="12.5" class="node" id="2_0" cx="1080.5" cy="388" style="fill: rgb(255, 255, 255); stroke: rgb(51, 51, 51);"></circle><circle r="12.5" class="node" id="2_1" cx="1080.5" cy="428" style="fill: rgb(255, 255, 255); stroke: rgb(51, 51, 51);"></circle><text class="text" dy=".35em" x="669.5" y="528" style="font-size: 12px;">Input Layer ∈ ℝ⁵</text><text class="text" dy=".35em" x="857.5" y="528" style="font-size: 12px;">Hidden Layer ∈ ℝ³</text><text class="text" dy=".35em" x="1045.5" y="528" style="font-size: 12px;">Output Layer ∈ ℝ²</text></g><defs><marker id="arrow" viewBox="0 -5 10 10" markerWidth="7" markerHeight="7" orient="auto" refX="47"><path d="M0,-5L10,0L0,5" style="stroke: rgb(80, 80, 80); fill: none;"></path></marker></defs></svg>