<svg xmlns="http://www.w3.org/2000/svg" xmlns:xlink="http://www.w3.org/1999/xlink" x="0" y="0" width="662" height="415" style="
        width:662px;
        height:415px;
        background: #FFF;
        fill: none;
">
        <svg xmlns="http://www.w3.org/2000/svg"/>
        
        <svg xmlns="http://www.w3.org/2000/svg" class="role-diagram-draw-area"><g class="shapes-region" style="stroke: black; fill: none;"><g class="composite-shape"><path class="real" d=" M147,305.75 C147,302.85 149.35,300.5 152.25,300.5 C155.15,300.5 157.5,302.85 157.5,305.75 C157.5,308.65 155.15,311 152.25,311 C149.35,311 147,308.65 147,305.75 Z" style="stroke-width: 1; stroke: rgb(0, 0, 0); fill: rgb(74, 144, 226); fill-opacity: 1;"/></g><g class="composite-shape"><path class="real" d=" M217,332.75 C217,329.85 219.35,327.5 222.25,327.5 C225.15,327.5 227.5,329.85 227.5,332.75 C227.5,335.65 225.15,338 222.25,338 C219.35,338 217,335.65 217,332.75 Z" style="stroke-width: 1; stroke: rgb(0, 0, 0); fill: rgb(74, 144, 226); fill-opacity: 1;"/></g><g class="composite-shape"><path class="real" d=" M217,332.75 C217,329.85 219.35,327.5 222.25,327.5 C225.15,327.5 227.5,329.85 227.5,332.75 C227.5,335.65 225.15,338 222.25,338 C219.35,338 217,335.65 217,332.75 Z" style="stroke-width: 1; stroke: rgb(0, 0, 0); fill: rgb(74, 144, 226); fill-opacity: 1;"/></g><g class="composite-shape"><path class="real" d=" M187,369.75 C187,366.85 189.35,364.5 192.25,364.5 C195.15,364.5 197.5,366.85 197.5,369.75 C197.5,372.65 195.15,375 192.25,375 C189.35,375 187,372.65 187,369.75 Z" style="stroke-width: 1; stroke: rgb(0, 0, 0); fill: rgb(74, 144, 226); fill-opacity: 1;"/></g><g class="composite-shape"><path class="real" d=" M182,323.75 C182,320.85 184.35,318.5 187.25,318.5 C190.15,318.5 192.5,320.85 192.5,323.75 C192.5,326.65 190.15,329 187.25,329 C184.35,329 182,326.65 182,323.75 Z" style="stroke-width: 1; stroke: rgb(0, 0, 0); fill: rgb(74, 144, 226); fill-opacity: 1;"/></g><g class="composite-shape"><path class="real" d=" M214,276.75 C214,273.85 216.35,271.5 219.25,271.5 C222.15,271.5 224.5,273.85 224.5,276.75 C224.5,279.65 222.15,282 219.25,282 C216.35,282 214,279.65 214,276.75 Z" style="stroke-width: 1; stroke: rgb(0, 0, 0); fill: rgb(74, 144, 226); fill-opacity: 1;"/></g><g class="composite-shape"><path class="real" d=" M144,348.75 C144,345.85 146.35,343.5 149.25,343.5 C152.15,343.5 154.5,345.85 154.5,348.75 C154.5,351.65 152.15,354 149.25,354 C146.35,354 144,351.65 144,348.75 Z" style="stroke-width: 1; stroke: rgb(0, 0, 0); fill: rgb(74, 144, 226); fill-opacity: 1;"/></g><g class="composite-shape"><path class="real" d=" M172,253.75 C172,250.85 174.35,248.5 177.25,248.5 C180.15,248.5 182.5,250.85 182.5,253.75 C182.5,256.65 180.15,259 177.25,259 C174.35,259 172,256.65 172,253.75 Z" style="stroke-width: 1; stroke: rgb(0, 0, 0); fill: rgb(74, 144, 226); fill-opacity: 1;"/></g><g class="composite-shape"><path class="real" d=" M405,146.75 C405,143.85 407.35,141.5 410.25,141.5 C413.15,141.5 415.5,143.85 415.5,146.75 C415.5,149.65 413.15,152 410.25,152 C407.35,152 405,149.65 405,146.75 Z" style="stroke-width: 1; stroke: rgb(0, 0, 0); fill: rgb(208, 2, 27); fill-opacity: 1;"/></g><g class="composite-shape"><path class="real" d=" M437,161.75 C437,158.85 439.35,156.5 442.25,156.5 C445.15,156.5 447.5,158.85 447.5,161.75 C447.5,164.65 445.15,167 442.25,167 C439.35,167 437,164.65 437,161.75 Z" style="stroke-width: 1; stroke: rgb(0, 0, 0); fill: rgb(208, 2, 27); fill-opacity: 1;"/></g><g class="composite-shape"><path class="real" d=" M457.25,170.75 C457.25,167.85 459.6,165.5 462.5,165.5 C465.4,165.5 467.75,167.85 467.75,170.75 C467.75,173.65 465.4,176 462.5,176 C459.6,176 457.25,173.65 457.25,170.75 Z" style="stroke-width: 1; stroke: rgb(0, 0, 0); fill: rgb(208, 2, 27); fill-opacity: 1;"/></g><g class="composite-shape"><path class="real" d=" M395,199.75 C395,196.85 397.35,194.5 400.25,194.5 C403.15,194.5 405.5,196.85 405.5,199.75 C405.5,202.65 403.15,205 400.25,205 C397.35,205 395,202.65 395,199.75 Z" style="stroke-width: 1; stroke: rgb(0, 0, 0); fill: rgb(208, 2, 27); fill-opacity: 1;"/></g><g class="composite-shape"><path class="real" d=" M433,209.75 C433,206.85 435.35,204.5 438.25,204.5 C441.15,204.5 443.5,206.85 443.5,209.75 C443.5,212.65 441.15,215 438.25,215 C435.35,215 433,212.65 433,209.75 Z" style="stroke-width: 1; stroke: rgb(0, 0, 0); fill: rgb(208, 2, 27); fill-opacity: 1;"/></g><g class="composite-shape"><path class="real" d=" M422,110.75 C422,107.85 424.35,105.5 427.25,105.5 C430.15,105.5 432.5,107.85 432.5,110.75 C432.5,113.65 430.15,116 427.25,116 C424.35,116 422,113.65 422,110.75 Z" style="stroke-width: 1; stroke: rgb(0, 0, 0); fill: rgb(208, 2, 27); fill-opacity: 1;"/></g><g class="composite-shape"><path class="real" d=" M367,163.75 C367,160.85 369.35,158.5 372.25,158.5 C375.15,158.5 377.5,160.85 377.5,163.75 C377.5,166.65 375.15,169 372.25,169 C369.35,169 367,166.65 367,163.75 Z" style="stroke-width: 1; stroke: rgb(0, 0, 0); fill: rgb(208, 2, 27); fill-opacity: 1;"/></g><g class="composite-shape"><path class="real" d=" M366,108.75 C366,105.85 368.35,103.5 371.25,103.5 C374.15,103.5 376.5,105.85 376.5,108.75 C376.5,111.65 374.15,114 371.25,114 C368.35,114 366,111.65 366,108.75 Z" style="stroke-width: 1; stroke: rgb(0, 0, 0); fill: rgb(208, 2, 27); fill-opacity: 1;"/></g><g class="composite-shape"><path class="real" d=" M126,268.75 C126,265.85 128.35,263.5 131.25,263.5 C134.15,263.5 136.5,265.85 136.5,268.75 C136.5,271.65 134.15,274 131.25,274 C128.35,274 126,271.65 126,268.75 Z" style="stroke-width: 1; stroke: rgb(0, 0, 0); fill: rgb(74, 144, 226); fill-opacity: 1;"/></g><g class="arrow-line"><path class="connection real" stroke-dasharray="" d="  M2,45 L547,411" style="stroke: rgb(0, 0, 0); stroke-width: 1; fill: none; fill-opacity: 1;"/></g><g/></g><g/><g/><g/></svg>
        <svg xmlns="http://www.w3.org/2000/svg" xmlns:xlink="http://www.w3.org/1999/xlink" width="660" height="413" style="width:660px;height:413px;font-family:LatinModern-Math, LatinModern, Asana-Math, Asana;background:#FFF;"><g><g><g><g transform="matrix(1,0,0,1,112,99.09375)"><path transform="matrix(0.017,0,0,-0.017,0,0)" d="M691 372C691 427 664 442 647 442C622 442 597 416 597 394C597 381 603 375 612 367C623 356 648 330 648 282C648 248 619 150 593 99C567 46 532 11 483 11C436 11 409 41 409 98C409 126 416 157 420 171L462 339C467 361 477 398 477 404C477 422 463 431 448 431C436 431 418 423 411 403C408 396 361 205 354 179C347 149 345 131 345 113C345 102 345 100 346 95C323 42 293 11 254 11C174 11 174 85 174 102C174 134 179 173 226 296C237 326 243 340 243 360C243 405 210 442 161 442C66 442 29 297 29 288C29 278 41 278 41 278C51 278 52 280 57 296C84 389 123 420 158 420C167 420 183 419 183 387C183 362 172 334 165 317C121 199 109 153 109 115C109 24 176 -11 251 -11C268 -11 315 -11 355 59C381 -5 450 -11 480 -11C555 -11 599 52 625 112C659 190 691 324 691 372Z" stroke="rgb(0,0,0)" stroke-opacity="1" stroke-width="8" fill="rgb(0,0,0)" fill-opacity="1"></path></g></g><g><g><g><g><g transform="matrix(1,0,0,1,125.15625,92.9)"><path transform="matrix(0.0119,0,0,-0.0119,0,0)" d="M704 666C704 677 694 677 677 677L122 677C98 677 97 676 90 657L30 481C29 479 24 463 24 463C24 457 29 452 36 452C46 452 47 457 53 473C107 628 133 646 281 646L320 646C348 646 348 642 348 634C348 628 345 616 344 613L210 79C201 42 198 31 91 31C55 31 49 31 49 12C49 0 60 0 66 0C93 0 121 2 148 2L233 3L316 2C345 2 375 0 403 0C413 0 425 0 425 20C425 31 417 31 391 31C366 31 353 31 327 33C298 36 290 39 290 55C290 55 290 61 294 76L427 607C434 635 438 641 450 644C459 646 492 646 513 646C614 646 659 642 659 564C659 549 655 510 651 484C650 480 648 468 648 465C648 459 651 452 660 452C671 452 673 460 675 475L702 649C703 653 704 663 704 666Z" stroke="rgb(0,0,0)" stroke-opacity="1" stroke-width="8" fill="rgb(0,0,0)" fill-opacity="1"></path></g></g></g></g></g><g><g transform="matrix(1,0,0,1,134.9296875,99.09375)"><path transform="matrix(0.017,0,0,-0.017,0,0)" d="M527 376C527 428 468 442 434 442C376 442 341 389 329 366C304 432 250 442 221 442C117 442 60 313 60 288C60 278 72 278 72 278C80 278 83 280 85 289C119 395 185 420 219 420C238 420 273 411 273 353C273 322 256 255 219 115C203 53 168 11 124 11C118 11 95 11 74 24C99 29 121 50 121 78C121 105 99 113 84 113C54 113 29 87 29 55C29 9 79 -11 123 -11C189 -11 225 59 228 65C240 28 276 -11 336 -11C439 -11 496 118 496 143C496 153 487 153 484 153C475 153 473 149 471 142C438 35 370 11 338 11C299 11 283 43 283 77C283 99 289 121 300 165L334 302C340 328 363 420 433 420C438 420 462 420 483 407C455 402 435 377 435 353C435 337 446 318 473 318C495 318 527 336 527 376Z" stroke="rgb(0,0,0)" stroke-opacity="1" stroke-width="8" fill="rgb(0,0,0)" fill-opacity="1"></path></g></g><g><g transform="matrix(1,0,0,1,149.75,99.09375)"><path transform="matrix(0.017,0,0,-0.017,0,0)" d="M722 347C722 358 713 367 702 367L76 367C65 367 56 358 56 347C56 336 65 327 76 327L702 327C713 327 722 336 722 347ZM722 153C722 164 713 173 702 173L76 173C65 173 56 164 56 153C56 142 65 133 76 133L702 133C713 133 722 142 722 153Z" stroke="rgb(0,0,0)" stroke-opacity="1" stroke-width="8" fill="rgb(0,0,0)" fill-opacity="1"></path></g></g><g><g transform="matrix(1,0,0,1,168.0703125,99.09375)"><path transform="matrix(0.017,0,0,-0.017,0,0)" d="M460 320C460 400 455 480 420 554C374 650 292 666 250 666C190 666 117 640 76 547C44 478 39 400 39 320C39 245 43 155 84 79C127 -2 200 -22 249 -22C303 -22 379 -1 423 94C455 163 460 241 460 320ZM377 332C377 257 377 189 366 125C351 30 294 0 249 0C210 0 151 25 133 121C122 181 122 273 122 332C122 396 122 462 130 516C149 635 224 644 249 644C282 644 348 626 367 527C377 471 377 395 377 332Z" stroke="rgb(0,0,0)" stroke-opacity="1" stroke-width="8" fill="rgb(0,0,0)" fill-opacity="1"></path></g></g></g></g><g><g><g><text x="450" y="326" style="white-space:pre;stroke:none;fill:rgb(0,0,0);fill-opacity:1;font-size:15px;font-family:&quot;Courier New&quot;, Courier, monospace;font-weight:400;font-style:normal;dominant-baseline:text-before-edge;text-decoration:none solid rgb(0, 0, 0);">Decision boundary</text></g></g></g></svg>
</svg>
