<svg xmlns="http://www.w3.org/2000/svg" xmlns:xlink="http://www.w3.org/1999/xlink" x="0" y="0" width="662" height="415" style="
        width:662px;
        height:415px;
        background: #FFF;
        fill: none;
">
        <svg xmlns="http://www.w3.org/2000/svg"/>
        
        <svg xmlns="http://www.w3.org/2000/svg" class="role-diagram-draw-area"><g class="shapes-region" style="stroke: black; fill: none;"><g class="composite-shape"><path class="real" d=" M147,305.75 C147,302.85 149.35,300.5 152.25,300.5 C155.15,300.5 157.5,302.85 157.5,305.75 C157.5,308.65 155.15,311 152.25,311 C149.35,311 147,308.65 147,305.75 Z" style="stroke-width: 1; stroke: rgb(0, 0, 0); fill: rgb(74, 144, 226); fill-opacity: 1;"/></g><g class="composite-shape"><path class="real" d=" M217,332.75 C217,329.85 219.35,327.5 222.25,327.5 C225.15,327.5 227.5,329.85 227.5,332.75 C227.5,335.65 225.15,338 222.25,338 C219.35,338 217,335.65 217,332.75 Z" style="stroke-width: 1; stroke: rgb(0, 0, 0); fill: rgb(74, 144, 226); fill-opacity: 1;"/></g><g class="composite-shape"><path class="real" d=" M217,332.75 C217,329.85 219.35,327.5 222.25,327.5 C225.15,327.5 227.5,329.85 227.5,332.75 C227.5,335.65 225.15,338 222.25,338 C219.35,338 217,335.65 217,332.75 Z" style="stroke-width: 1; stroke: rgb(0, 0, 0); fill: rgb(74, 144, 226); fill-opacity: 1;"/></g><g class="composite-shape"><path class="real" d=" M187,369.75 C187,366.85 189.35,364.5 192.25,364.5 C195.15,364.5 197.5,366.85 197.5,369.75 C197.5,372.65 195.15,375 192.25,375 C189.35,375 187,372.65 187,369.75 Z" style="stroke-width: 1; stroke: rgb(0, 0, 0); fill: rgb(74, 144, 226); fill-opacity: 1;"/></g><g class="composite-shape"><path class="real" d=" M182,323.75 C182,320.85 184.35,318.5 187.25,318.5 C190.15,318.5 192.5,320.85 192.5,323.75 C192.5,326.65 190.15,329 187.25,329 C184.35,329 182,326.65 182,323.75 Z" style="stroke-width: 1; stroke: rgb(0, 0, 0); fill: rgb(74, 144, 226); fill-opacity: 1;"/></g><g class="composite-shape"><path class="real" d=" M214,276.75 C214,273.85 216.35,271.5 219.25,271.5 C222.15,271.5 224.5,273.85 224.5,276.75 C224.5,279.65 222.15,282 219.25,282 C216.35,282 214,279.65 214,276.75 Z" style="stroke-width: 1; stroke: rgb(0, 0, 0); fill: rgb(74, 144, 226); fill-opacity: 1;"/></g><g class="composite-shape"><path class="real" d=" M144,348.75 C144,345.85 146.35,343.5 149.25,343.5 C152.15,343.5 154.5,345.85 154.5,348.75 C154.5,351.65 152.15,354 149.25,354 C146.35,354 144,351.65 144,348.75 Z" style="stroke-width: 1; stroke: rgb(0, 0, 0); fill: rgb(74, 144, 226); fill-opacity: 1;"/></g><g class="composite-shape"><path class="real" d=" M172,253.75 C172,250.85 174.35,248.5 177.25,248.5 C180.15,248.5 182.5,250.85 182.5,253.75 C182.5,256.65 180.15,259 177.25,259 C174.35,259 172,256.65 172,253.75 Z" style="stroke-width: 1; stroke: rgb(0, 0, 0); fill: rgb(74, 144, 226); fill-opacity: 1;"/></g><g class="composite-shape"><path class="real" d=" M405,146.75 C405,143.85 407.35,141.5 410.25,141.5 C413.15,141.5 415.5,143.85 415.5,146.75 C415.5,149.65 413.15,152 410.25,152 C407.35,152 405,149.65 405,146.75 Z" style="stroke-width: 1; stroke: rgb(0, 0, 0); fill: rgb(208, 2, 27); fill-opacity: 1;"/></g><g class="composite-shape"><path class="real" d=" M437,161.75 C437,158.85 439.35,156.5 442.25,156.5 C445.15,156.5 447.5,158.85 447.5,161.75 C447.5,164.65 445.15,167 442.25,167 C439.35,167 437,164.65 437,161.75 Z" style="stroke-width: 1; stroke: rgb(0, 0, 0); fill: rgb(208, 2, 27); fill-opacity: 1;"/></g><g class="composite-shape"><path class="real" d=" M457.25,170.75 C457.25,167.85 459.6,165.5 462.5,165.5 C465.4,165.5 467.75,167.85 467.75,170.75 C467.75,173.65 465.4,176 462.5,176 C459.6,176 457.25,173.65 457.25,170.75 Z" style="stroke-width: 1; stroke: rgb(0, 0, 0); fill: rgb(208, 2, 27); fill-opacity: 1;"/></g><g class="composite-shape"><path class="real" d=" M395,199.75 C395,196.85 397.35,194.5 400.25,194.5 C403.15,194.5 405.5,196.85 405.5,199.75 C405.5,202.65 403.15,205 400.25,205 C397.35,205 395,202.65 395,199.75 Z" style="stroke-width: 1; stroke: rgb(0, 0, 0); fill: rgb(208, 2, 27); fill-opacity: 1;"/></g><g class="composite-shape"><path class="real" d=" M433,209.75 C433,206.85 435.35,204.5 438.25,204.5 C441.15,204.5 443.5,206.85 443.5,209.75 C443.5,212.65 441.15,215 438.25,215 C435.35,215 433,212.65 433,209.75 Z" style="stroke-width: 1; stroke: rgb(0, 0, 0); fill: rgb(208, 2, 27); fill-opacity: 1;"/></g><g class="composite-shape"><path class="real" d=" M422,110.75 C422,107.85 424.35,105.5 427.25,105.5 C430.15,105.5 432.5,107.85 432.5,110.75 C432.5,113.65 430.15,116 427.25,116 C424.35,116 422,113.65 422,110.75 Z" style="stroke-width: 1; stroke: rgb(0, 0, 0); fill: rgb(208, 2, 27); fill-opacity: 1;"/></g><g class="composite-shape"><path class="real" d=" M367,163.75 C367,160.85 369.35,158.5 372.25,158.5 C375.15,158.5 377.5,160.85 377.5,163.75 C377.5,166.65 375.15,169 372.25,169 C369.35,169 367,166.65 367,163.75 Z" style="stroke-width: 1; stroke: rgb(0, 0, 0); fill: rgb(208, 2, 27); fill-opacity: 1;"/></g><g class="composite-shape"><path class="real" d=" M366,108.75 C366,105.85 368.35,103.5 371.25,103.5 C374.15,103.5 376.5,105.85 376.5,108.75 C376.5,111.65 374.15,114 371.25,114 C368.35,114 366,111.65 366,108.75 Z" style="stroke-width: 1; stroke: rgb(0, 0, 0); fill: rgb(208, 2, 27); fill-opacity: 1;"/></g><g class="composite-shape"><path class="real" d=" M126,268.75 C126,265.85 128.35,263.5 131.25,263.5 C134.15,263.5 136.5,265.85 136.5,268.75 C136.5,271.65 134.15,274 131.25,274 C128.35,274 126,271.65 126,268.75 Z" style="stroke-width: 1; stroke: rgb(0, 0, 0); fill: rgb(74, 144, 226); fill-opacity: 1;"/></g><g class="arrow-line"><path class="connection real" stroke-dasharray="" d="  M235,1.5 L235,415.5" style="stroke: rgb(0, 0, 0); stroke-width: 1; fill: none; fill-opacity: 1;"/></g><g class="arrow-line"><path class="connection real" stroke-dasharray="" d="  M358,-4 L358,410" style="stroke: rgb(0, 0, 0); stroke-width: 1; fill: none; fill-opacity: 1;"/></g><g class="arrow-line"><path class="connection real" stroke-dasharray="" d="  M296,2 L296,416" style="stroke: rgb(0, 0, 0); stroke-width: 1; fill: none; fill-opacity: 1;"/></g><g/></g><g/><g/><g/></svg>
        <svg xmlns="http://www.w3.org/2000/svg" xmlns:xlink="http://www.w3.org/1999/xlink" width="660" height="413" style="width:660px;height:413px;font-family:LatinModern-Math, LatinModern, Asana-Math, Asana;background:#FFF;"><g><g><g><g transform="matrix(1,0,0,1,211,44.5)"><path transform="matrix(0.017,0,0,-0.017,0,0)" d="M756 545C756 619 690 683 570 683L234 683C215 683 205 683 205 663C205 652 214 652 233 652C233 652 254 652 271 650C289 648 298 647 298 634C298 630 297 627 294 615L160 78C150 39 148 31 69 31C52 31 42 31 42 11C42 0 51 0 69 0L426 0C584 0 702 118 702 216C702 288 644 346 547 357C651 376 756 450 756 545ZM665 549C665 461 579 366 457 366L311 366L373 614C382 649 384 652 427 652L556 652C644 652 665 593 665 549ZM609 227C609 128 520 31 402 31L266 31C252 31 250 31 244 32C234 33 231 34 231 42C231 45 231 47 236 65L305 344L494 344C590 344 609 270 609 227Z" stroke="rgb(0,0,0)" stroke-opacity="1" stroke-width="8" fill="rgb(0,0,0)" fill-opacity="1"></path></g></g><g><g><g><g><g transform="matrix(1,0,0,1,224.4140625,48.0015625)"><path transform="matrix(0.0119,0,0,-0.0119,0,0)" d="M419 0L419 31L387 31C297 31 294 42 294 79L294 640C294 664 294 666 271 666C209 602 121 602 89 602L89 571C109 571 168 571 220 597L220 79C220 43 217 31 127 31L95 31L95 0C130 3 217 3 257 3C297 3 384 3 419 0Z" stroke="rgb(0,0,0)" stroke-opacity="1" stroke-width="8" fill="rgb(0,0,0)" fill-opacity="1"></path></g></g></g></g></g></g></g><g><g><g><g transform="matrix(1,0,0,1,334,42.5)"><path transform="matrix(0.017,0,0,-0.017,0,0)" d="M756 545C756 619 690 683 570 683L234 683C215 683 205 683 205 663C205 652 214 652 233 652C233 652 254 652 271 650C289 648 298 647 298 634C298 630 297 627 294 615L160 78C150 39 148 31 69 31C52 31 42 31 42 11C42 0 51 0 69 0L426 0C584 0 702 118 702 216C702 288 644 346 547 357C651 376 756 450 756 545ZM665 549C665 461 579 366 457 366L311 366L373 614C382 649 384 652 427 652L556 652C644 652 665 593 665 549ZM609 227C609 128 520 31 402 31L266 31C252 31 250 31 244 32C234 33 231 34 231 42C231 45 231 47 236 65L305 344L494 344C590 344 609 270 609 227Z" stroke="rgb(0,0,0)" stroke-opacity="1" stroke-width="8" fill="rgb(0,0,0)" fill-opacity="1"></path></g></g><g><g><g><g><g transform="matrix(1,0,0,1,347.4140625,46.0015625)"><path transform="matrix(0.0119,0,0,-0.0119,0,0)" d="M449 174L424 174C419 144 412 100 402 85C395 77 329 77 307 77L127 77L233 180C389 318 449 372 449 472C449 586 359 666 237 666C124 666 50 574 50 485C50 429 100 429 103 429C120 429 155 441 155 482C155 508 137 534 102 534C94 534 92 534 89 533C112 598 166 635 224 635C315 635 358 554 358 472C358 392 308 313 253 251L61 37C50 26 50 24 50 0L421 0Z" stroke="rgb(0,0,0)" stroke-opacity="1" stroke-width="8" fill="rgb(0,0,0)" fill-opacity="1"></path></g></g></g></g></g></g></g><g><g><g><g transform="matrix(1,0,0,1,272,45)"><path transform="matrix(0.017,0,0,-0.017,0,0)" d="M756 545C756 619 690 683 570 683L234 683C215 683 205 683 205 663C205 652 214 652 233 652C233 652 254 652 271 650C289 648 298 647 298 634C298 630 297 627 294 615L160 78C150 39 148 31 69 31C52 31 42 31 42 11C42 0 51 0 69 0L426 0C584 0 702 118 702 216C702 288 644 346 547 357C651 376 756 450 756 545ZM665 549C665 461 579 366 457 366L311 366L373 614C382 649 384 652 427 652L556 652C644 652 665 593 665 549ZM609 227C609 128 520 31 402 31L266 31C252 31 250 31 244 32C234 33 231 34 231 42C231 45 231 47 236 65L305 344L494 344C590 344 609 270 609 227Z" stroke="rgb(0,0,0)" stroke-opacity="1" stroke-width="8" fill="rgb(0,0,0)" fill-opacity="1"></path></g></g><g><g><g><g><g transform="matrix(1,0,0,1,285.4140625,48.5015625)"><path transform="matrix(0.0119,0,0,-0.0119,0,0)" d="M457 171C457 253 394 331 290 352C372 379 430 449 430 528C430 610 342 666 246 666C145 666 69 606 69 530C69 497 91 478 120 478C151 478 171 500 171 529C171 579 124 579 109 579C140 628 206 641 242 641C283 641 338 619 338 529C338 517 336 459 310 415C280 367 246 364 221 363C213 362 189 360 182 360C174 359 167 358 167 348C167 337 174 337 191 337L235 337C317 337 354 269 354 171C354 35 285 6 241 6C198 6 123 23 88 82C123 77 154 99 154 137C154 173 127 193 98 193C74 193 42 179 42 135C42 44 135 -22 244 -22C366 -22 457 69 457 171Z" stroke="rgb(0,0,0)" stroke-opacity="1" stroke-width="8" fill="rgb(0,0,0)" fill-opacity="1"></path></g></g></g></g></g></g></g></svg>
</svg>
