<svg xmlns="http://www.w3.org/2000/svg" xmlns:xlink="http://www.w3.org/1999/xlink" x="0" y="0" width="662" height="415" style="
        width:662px;
        height:415px;
        background: #FFF;
        fill: none;
">
        <svg xmlns="http://www.w3.org/2000/svg"/>
        
        <svg xmlns="http://www.w3.org/2000/svg" class="role-diagram-draw-area"><g class="shapes-region" style="stroke: black; fill: none;"><g class="arrow-line"><path class="connection real" stroke-dasharray="" d="  M150.25,243.75 L189,215" style="stroke: rgb(0, 0, 0); stroke-width: 3; fill: none; fill-opacity: 1;"/></g><g class="composite-shape"><path class="real" d=" M64,287.75 C64,284.85 66.35,282.5 69.25,282.5 C72.15,282.5 74.5,284.85 74.5,287.75 C74.5,290.65 72.15,293 69.25,293 C66.35,293 64,290.65 64,287.75 Z" style="stroke-width: 1; stroke: rgb(0, 0, 0); fill: rgb(74, 144, 226); fill-opacity: 1;"/></g><g class="composite-shape"><path class="real" d=" M139,310.75 C139,307.85 141.35,305.5 144.25,305.5 C147.15,305.5 149.5,307.85 149.5,310.75 C149.5,313.65 147.15,316 144.25,316 C141.35,316 139,313.65 139,310.75 Z" style="stroke-width: 1; stroke: rgb(0, 0, 0); fill: rgb(74, 144, 226); fill-opacity: 1;"/></g><g class="composite-shape"><path class="real" d=" M104,351.75 C104,348.85 106.35,346.5 109.25,346.5 C112.15,346.5 114.5,348.85 114.5,351.75 C114.5,354.65 112.15,357 109.25,357 C106.35,357 104,354.65 104,351.75 Z" style="stroke-width: 1; stroke: rgb(0, 0, 0); fill: rgb(74, 144, 226); fill-opacity: 1;"/></g><g class="composite-shape"><path class="real" d=" M67,358.75 C67,355.85 69.35,353.5 72.25,353.5 C75.15,353.5 77.5,355.85 77.5,358.75 C77.5,361.65 75.15,364 72.25,364 C69.35,364 67,361.65 67,358.75 Z" style="stroke-width: 1; stroke: rgb(0, 0, 0); fill: rgb(74, 144, 226); fill-opacity: 1;"/></g><g class="composite-shape"><path class="real" d=" M145,243.75 C145,240.85 147.35,238.5 150.25,238.5 C153.15,238.5 155.5,240.85 155.5,243.75 C155.5,246.65 153.15,249 150.25,249 C147.35,249 145,246.65 145,243.75 Z" style="stroke-width: 1; stroke: rgb(0, 0, 0); fill: rgb(74, 144, 226); fill-opacity: 1;"/></g><g class="composite-shape"><path class="real" d=" M61,330.75 C61,327.85 63.35,325.5 66.25,325.5 C69.15,325.5 71.5,327.85 71.5,330.75 C71.5,333.65 69.15,336 66.25,336 C63.35,336 61,333.65 61,330.75 Z" style="stroke-width: 1; stroke: rgb(0, 0, 0); fill: rgb(74, 144, 226); fill-opacity: 1;"/></g><g class="composite-shape"><path class="real" d=" M89,235.75 C89,232.85 91.35,230.5 94.25,230.5 C97.15,230.5 99.5,232.85 99.5,235.75 C99.5,238.65 97.15,241 94.25,241 C91.35,241 89,238.65 89,235.75 Z" style="stroke-width: 1; stroke: rgb(0, 0, 0); fill: rgb(74, 144, 226); fill-opacity: 1;"/></g><g class="composite-shape"><path class="real" d=" M300,71.75 C300,68.85 302.35,66.5 305.25,66.5 C308.15,66.5 310.5,68.85 310.5,71.75 C310.5,74.65 308.15,77 305.25,77 C302.35,77 300,74.65 300,71.75 Z" style="stroke-width: 1; stroke: rgb(0, 0, 0); fill: rgb(208, 2, 27); fill-opacity: 1;"/></g><g class="composite-shape"><path class="real" d=" M361,138.75 C361,135.85 363.35,133.5 366.25,133.5 C369.15,133.5 371.5,135.85 371.5,138.75 C371.5,141.65 369.15,144 366.25,144 C363.35,144 361,141.65 361,138.75 Z" style="stroke-width: 1; stroke: rgb(0, 0, 0); fill: rgb(208, 2, 27); fill-opacity: 1;"/></g><g class="composite-shape"><path class="real" d=" M384.25,188.75 C384.25,185.85 386.6,183.5 389.5,183.5 C392.4,183.5 394.75,185.85 394.75,188.75 C394.75,191.65 392.4,194 389.5,194 C386.6,194 384.25,191.65 384.25,188.75 Z" style="stroke-width: 1; stroke: rgb(0, 0, 0); fill: rgb(208, 2, 27); fill-opacity: 1;"/></g><g class="composite-shape"><path class="real" d=" M295,182.75 C295,179.85 297.35,177.5 300.25,177.5 C303.15,177.5 305.5,179.85 305.5,182.75 C305.5,185.65 303.15,188 300.25,188 C297.35,188 295,185.65 295,182.75 Z" style="stroke-width: 1; stroke: rgb(0, 0, 0); fill: rgb(208, 2, 27); fill-opacity: 1;"/></g><g class="composite-shape"><path class="real" d=" M325,201.75 C325,198.85 327.35,196.5 330.25,196.5 C333.15,196.5 335.5,198.85 335.5,201.75 C335.5,204.65 333.15,207 330.25,207 C327.35,207 325,204.65 325,201.75 Z" style="stroke-width: 1; stroke: rgb(0, 0, 0); fill: rgb(208, 2, 27); fill-opacity: 1;"/></g><g class="composite-shape"><path class="real" d=" M322,126.75 C322,123.85 324.35,121.5 327.25,121.5 C330.15,121.5 332.5,123.85 332.5,126.75 C332.5,129.65 330.15,132 327.25,132 C324.35,132 322,129.65 322,126.75 Z" style="stroke-width: 1; stroke: rgb(0, 0, 0); fill: rgb(208, 2, 27); fill-opacity: 1;"/></g><g class="composite-shape"><path class="real" d=" M259,158.75 C259,155.85 261.35,153.5 264.25,153.5 C267.15,153.5 269.5,155.85 269.5,158.75 C269.5,161.65 267.15,164 264.25,164 C261.35,164 259,161.65 259,158.75 Z" style="stroke-width: 1; stroke: rgb(0, 0, 0); fill: rgb(208, 2, 27); fill-opacity: 1;"/></g><g class="composite-shape"><path class="real" d=" M274,116.75 C274,113.85 276.35,111.5 279.25,111.5 C282.15,111.5 284.5,113.85 284.5,116.75 C284.5,119.65 282.15,122 279.25,122 C276.35,122 274,119.65 274,116.75 Z" style="stroke-width: 1; stroke: rgb(0, 0, 0); fill: rgb(208, 2, 27); fill-opacity: 1;"/></g><g class="composite-shape"><path class="real" d=" M43,250.75 C43,247.85 45.35,245.5 48.25,245.5 C51.15,245.5 53.5,247.85 53.5,250.75 C53.5,253.65 51.15,256 48.25,256 C45.35,256 43,253.65 43,250.75 Z" style="stroke-width: 1; stroke: rgb(0, 0, 0); fill: rgb(74, 144, 226); fill-opacity: 1;"/></g><g class="arrow-line"><path class="connection real" stroke-dasharray="" d="  M57,25 L327,415" style="stroke: rgb(0, 0, 0); stroke-width: 1; fill: none; fill-opacity: 1;"/></g><g/></g><g/><g/><g/></svg>
        <svg xmlns="http://www.w3.org/2000/svg" xmlns:xlink="http://www.w3.org/1999/xlink" width="660" height="413" style="width:660px;height:413px;font-family:LatinModern-Math, LatinModern, Asana-Math, Asana;background:#FFF;"></svg>
</svg>
