<svg xmlns="http://www.w3.org/2000/svg" xmlns:xlink="http://www.w3.org/1999/xlink" x="0" y="0" width="662" height="415" style="
        width:662px;
        height:415px;
        background: #FFF;
        fill: none;
">
        <svg xmlns="http://www.w3.org/2000/svg"/>
        
        <svg xmlns="http://www.w3.org/2000/svg" class="role-diagram-draw-area"><g class="shapes-region" style="stroke: black; fill: none;"><g class="composite-shape"><path class="real" d=" M147,305.75 C147,302.85 149.35,300.5 152.25,300.5 C155.15,300.5 157.5,302.85 157.5,305.75 C157.5,308.65 155.15,311 152.25,311 C149.35,311 147,308.65 147,305.75 Z" style="stroke-width: 1; stroke: rgb(0, 0, 0); fill: rgb(74, 144, 226); fill-opacity: 1;"/></g><g class="composite-shape"><path class="real" d=" M217,332.75 C217,329.85 219.35,327.5 222.25,327.5 C225.15,327.5 227.5,329.85 227.5,332.75 C227.5,335.65 225.15,338 222.25,338 C219.35,338 217,335.65 217,332.75 Z" style="stroke-width: 1; stroke: rgb(0, 0, 0); fill: rgb(74, 144, 226); fill-opacity: 1;"/></g><g class="composite-shape"><path class="real" d=" M244,295.75 C244,292.85 246.35,290.5 249.25,290.5 C252.15,290.5 254.5,292.85 254.5,295.75 C254.5,298.65 252.15,301 249.25,301 C246.35,301 244,298.65 244,295.75 Z" style="stroke-width: 1; stroke: rgb(0, 0, 0); fill: rgb(74, 144, 226); fill-opacity: 1;"/></g><g class="composite-shape"><path class="real" d=" M187,369.75 C187,366.85 189.35,364.5 192.25,364.5 C195.15,364.5 197.5,366.85 197.5,369.75 C197.5,372.65 195.15,375 192.25,375 C189.35,375 187,372.65 187,369.75 Z" style="stroke-width: 1; stroke: rgb(0, 0, 0); fill: rgb(74, 144, 226); fill-opacity: 1;"/></g><g class="composite-shape"><path class="real" d=" M182,323.75 C182,320.85 184.35,318.5 187.25,318.5 C190.15,318.5 192.5,320.85 192.5,323.75 C192.5,326.65 190.15,329 187.25,329 C184.35,329 182,326.65 182,323.75 Z" style="stroke-width: 1; stroke: rgb(0, 0, 0); fill: rgb(74, 144, 226); fill-opacity: 1;"/></g><g class="composite-shape"><path class="real" d=" M396,181.75 C396,178.85 398.35,176.5 401.25,176.5 C404.15,176.5 406.5,178.85 406.5,181.75 C406.5,184.65 404.15,187 401.25,187 C398.35,187 396,184.65 396,181.75 Z" style="stroke-width: 1; stroke: rgb(0, 0, 0); fill: rgb(74, 144, 226); fill-opacity: 1;"/></g><g class="composite-shape"><path class="real" d=" M144,348.75 C144,345.85 146.35,343.5 149.25,343.5 C152.15,343.5 154.5,345.85 154.5,348.75 C154.5,351.65 152.15,354 149.25,354 C146.35,354 144,351.65 144,348.75 Z" style="stroke-width: 1; stroke: rgb(0, 0, 0); fill: rgb(74, 144, 226); fill-opacity: 1;"/></g><g class="composite-shape"><path class="real" d=" M233,222.75 C233,219.85 235.35,217.5 238.25,217.5 C241.15,217.5 243.5,219.85 243.5,222.75 C243.5,225.65 241.15,228 238.25,228 C235.35,228 233,225.65 233,222.75 Z" style="stroke-width: 1; stroke: rgb(0, 0, 0); fill: rgb(74, 144, 226); fill-opacity: 1;"/></g><g class="composite-shape"><path class="real" d=" M405,146.75 C405,143.85 407.35,141.5 410.25,141.5 C413.15,141.5 415.5,143.85 415.5,146.75 C415.5,149.65 413.15,152 410.25,152 C407.35,152 405,149.65 405,146.75 Z" style="stroke-width: 1; stroke: rgb(0, 0, 0); fill: rgb(208, 2, 27); fill-opacity: 1;"/></g><g class="composite-shape"><path class="real" d=" M437,161.75 C437,158.85 439.35,156.5 442.25,156.5 C445.15,156.5 447.5,158.85 447.5,161.75 C447.5,164.65 445.15,167 442.25,167 C439.35,167 437,164.65 437,161.75 Z" style="stroke-width: 1; stroke: rgb(0, 0, 0); fill: rgb(208, 2, 27); fill-opacity: 1;"/></g><g class="composite-shape"><path class="real" d=" M457.25,170.75 C457.25,167.85 459.6,165.5 462.5,165.5 C465.4,165.5 467.75,167.85 467.75,170.75 C467.75,173.65 465.4,176 462.5,176 C459.6,176 457.25,173.65 457.25,170.75 Z" style="stroke-width: 1; stroke: rgb(0, 0, 0); fill: rgb(208, 2, 27); fill-opacity: 1;"/></g><g class="composite-shape"><path class="real" d=" M373,215.75 C373,212.85 375.35,210.5 378.25,210.5 C381.15,210.5 383.5,212.85 383.5,215.75 C383.5,218.65 381.15,221 378.25,221 C375.35,221 373,218.65 373,215.75 Z" style="stroke-width: 1; stroke: rgb(0, 0, 0); fill: rgb(208, 2, 27); fill-opacity: 1;"/></g><g class="composite-shape"><path class="real" d=" M433,209.75 C433,206.85 435.35,204.5 438.25,204.5 C441.15,204.5 443.5,206.85 443.5,209.75 C443.5,212.65 441.15,215 438.25,215 C435.35,215 433,212.65 433,209.75 Z" style="stroke-width: 1; stroke: rgb(0, 0, 0); fill: rgb(208, 2, 27); fill-opacity: 1;"/></g><g class="composite-shape"><path class="real" d=" M422,110.75 C422,107.85 424.35,105.5 427.25,105.5 C430.15,105.5 432.5,107.85 432.5,110.75 C432.5,113.65 430.15,116 427.25,116 C424.35,116 422,113.65 422,110.75 Z" style="stroke-width: 1; stroke: rgb(0, 0, 0); fill: rgb(208, 2, 27); fill-opacity: 1;"/></g><g class="composite-shape"><path class="real" d=" M202,264.75 C202,261.85 204.35,259.5 207.25,259.5 C210.15,259.5 212.5,261.85 212.5,264.75 C212.5,267.65 210.15,270 207.25,270 C204.35,270 202,267.65 202,264.75 Z" style="stroke-width: 1; stroke: rgb(0, 0, 0); fill: rgb(208, 2, 27); fill-opacity: 1;"/></g><g class="composite-shape"><path class="real" d=" M352,148.75 C352,145.85 354.35,143.5 357.25,143.5 C360.15,143.5 362.5,145.85 362.5,148.75 C362.5,151.65 360.15,154 357.25,154 C354.35,154 352,151.65 352,148.75 Z" style="stroke-width: 1; stroke: rgb(0, 0, 0); fill: rgb(208, 2, 27); fill-opacity: 1;"/></g><g class="composite-shape"><path class="real" d=" M153,230.75 C153,227.85 155.35,225.5 158.25,225.5 C161.15,225.5 163.5,227.85 163.5,230.75 C163.5,233.65 161.15,236 158.25,236 C155.35,236 153,233.65 153,230.75 Z" style="stroke-width: 1; stroke: rgb(0, 0, 0); fill: rgb(74, 144, 226); fill-opacity: 1;"/></g><g class="composite-shape"><path class="real" d=" M362,252.75 C362,249.85 364.35,247.5 367.25,247.5 C370.15,247.5 372.5,249.85 372.5,252.75 C372.5,255.65 370.15,258 367.25,258 C364.35,258 362,255.65 362,252.75 Z" style="stroke-width: 1; stroke: rgb(0, 0, 0); fill: rgb(74, 144, 226); fill-opacity: 1;"/></g><g class="composite-shape"><path class="real" d=" M269,260.75 C269,257.85 271.35,255.5 274.25,255.5 C277.15,255.5 279.5,257.85 279.5,260.75 C279.5,263.65 277.15,266 274.25,266 C271.35,266 269,263.65 269,260.75 Z" style="stroke-width: 1; stroke: rgb(0, 0, 0); fill: rgb(208, 2, 27); fill-opacity: 1;"/></g><g class="composite-shape"><path class="real" d=" M172,190.75 C172,187.85 174.35,185.5 177.25,185.5 C180.15,185.5 182.5,187.85 182.5,190.75 C182.5,193.65 180.15,196 177.25,196 C174.35,196 172,193.65 172,190.75 Z" style="stroke-width: 1; stroke: rgb(0, 0, 0); fill: rgb(74, 144, 226); fill-opacity: 1;"/></g><g class="composite-shape"><path class="real" d=" M200,212.75 C200,209.85 202.35,207.5 205.25,207.5 C208.15,207.5 210.5,209.85 210.5,212.75 C210.5,215.65 208.15,218 205.25,218 C202.35,218 200,215.65 200,212.75 Z" style="stroke-width: 1; stroke: rgb(0, 0, 0); fill: rgb(74, 144, 226); fill-opacity: 1;"/></g><g class="composite-shape"><path class="real" d=" M434,263.75 C434,260.85 436.35,258.5 439.25,258.5 C442.15,258.5 444.5,260.85 444.5,263.75 C444.5,266.65 442.15,269 439.25,269 C436.35,269 434,266.65 434,263.75 Z" style="stroke-width: 1; stroke: rgb(0, 0, 0); fill: rgb(208, 2, 27); fill-opacity: 1;"/></g><g class="composite-shape"><path class="real" d=" M479,228.75 C479,225.85 481.35,223.5 484.25,223.5 C487.15,223.5 489.5,225.85 489.5,228.75 C489.5,231.65 487.15,234 484.25,234 C481.35,234 479,231.65 479,228.75 Z" style="stroke-width: 1; stroke: rgb(0, 0, 0); fill: rgb(208, 2, 27); fill-opacity: 1;"/></g><g class="arrow-line"><path class="connection real" stroke-dasharray="" d="  M215,2 L403,407.5" style="stroke: rgb(0, 0, 0); stroke-width: 1; fill: none; fill-opacity: 1;"/></g><g/></g><g/><g/><g/></svg>
        <svg xmlns="http://www.w3.org/2000/svg" xmlns:xlink="http://www.w3.org/1999/xlink" width="660" height="413" style="width:660px;height:413px;font-family:LatinModern-Math, LatinModern, Asana-Math, Asana;background:#FFF;"></svg>
</svg>
