<svg xmlns="http://www.w3.org/2000/svg" xmlns:xlink="http://www.w3.org/1999/xlink" x="0" y="0" width="662" height="419" style="
        width:662px;
        height:419px;
        background: #FFF;
        fill: none;
">
        
        
        <svg xmlns="http://www.w3.org/2000/svg" class="role-diagram-draw-area"><g class="shapes-region" style="stroke: black; fill: none;"><g class="arrow-line"><path class="connection real" stroke-dasharray="" d="  M250,70.5 L310.25,223.75" style="stroke: rgb(0, 0, 0); stroke-width: 1; fill: none; fill-opacity: 1;"/></g><g class="composite-shape"><path class="real" d=" M304,223.75 C304,220.3 306.8,217.5 310.25,217.5 C313.7,217.5 316.5,220.3 316.5,223.75 C316.5,227.2 313.7,230 310.25,230 C306.8,230 304,227.2 304,223.75 Z" style="stroke-width: 1; stroke: rgb(0, 0, 0); fill: rgb(225, 20, 20); fill-opacity: 1;"/></g><g class="arrow-line"><path class="connection real" stroke-dasharray="" d="  M515,240.5 L310.25,223.75" style="stroke: rgb(0, 0, 0); stroke-width: 1; fill: none; fill-opacity: 1;"/></g><g class="arrow-line"><path class="connection real" stroke-dasharray="1.125 3.35" d="  M310.25,223.75 L105.5,207" style="stroke: rgb(0, 0, 0); stroke-width: 1; fill: none; fill-opacity: 1;"/></g><g class="arrow-line"><path class="connection real" stroke-dasharray="1.125 3.35" d="  M310.25,223.75 L370.5,377" style="stroke: rgb(0, 0, 0); stroke-width: 1; fill: none; fill-opacity: 1;"/></g><g class="arrow-line"><path class="connection real" stroke-dasharray="" d="  M310.25,223.75 L172,340.5" style="stroke: rgb(0, 0, 0); stroke-width: 1; fill: none; fill-opacity: 1;"/></g><g class="arrow-line"><path class="connection real" stroke-dasharray="1.125 3.35" d="  M448.5,107 L310.25,223.75" style="stroke: rgb(0, 0, 0); stroke-width: 1; fill: none; fill-opacity: 1;"/></g><g class="arrow-line"><path class="connection real" stroke-dasharray="" d="  M310.25,223.75 L371.23,191.44" style="stroke: rgb(0, 0, 0); stroke-width: 1; fill: none; fill-opacity: 1;"/><g stroke="#000" transform="matrix(-0.883602237931387,0.4682382781476163,-0.4682382781476163,-0.883602237931387,372.99999999999994,190.5)" style="stroke: rgb(0, 0, 0); stroke-width: 1;"><path d=" M10.93,-3.29 Q4.96,-0.45 0,0 Q4.96,0.45 10.93,3.29"/></g></g><g class="arrow-line"><path class="connection real" stroke-dasharray="" d="  M310.25,223.75 L304.15,304.51" style="stroke: rgb(0, 0, 0); stroke-width: 1; fill: none; fill-opacity: 1;"/><g stroke="#000" transform="matrix(0.07532680552793229,-0.9971589002606139,0.9971589002606139,0.07532680552793229,304,306.50000000000006)" style="stroke: rgb(0, 0, 0); stroke-width: 1;"><path d=" M10.93,-3.29 Q4.96,-0.45 0,0 Q4.96,0.45 10.93,3.29"/></g></g><g class="arrow-line"><path class="connection real" stroke-dasharray="" d="  M310.25,223.75 L271.18,170.12" style="stroke: rgb(0, 0, 0); stroke-width: 1; fill: none; fill-opacity: 1;"/><g stroke="#000" transform="matrix(0.5887732140930068,0.8082982756177267,-0.8082982756177267,0.5887732140930068,270,168.5)" style="stroke: rgb(0, 0, 0); stroke-width: 1;"><path d=" M10.93,-3.29 Q4.96,-0.45 0,0 Q4.96,0.45 10.93,3.29"/></g></g><g/></g><g/><g/><g/></svg>
        <svg xmlns="http://www.w3.org/2000/svg" xmlns:xlink="http://www.w3.org/1999/xlink" width="660" height="417" style="width:660px;height:417px;font-family:LatinModern-Math, LatinModern, Asana-Math, Asana;background:#FFF;"><g><g><g><g transform="matrix(1,0,0,1,382,201)"><path transform="matrix(0.017,0,0,-0.017,0,0)" d="M691 372C691 427 664 442 647 442C622 442 597 416 597 394C597 381 603 375 612 367C623 356 648 330 648 282C648 248 619 150 593 99C567 46 532 11 483 11C436 11 409 41 409 98C409 126 416 157 420 171L462 339C467 361 477 398 477 404C477 422 463 431 448 431C436 431 418 423 411 403C408 396 361 205 354 179C347 149 345 131 345 113C345 102 345 100 346 95C323 42 293 11 254 11C174 11 174 85 174 102C174 134 179 173 226 296C237 326 243 340 243 360C243 405 210 442 161 442C66 442 29 297 29 288C29 278 41 278 41 278C51 278 52 280 57 296C84 389 123 420 158 420C167 420 183 419 183 387C183 362 172 334 165 317C121 199 109 153 109 115C109 24 176 -11 251 -11C268 -11 315 -11 355 59C381 -5 450 -11 480 -11C555 -11 599 52 625 112C659 190 691 324 691 372Z" stroke="rgb(0,0,0)" stroke-opacity="1" stroke-width="8" fill="rgb(0,0,0)" fill-opacity="1"></path></g></g><g><g><g><g><g transform="matrix(1,0,0,1,394.6875,204.5015625)"><path transform="matrix(0.0119,0,0,-0.0119,0,0)" d="M419 0L419 31L387 31C297 31 294 42 294 79L294 640C294 664 294 666 271 666C209 602 121 602 89 602L89 571C109 571 168 571 220 597L220 79C220 43 217 31 127 31L95 31L95 0C130 3 217 3 257 3C297 3 384 3 419 0Z" stroke="rgb(0,0,0)" stroke-opacity="1" stroke-width="8" fill="rgb(0,0,0)" fill-opacity="1"></path></g></g></g></g></g><g><g transform="matrix(1,0,0,1,405.0546875,201)"><path transform="matrix(0.017,0,0,-0.017,0,0)" d="M722 250C722 261 713 270 702 270L76 270C65 270 56 261 56 250C56 239 65 230 76 230L702 230C713 230 722 239 722 250Z" stroke="rgb(0,0,0)" stroke-opacity="1" stroke-width="8" fill="rgb(0,0,0)" fill-opacity="1"></path></g></g><g><g transform="matrix(1,0,0,1,421.6796875,201)"><path transform="matrix(0.017,0,0,-0.017,0,0)" d="M691 372C691 427 664 442 647 442C622 442 597 416 597 394C597 381 603 375 612 367C623 356 648 330 648 282C648 248 619 150 593 99C567 46 532 11 483 11C436 11 409 41 409 98C409 126 416 157 420 171L462 339C467 361 477 398 477 404C477 422 463 431 448 431C436 431 418 423 411 403C408 396 361 205 354 179C347 149 345 131 345 113C345 102 345 100 346 95C323 42 293 11 254 11C174 11 174 85 174 102C174 134 179 173 226 296C237 326 243 340 243 360C243 405 210 442 161 442C66 442 29 297 29 288C29 278 41 278 41 278C51 278 52 280 57 296C84 389 123 420 158 420C167 420 183 419 183 387C183 362 172 334 165 317C121 199 109 153 109 115C109 24 176 -11 251 -11C268 -11 315 -11 355 59C381 -5 450 -11 480 -11C555 -11 599 52 625 112C659 190 691 324 691 372Z" stroke="rgb(0,0,0)" stroke-opacity="1" stroke-width="8" fill="rgb(0,0,0)" fill-opacity="1"></path></g></g><g><g><g><g><g transform="matrix(1,0,0,1,434.3671875,204.5015625)"><path transform="matrix(0.0119,0,0,-0.0119,0,0)" d="M449 174L424 174C419 144 412 100 402 85C395 77 329 77 307 77L127 77L233 180C389 318 449 372 449 472C449 586 359 666 237 666C124 666 50 574 50 485C50 429 100 429 103 429C120 429 155 441 155 482C155 508 137 534 102 534C94 534 92 534 89 533C112 598 166 635 224 635C315 635 358 554 358 472C358 392 308 313 253 251L61 37C50 26 50 24 50 0L421 0Z" stroke="rgb(0,0,0)" stroke-opacity="1" stroke-width="8" fill="rgb(0,0,0)" fill-opacity="1"></path></g></g></g></g></g></g></g><g><g><g><g transform="matrix(1,0,0,1,199,184)"><path transform="matrix(0.017,0,0,-0.017,0,0)" d="M691 372C691 427 664 442 647 442C622 442 597 416 597 394C597 381 603 375 612 367C623 356 648 330 648 282C648 248 619 150 593 99C567 46 532 11 483 11C436 11 409 41 409 98C409 126 416 157 420 171L462 339C467 361 477 398 477 404C477 422 463 431 448 431C436 431 418 423 411 403C408 396 361 205 354 179C347 149 345 131 345 113C345 102 345 100 346 95C323 42 293 11 254 11C174 11 174 85 174 102C174 134 179 173 226 296C237 326 243 340 243 360C243 405 210 442 161 442C66 442 29 297 29 288C29 278 41 278 41 278C51 278 52 280 57 296C84 389 123 420 158 420C167 420 183 419 183 387C183 362 172 334 165 317C121 199 109 153 109 115C109 24 176 -11 251 -11C268 -11 315 -11 355 59C381 -5 450 -11 480 -11C555 -11 599 52 625 112C659 190 691 324 691 372Z" stroke="rgb(0,0,0)" stroke-opacity="1" stroke-width="8" fill="rgb(0,0,0)" fill-opacity="1"></path></g></g><g><g><g><g><g transform="matrix(1,0,0,1,211.6875,187.5015625)"><path transform="matrix(0.0119,0,0,-0.0119,0,0)" d="M449 174L424 174C419 144 412 100 402 85C395 77 329 77 307 77L127 77L233 180C389 318 449 372 449 472C449 586 359 666 237 666C124 666 50 574 50 485C50 429 100 429 103 429C120 429 155 441 155 482C155 508 137 534 102 534C94 534 92 534 89 533C112 598 166 635 224 635C315 635 358 554 358 472C358 392 308 313 253 251L61 37C50 26 50 24 50 0L421 0Z" stroke="rgb(0,0,0)" stroke-opacity="1" stroke-width="8" fill="rgb(0,0,0)" fill-opacity="1"></path></g></g></g></g></g><g><g transform="matrix(1,0,0,1,222.0546875,184)"><path transform="matrix(0.017,0,0,-0.017,0,0)" d="M722 250C722 261 713 270 702 270L76 270C65 270 56 261 56 250C56 239 65 230 76 230L702 230C713 230 722 239 722 250Z" stroke="rgb(0,0,0)" stroke-opacity="1" stroke-width="8" fill="rgb(0,0,0)" fill-opacity="1"></path></g></g><g><g transform="matrix(1,0,0,1,238.6796875,184)"><path transform="matrix(0.017,0,0,-0.017,0,0)" d="M691 372C691 427 664 442 647 442C622 442 597 416 597 394C597 381 603 375 612 367C623 356 648 330 648 282C648 248 619 150 593 99C567 46 532 11 483 11C436 11 409 41 409 98C409 126 416 157 420 171L462 339C467 361 477 398 477 404C477 422 463 431 448 431C436 431 418 423 411 403C408 396 361 205 354 179C347 149 345 131 345 113C345 102 345 100 346 95C323 42 293 11 254 11C174 11 174 85 174 102C174 134 179 173 226 296C237 326 243 340 243 360C243 405 210 442 161 442C66 442 29 297 29 288C29 278 41 278 41 278C51 278 52 280 57 296C84 389 123 420 158 420C167 420 183 419 183 387C183 362 172 334 165 317C121 199 109 153 109 115C109 24 176 -11 251 -11C268 -11 315 -11 355 59C381 -5 450 -11 480 -11C555 -11 599 52 625 112C659 190 691 324 691 372Z" stroke="rgb(0,0,0)" stroke-opacity="1" stroke-width="8" fill="rgb(0,0,0)" fill-opacity="1"></path></g></g><g><g><g><g><g transform="matrix(1,0,0,1,251.3671875,187.5015625)"><path transform="matrix(0.0119,0,0,-0.0119,0,0)" d="M457 171C457 253 394 331 290 352C372 379 430 449 430 528C430 610 342 666 246 666C145 666 69 606 69 530C69 497 91 478 120 478C151 478 171 500 171 529C171 579 124 579 109 579C140 628 206 641 242 641C283 641 338 619 338 529C338 517 336 459 310 415C280 367 246 364 221 363C213 362 189 360 182 360C174 359 167 358 167 348C167 337 174 337 191 337L235 337C317 337 354 269 354 171C354 35 285 6 241 6C198 6 123 23 88 82C123 77 154 99 154 137C154 173 127 193 98 193C74 193 42 179 42 135C42 44 135 -22 244 -22C366 -22 457 69 457 171Z" stroke="rgb(0,0,0)" stroke-opacity="1" stroke-width="8" fill="rgb(0,0,0)" fill-opacity="1"></path></g></g></g></g></g></g></g><g><g><g><g transform="matrix(1,0,0,1,265,332)"><path transform="matrix(0.017,0,0,-0.017,0,0)" d="M691 372C691 427 664 442 647 442C622 442 597 416 597 394C597 381 603 375 612 367C623 356 648 330 648 282C648 248 619 150 593 99C567 46 532 11 483 11C436 11 409 41 409 98C409 126 416 157 420 171L462 339C467 361 477 398 477 404C477 422 463 431 448 431C436 431 418 423 411 403C408 396 361 205 354 179C347 149 345 131 345 113C345 102 345 100 346 95C323 42 293 11 254 11C174 11 174 85 174 102C174 134 179 173 226 296C237 326 243 340 243 360C243 405 210 442 161 442C66 442 29 297 29 288C29 278 41 278 41 278C51 278 52 280 57 296C84 389 123 420 158 420C167 420 183 419 183 387C183 362 172 334 165 317C121 199 109 153 109 115C109 24 176 -11 251 -11C268 -11 315 -11 355 59C381 -5 450 -11 480 -11C555 -11 599 52 625 112C659 190 691 324 691 372Z" stroke="rgb(0,0,0)" stroke-opacity="1" stroke-width="8" fill="rgb(0,0,0)" fill-opacity="1"></path></g></g><g><g><g><g><g transform="matrix(1,0,0,1,277.6875,335.5015625)"><path transform="matrix(0.0119,0,0,-0.0119,0,0)" d="M419 0L419 31L387 31C297 31 294 42 294 79L294 640C294 664 294 666 271 666C209 602 121 602 89 602L89 571C109 571 168 571 220 597L220 79C220 43 217 31 127 31L95 31L95 0C130 3 217 3 257 3C297 3 384 3 419 0Z" stroke="rgb(0,0,0)" stroke-opacity="1" stroke-width="8" fill="rgb(0,0,0)" fill-opacity="1"></path></g></g></g></g></g><g><g transform="matrix(1,0,0,1,288.0546875,332)"><path transform="matrix(0.017,0,0,-0.017,0,0)" d="M722 250C722 261 713 270 702 270L76 270C65 270 56 261 56 250C56 239 65 230 76 230L702 230C713 230 722 239 722 250Z" stroke="rgb(0,0,0)" stroke-opacity="1" stroke-width="8" fill="rgb(0,0,0)" fill-opacity="1"></path></g></g><g><g transform="matrix(1,0,0,1,304.6796875,332)"><path transform="matrix(0.017,0,0,-0.017,0,0)" d="M691 372C691 427 664 442 647 442C622 442 597 416 597 394C597 381 603 375 612 367C623 356 648 330 648 282C648 248 619 150 593 99C567 46 532 11 483 11C436 11 409 41 409 98C409 126 416 157 420 171L462 339C467 361 477 398 477 404C477 422 463 431 448 431C436 431 418 423 411 403C408 396 361 205 354 179C347 149 345 131 345 113C345 102 345 100 346 95C323 42 293 11 254 11C174 11 174 85 174 102C174 134 179 173 226 296C237 326 243 340 243 360C243 405 210 442 161 442C66 442 29 297 29 288C29 278 41 278 41 278C51 278 52 280 57 296C84 389 123 420 158 420C167 420 183 419 183 387C183 362 172 334 165 317C121 199 109 153 109 115C109 24 176 -11 251 -11C268 -11 315 -11 355 59C381 -5 450 -11 480 -11C555 -11 599 52 625 112C659 190 691 324 691 372Z" stroke="rgb(0,0,0)" stroke-opacity="1" stroke-width="8" fill="rgb(0,0,0)" fill-opacity="1"></path></g></g><g><g><g><g><g transform="matrix(1,0,0,1,317.3671875,335.5015625)"><path transform="matrix(0.0119,0,0,-0.0119,0,0)" d="M457 171C457 253 394 331 290 352C372 379 430 449 430 528C430 610 342 666 246 666C145 666 69 606 69 530C69 497 91 478 120 478C151 478 171 500 171 529C171 579 124 579 109 579C140 628 206 641 242 641C283 641 338 619 338 529C338 517 336 459 310 415C280 367 246 364 221 363C213 362 189 360 182 360C174 359 167 358 167 348C167 337 174 337 191 337L235 337C317 337 354 269 354 171C354 35 285 6 241 6C198 6 123 23 88 82C123 77 154 99 154 137C154 173 127 193 98 193C74 193 42 179 42 135C42 44 135 -22 244 -22C366 -22 457 69 457 171Z" stroke="rgb(0,0,0)" stroke-opacity="1" stroke-width="8" fill="rgb(0,0,0)" fill-opacity="1"></path></g></g></g></g></g></g></g></svg>
</svg>
