<svg xmlns="http://www.w3.org/2000/svg" xmlns:xlink="http://www.w3.org/1999/xlink" x="0" y="0" width="662" height="518" style="
        width:662px;
        height:518px;
        background: #FFF;
        fill: none;
">
        <svg xmlns="http://www.w3.org/2000/svg"/>
        
        <svg xmlns="http://www.w3.org/2000/svg" class="role-diagram-draw-area"><g class="shapes-region" style="stroke: black; fill: none;"><g class="composite-shape"><path class="real" d=" M89,72 L146,72 L146,111 L89,111 Z" style="stroke-width: 1; stroke: rgb(0, 0, 0); fill: rgb(74, 144, 226); fill-opacity: 1;"/></g><g class="composite-shape"><path class="real" d=" M146,72 L203,72 L203,111 L146,111 Z" style="stroke-width: 1; stroke: rgb(0, 0, 0); fill: rgb(74, 144, 226); fill-opacity: 1;"/></g><g class="composite-shape"><path class="real" d=" M89,113 L146,113 L146,152 L89,152 Z" style="stroke-width: 1; stroke: rgb(0, 0, 0); fill: rgb(208, 2, 27); fill-opacity: 1;"/></g><g class="composite-shape"><path class="real" d=" M146,113 L203,113 L203,152 L146,152 Z" style="stroke-width: 1; stroke: rgb(0, 0, 0); fill: rgb(208, 2, 27); fill-opacity: 1;"/></g><g class="composite-shape"><path class="real" d=" M89,154 L146,154 L146,193 L89,193 Z" style="stroke-width: 1; stroke: rgb(0, 0, 0); fill: rgb(74, 144, 226); fill-opacity: 1;"/></g><g class="composite-shape"><path class="real" d=" M146,154 L203,154 L203,193 L146,193 Z" style="stroke-width: 1; stroke: rgb(0, 0, 0); fill: rgb(74, 144, 226); fill-opacity: 1;"/></g><g class="composite-shape"><path class="real" d=" M89,195 L146,195 L146,234 L89,234 Z" style="stroke-width: 1; stroke: rgb(0, 0, 0); fill: rgb(123, 201, 43); fill-opacity: 1;"/></g><g class="composite-shape"><path class="real" d=" M146,195 L203,195 L203,234 L146,234 Z" style="stroke-width: 1; stroke: rgb(0, 0, 0); fill: rgb(123, 201, 43); fill-opacity: 1;"/></g><g class="composite-shape"><path class="real" d=" M89,236 L146,236 L146,275 L89,275 Z" style="stroke-width: 1; stroke: rgb(0, 0, 0); fill: rgb(123, 201, 43); fill-opacity: 1;"/></g><g class="composite-shape"><path class="real" d=" M146,236 L203,236 L203,275 L146,275 Z" style="stroke-width: 1; stroke: rgb(0, 0, 0); fill: rgb(123, 201, 43); fill-opacity: 1;"/></g><g class="composite-shape"><path class="real" d=" M89,277 L146,277 L146,316 L89,316 Z" style="stroke-width: 1; stroke: rgb(0, 0, 0); fill: rgb(123, 201, 43); fill-opacity: 1;"/></g><g class="composite-shape"><path class="real" d=" M146,277 L203,277 L203,316 L146,316 Z" style="stroke-width: 1; stroke: rgb(0, 0, 0); fill: rgb(123, 201, 43); fill-opacity: 1;"/></g><g class="composite-shape"><path class="real" d=" M89,318 L146,318 L146,357 L89,357 Z" style="stroke-width: 1; stroke: rgb(0, 0, 0); fill: rgb(74, 144, 226); fill-opacity: 1;"/></g><g class="composite-shape"><path class="real" d=" M146,318 L203,318 L203,357 L146,357 Z" style="stroke-width: 1; stroke: rgb(0, 0, 0); fill: rgb(74, 144, 226); fill-opacity: 1;"/></g><g class="composite-shape"><path class="real" d=" M89,359 L146,359 L146,398 L89,398 Z" style="stroke-width: 1; stroke: rgb(0, 0, 0); fill: rgb(208, 2, 27); fill-opacity: 1;"/></g><g class="composite-shape"><path class="real" d=" M146,359 L203,359 L203,398 L146,398 Z" style="stroke-width: 1; stroke: rgb(0, 0, 0); fill: rgb(208, 2, 27); fill-opacity: 1;"/></g><g class="composite-shape"><path class="real" d=" M89,400.5 L146,400.5 L146,439.5 L89,439.5 Z" style="stroke-width: 1; stroke: rgb(0, 0, 0); fill: rgb(208, 2, 27); fill-opacity: 1;"/></g><g class="composite-shape"><path class="real" d=" M146,400.5 L203,400.5 L203,439.5 L146,439.5 Z" style="stroke-width: 1; stroke: rgb(0, 0, 0); fill: rgb(208, 2, 27); fill-opacity: 1;"/></g><g class="composite-shape"><path class="real" d=" M454,129 L511,129 L511,168 L454,168 Z" style="stroke-width: 1; stroke: rgb(0, 0, 0); fill: rgb(74, 144, 226); fill-opacity: 1;"/></g><g class="composite-shape"><path class="real" d=" M511,129 L568,129 L568,168 L511,168 Z" style="stroke-width: 1; stroke: rgb(0, 0, 0); fill: rgb(74, 144, 226); fill-opacity: 1;"/></g><g class="composite-shape"><path class="real" d=" M454,171 L511,171 L511,210 L454,210 Z" style="stroke-width: 1; stroke: rgb(0, 0, 0); fill: rgb(74, 144, 226); fill-opacity: 1;"/></g><g class="composite-shape"><path class="real" d=" M511,171 L568,171 L568,210 L511,210 Z" style="stroke-width: 1; stroke: rgb(0, 0, 0); fill: rgb(74, 144, 226); fill-opacity: 1;"/></g><g class="composite-shape"><path class="real" d=" M454,214 L511,214 L511,253 L454,253 Z" style="stroke-width: 1; stroke: rgb(0, 0, 0); fill: rgb(74, 144, 226); fill-opacity: 1;"/></g><g class="composite-shape"><path class="real" d=" M511,214 L568,214 L568,253 L511,253 Z" style="stroke-width: 1; stroke: rgb(0, 0, 0); fill: rgb(74, 144, 226); fill-opacity: 1;"/></g><g class="arrow-line"><path class="connection real" stroke-dasharray="" d="  M440,131 L440,251" style="stroke: rgb(0, 0, 0); stroke-width: 1; fill: none; fill-opacity: 1;"/><g stroke="#000" transform="matrix(-1.8369701987210297e-16,-1,1,-1.8369701987210297e-16,440,252.99999999999994)" style="stroke: rgb(0, 0, 0); stroke-width: 1;"><path d=" M10.93,-3.29 Q4.96,-0.45 0,0 Q4.96,0.45 10.93,3.29"/></g></g><g class="arrow-line"><path class="connection real" stroke-dasharray="" d="  M454,106 L575,106" style="stroke: rgb(0, 0, 0); stroke-width: 1; fill: none; fill-opacity: 1;"/><g stroke="#000" transform="matrix(-1,1.2246467991473532e-16,-1.2246467991473532e-16,-1,577,106.00000000000001)" style="stroke: rgb(0, 0, 0); stroke-width: 1;"><path d=" M10.93,-3.29 Q4.96,-0.45 0,0 Q4.96,0.45 10.93,3.29"/></g></g><g class="composite-shape"><path class="real" d=" M416,365 L473,365 L473,404 L416,404 Z" style="stroke-width: 1; stroke: rgb(0, 0, 0); fill: rgb(74, 144, 226); fill-opacity: 1;"/></g><g class="composite-shape"><path class="real" d=" M473,365 L530,365 L530,404 L473,404 Z" style="stroke-width: 1; stroke: rgb(0, 0, 0); fill: rgb(74, 144, 226); fill-opacity: 1;"/></g><g/></g><g/><g/><g/></svg>
        <svg xmlns="http://www.w3.org/2000/svg" xmlns:xlink="http://www.w3.org/1999/xlink" width="660" height="516" style="width:660px;height:516px;font-family:LatinModern-Math, LatinModern, Asana-Math, Asana;background:#FFF;"><g><g><g><g transform="matrix(1,0,0,1,111,48.5)"><path transform="matrix(0.017,0,0,-0.017,0,0)" d="M527 376C527 428 468 442 434 442C376 442 341 389 329 366C304 432 250 442 221 442C117 442 60 313 60 288C60 278 72 278 72 278C80 278 83 280 85 289C119 395 185 420 219 420C238 420 273 411 273 353C273 322 256 255 219 115C203 53 168 11 124 11C118 11 95 11 74 24C99 29 121 50 121 78C121 105 99 113 84 113C54 113 29 87 29 55C29 9 79 -11 123 -11C189 -11 225 59 228 65C240 28 276 -11 336 -11C439 -11 496 118 496 143C496 153 487 153 484 153C475 153 473 149 471 142C438 35 370 11 338 11C299 11 283 43 283 77C283 99 289 121 300 165L334 302C340 328 363 420 433 420C438 420 462 420 483 407C455 402 435 377 435 353C435 337 446 318 473 318C495 318 527 336 527 376Z" stroke="rgb(0,0,0)" stroke-opacity="1" stroke-width="8" fill="rgb(0,0,0)" fill-opacity="1"></path></g></g><g><g><g><g><g transform="matrix(1,0,0,1,121.234375,52.0015625)"><path transform="matrix(0.0119,0,0,-0.0119,0,0)" d="M419 0L419 31L387 31C297 31 294 42 294 79L294 640C294 664 294 666 271 666C209 602 121 602 89 602L89 571C109 571 168 571 220 597L220 79C220 43 217 31 127 31L95 31L95 0C130 3 217 3 257 3C297 3 384 3 419 0Z" stroke="rgb(0,0,0)" stroke-opacity="1" stroke-width="8" fill="rgb(0,0,0)" fill-opacity="1"></path></g></g></g></g></g></g></g><g><g><g><g transform="matrix(1,0,0,1,168,47.5)"><path transform="matrix(0.017,0,0,-0.017,0,0)" d="M527 376C527 428 468 442 434 442C376 442 341 389 329 366C304 432 250 442 221 442C117 442 60 313 60 288C60 278 72 278 72 278C80 278 83 280 85 289C119 395 185 420 219 420C238 420 273 411 273 353C273 322 256 255 219 115C203 53 168 11 124 11C118 11 95 11 74 24C99 29 121 50 121 78C121 105 99 113 84 113C54 113 29 87 29 55C29 9 79 -11 123 -11C189 -11 225 59 228 65C240 28 276 -11 336 -11C439 -11 496 118 496 143C496 153 487 153 484 153C475 153 473 149 471 142C438 35 370 11 338 11C299 11 283 43 283 77C283 99 289 121 300 165L334 302C340 328 363 420 433 420C438 420 462 420 483 407C455 402 435 377 435 353C435 337 446 318 473 318C495 318 527 336 527 376Z" stroke="rgb(0,0,0)" stroke-opacity="1" stroke-width="8" fill="rgb(0,0,0)" fill-opacity="1"></path></g></g><g><g><g><g><g transform="matrix(1,0,0,1,178.234375,51.0015625)"><path transform="matrix(0.0119,0,0,-0.0119,0,0)" d="M449 174L424 174C419 144 412 100 402 85C395 77 329 77 307 77L127 77L233 180C389 318 449 372 449 472C449 586 359 666 237 666C124 666 50 574 50 485C50 429 100 429 103 429C120 429 155 441 155 482C155 508 137 534 102 534C94 534 92 534 89 533C112 598 166 635 224 635C315 635 358 554 358 472C358 392 308 313 253 251L61 37C50 26 50 24 50 0L421 0Z" stroke="rgb(0,0,0)" stroke-opacity="1" stroke-width="8" fill="rgb(0,0,0)" fill-opacity="1"></path></g></g></g></g></g></g></g><g><g><g><g transform="matrix(1,0,0,1,30,223.09375)"><path transform="matrix(0.017,0,0,-0.017,0,0)" d="M516 0L516 31C462 31 444 33 421 62L287 235C317 273 355 322 379 348C410 384 451 399 498 400L498 431C472 429 442 428 416 428C386 428 333 430 320 431L320 400C341 398 349 385 349 369C349 353 339 340 334 334L272 256L194 357C185 367 185 369 185 375C185 390 200 399 220 400L220 431L112 428C91 428 44 429 17 431L17 400C87 400 88 399 135 339L234 210C187 150 187 148 140 91C92 33 33 31 12 31L12 0C38 2 69 3 95 3L190 0L190 31C168 34 161 47 161 62C161 84 190 117 251 189L327 89C335 78 348 62 348 56C348 47 339 32 312 31L312 0L420 3C447 3 486 2 516 0Z" stroke="rgb(0,0,0)" stroke-opacity="1" stroke-width="24" fill="rgb(0,0,0)" fill-opacity="1"></path></g></g><g><g><g><g><g transform="matrix(1,0,0,1,39.953125,216.9)"><path transform="matrix(0.0119,0,0,-0.0119,0,0)" d="M332 -238C332 -235 330 -232 328 -230C224 -152 155 48 155 208L155 292C155 452 224 652 328 730C330 732 332 735 332 738C332 743 327 748 322 748C320 748 318 747 316 746C206 663 101 463 101 292L101 208C101 37 206 -163 316 -246C318 -247 320 -248 322 -248C327 -248 332 -243 332 -238Z" stroke="rgb(0,0,0)" stroke-opacity="1" stroke-width="8" fill="rgb(0,0,0)" fill-opacity="1"></path></g></g><g><g transform="matrix(1,0,0,1,44.5859375,216.4)"><path transform="matrix(0.0119,0,0,-0.0119,0,0)" d="M471 165L471 196L371 196L371 651C371 671 371 677 355 677C346 677 343 677 335 665L28 196L28 165L294 165L294 78C294 42 292 31 218 31L197 31L197 0C238 3 290 3 332 3C374 3 427 3 468 0L468 31L447 31C373 31 371 42 371 78L371 165ZM300 196L56 196L300 569Z" stroke="rgb(0,0,0)" stroke-opacity="1" stroke-width="8" fill="rgb(0,0,0)" fill-opacity="1"></path></g></g><g><g transform="matrix(1,0,0,1,50.5390625,216.9)"><path transform="matrix(0.0119,0,0,-0.0119,0,0)" d="M288 208L288 292C288 463 183 663 73 746C71 747 69 748 67 748C62 748 57 743 57 738C57 735 59 732 61 730C165 652 234 452 234 292L234 208C234 48 165 -152 61 -230C59 -232 57 -235 57 -238C57 -243 62 -248 67 -248C69 -248 71 -247 73 -246C183 -163 288 37 288 208Z" stroke="rgb(0,0,0)" stroke-opacity="1" stroke-width="8" fill="rgb(0,0,0)" fill-opacity="1"></path></g></g></g></g></g></g></g><g><g><g><g transform="matrix(1,0,0,1,105,221.234375)"><path transform="matrix(0.017,0,0,-0.017,0,0)" d="M527 376C527 428 468 442 434 442C376 442 341 389 329 366C304 432 250 442 221 442C117 442 60 313 60 288C60 278 72 278 72 278C80 278 83 280 85 289C119 395 185 420 219 420C238 420 273 411 273 353C273 322 256 255 219 115C203 53 168 11 124 11C118 11 95 11 74 24C99 29 121 50 121 78C121 105 99 113 84 113C54 113 29 87 29 55C29 9 79 -11 123 -11C189 -11 225 59 228 65C240 28 276 -11 336 -11C439 -11 496 118 496 143C496 153 487 153 484 153C475 153 473 149 471 142C438 35 370 11 338 11C299 11 283 43 283 77C283 99 289 121 300 165L334 302C340 328 363 420 433 420C438 420 462 420 483 407C455 402 435 377 435 353C435 337 446 318 473 318C495 318 527 336 527 376Z" stroke="rgb(0,0,0)" stroke-opacity="1" stroke-width="8" fill="rgb(0,0,0)" fill-opacity="1"></path></g></g><g><g><g><g><g transform="matrix(1,0,0,1,115.703125,214.9)"><path transform="matrix(0.0119,0,0,-0.0119,0,0)" d="M332 -238C332 -235 330 -232 328 -230C224 -152 155 48 155 208L155 292C155 452 224 652 328 730C330 732 332 735 332 738C332 743 327 748 322 748C320 748 318 747 316 746C206 663 101 463 101 292L101 208C101 37 206 -163 316 -246C318 -247 320 -248 322 -248C327 -248 332 -243 332 -238Z" stroke="rgb(0,0,0)" stroke-opacity="1" stroke-width="8" fill="rgb(0,0,0)" fill-opacity="1"></path></g></g><g><g transform="matrix(1,0,0,1,120.3359375,214.4)"><path transform="matrix(0.0119,0,0,-0.0119,0,0)" d="M471 165L471 196L371 196L371 651C371 671 371 677 355 677C346 677 343 677 335 665L28 196L28 165L294 165L294 78C294 42 292 31 218 31L197 31L197 0C238 3 290 3 332 3C374 3 427 3 468 0L468 31L447 31C373 31 371 42 371 78L371 165ZM300 196L56 196L300 569Z" stroke="rgb(0,0,0)" stroke-opacity="1" stroke-width="8" fill="rgb(0,0,0)" fill-opacity="1"></path></g></g><g><g transform="matrix(1,0,0,1,126.2890625,214.9)"><path transform="matrix(0.0119,0,0,-0.0119,0,0)" d="M288 208L288 292C288 463 183 663 73 746C71 747 69 748 67 748C62 748 57 743 57 738C57 735 59 732 61 730C165 652 234 452 234 292L234 208C234 48 165 -152 61 -230C59 -232 57 -235 57 -238C57 -243 62 -248 67 -248C69 -248 71 -247 73 -246C183 -163 288 37 288 208Z" stroke="rgb(0,0,0)" stroke-opacity="1" stroke-width="8" fill="rgb(0,0,0)" fill-opacity="1"></path></g></g></g></g><g><g><g><g transform="matrix(1,0,0,1,115.234375,226.3921875)"><path transform="matrix(0.0119,0,0,-0.0119,0,0)" d="M419 0L419 31L387 31C297 31 294 42 294 79L294 640C294 664 294 666 271 666C209 602 121 602 89 602L89 571C109 571 168 571 220 597L220 79C220 43 217 31 127 31L95 31L95 0C130 3 217 3 257 3C297 3 384 3 419 0Z" stroke="rgb(0,0,0)" stroke-opacity="1" stroke-width="8" fill="rgb(0,0,0)" fill-opacity="1"></path></g></g></g></g></g></g></g><g><g><g><g transform="matrix(1,0,0,1,159,222.234375)"><path transform="matrix(0.017,0,0,-0.017,0,0)" d="M527 376C527 428 468 442 434 442C376 442 341 389 329 366C304 432 250 442 221 442C117 442 60 313 60 288C60 278 72 278 72 278C80 278 83 280 85 289C119 395 185 420 219 420C238 420 273 411 273 353C273 322 256 255 219 115C203 53 168 11 124 11C118 11 95 11 74 24C99 29 121 50 121 78C121 105 99 113 84 113C54 113 29 87 29 55C29 9 79 -11 123 -11C189 -11 225 59 228 65C240 28 276 -11 336 -11C439 -11 496 118 496 143C496 153 487 153 484 153C475 153 473 149 471 142C438 35 370 11 338 11C299 11 283 43 283 77C283 99 289 121 300 165L334 302C340 328 363 420 433 420C438 420 462 420 483 407C455 402 435 377 435 353C435 337 446 318 473 318C495 318 527 336 527 376Z" stroke="rgb(0,0,0)" stroke-opacity="1" stroke-width="8" fill="rgb(0,0,0)" fill-opacity="1"></path></g></g><g><g><g><g><g transform="matrix(1,0,0,1,169.703125,215.9)"><path transform="matrix(0.0119,0,0,-0.0119,0,0)" d="M332 -238C332 -235 330 -232 328 -230C224 -152 155 48 155 208L155 292C155 452 224 652 328 730C330 732 332 735 332 738C332 743 327 748 322 748C320 748 318 747 316 746C206 663 101 463 101 292L101 208C101 37 206 -163 316 -246C318 -247 320 -248 322 -248C327 -248 332 -243 332 -238Z" stroke="rgb(0,0,0)" stroke-opacity="1" stroke-width="8" fill="rgb(0,0,0)" fill-opacity="1"></path></g></g><g><g transform="matrix(1,0,0,1,174.3359375,215.4)"><path transform="matrix(0.0119,0,0,-0.0119,0,0)" d="M471 165L471 196L371 196L371 651C371 671 371 677 355 677C346 677 343 677 335 665L28 196L28 165L294 165L294 78C294 42 292 31 218 31L197 31L197 0C238 3 290 3 332 3C374 3 427 3 468 0L468 31L447 31C373 31 371 42 371 78L371 165ZM300 196L56 196L300 569Z" stroke="rgb(0,0,0)" stroke-opacity="1" stroke-width="8" fill="rgb(0,0,0)" fill-opacity="1"></path></g></g><g><g transform="matrix(1,0,0,1,180.2890625,215.9)"><path transform="matrix(0.0119,0,0,-0.0119,0,0)" d="M288 208L288 292C288 463 183 663 73 746C71 747 69 748 67 748C62 748 57 743 57 738C57 735 59 732 61 730C165 652 234 452 234 292L234 208C234 48 165 -152 61 -230C59 -232 57 -235 57 -238C57 -243 62 -248 67 -248C69 -248 71 -247 73 -246C183 -163 288 37 288 208Z" stroke="rgb(0,0,0)" stroke-opacity="1" stroke-width="8" fill="rgb(0,0,0)" fill-opacity="1"></path></g></g></g></g><g><g><g><g transform="matrix(1,0,0,1,169.234375,227.3921875)"><path transform="matrix(0.0119,0,0,-0.0119,0,0)" d="M449 174L424 174C419 144 412 100 402 85C395 77 329 77 307 77L127 77L233 180C389 318 449 372 449 472C449 586 359 666 237 666C124 666 50 574 50 485C50 429 100 429 103 429C120 429 155 441 155 482C155 508 137 534 102 534C94 534 92 534 89 533C112 598 166 635 224 635C315 635 358 554 358 472C358 392 308 313 253 251L61 37C50 26 50 24 50 0L421 0Z" stroke="rgb(0,0,0)" stroke-opacity="1" stroke-width="8" fill="rgb(0,0,0)" fill-opacity="1"></path></g></g></g></g></g></g></g><g><g><g><g transform="matrix(1,0,0,1,101,486.5)"><path transform="matrix(0.017,0,0,-0.017,0,0)" d="M851 672C851 672 851 683 838 683C808 683 775 680 744 680C707 680 669 683 633 683C627 683 614 683 614 663C614 656 619 653 626 652C635 651 666 649 666 621C666 607 655 594 647 585L485 411L401 610L396 623C396 629 413 648 455 652C465 653 475 654 475 671C475 683 463 683 460 683C419 683 376 680 334 680C309 680 247 683 222 683C216 683 204 683 204 663C204 652 214 652 227 652C287 652 293 642 302 620L420 341L209 114C203 109 202 108 196 103C147 50 100 34 49 31C36 30 27 30 27 11C27 11 27 0 40 0C70 0 103 3 134 3C171 3 210 0 246 0C252 0 264 0 264 20C264 30 252 31 252 31C243 32 212 34 212 62C212 78 227 94 239 107L341 215L431 313L532 74L537 60C537 52 518 35 479 31C468 30 459 29 459 12C459 0 470 0 474 0L600 3C625 3 686 0 711 0C718 0 730 0 730 19C730 31 720 31 712 31C645 32 643 35 626 75L497 384C565 454 670 573 702 601C731 625 769 649 829 652C842 653 851 653 851 672Z" stroke="rgb(0,0,0)" stroke-opacity="1" stroke-width="8" fill="rgb(0,0,0)" fill-opacity="1"></path></g></g><g><g><g transform="matrix(1,0,0,1,124.125,486.5)"><path transform="matrix(0.017,0,0,-0.017,0,0)" d="M943 250C943 256 939 261 934 263C877 282 833 322 797 367C769 403 748 447 739 494C737 503 729 510 719 510C708 510 699 501 699 490C699 489 700 487 700 486C710 433 733 384 766 342C788 314 814 290 844 270L78 270C67 270 58 261 58 250C58 239 67 230 78 230L844 230C814 210 788 186 766 158C733 116 710 67 700 14C700 13 699 11 699 10C699 -1 708 -10 719 -10C729 -10 737 -3 739 6C748 53 769 97 797 133C833 178 877 218 934 237C939 239 943 244 943 250Z" stroke="rgb(0,0,0)" stroke-opacity="1" stroke-width="8" fill="rgb(0,0,0)" fill-opacity="1"></path></g></g></g><g><g transform="matrix(1,0,0,1,144.5234375,486.5)"><path transform="matrix(0.017,0,0,-0.017,0,0)" d="M457 329C457 598 342 666 253 666C198 666 149 648 106 603C65 558 42 516 42 441C42 316 130 218 242 218C303 218 344 260 367 318L367 286C367 52 263 6 205 6C188 6 134 8 107 42C151 42 159 71 159 88C159 119 135 134 113 134C97 134 67 125 67 86C67 19 121 -22 206 -22C335 -22 457 114 457 329ZM365 421C365 338 331 241 243 241C227 241 181 241 150 304C132 341 132 391 132 440C132 494 132 541 153 578C180 628 218 641 253 641C299 641 332 607 349 562C361 530 365 467 365 421Z" stroke="rgb(0,0,0)" stroke-opacity="1" stroke-width="8" fill="rgb(0,0,0)" fill-opacity="1"></path></g></g><g><g transform="matrix(1,0,0,1,156.421875,486.5)"><path transform="matrix(0.017,0,0,-0.017,0,0)" d="M624 15C632 22 632 35 624 43L417 250L624 457C632 465 632 478 624 485C617 493 604 493 596 485L389 278L182 485C174 493 161 493 154 485C146 478 146 465 154 457L361 250L154 43C146 35 146 22 154 15C161 7 174 7 182 15L389 222L596 15C604 7 617 7 624 15Z" stroke="rgb(0,0,0)" stroke-opacity="1" stroke-width="8" fill="rgb(0,0,0)" fill-opacity="1"></path></g></g><g><g transform="matrix(1,0,0,1,173.046875,486.5)"><path transform="matrix(0.017,0,0,-0.017,0,0)" d="M449 174L424 174C419 144 412 100 402 85C395 77 329 77 307 77L127 77L233 180C389 318 449 372 449 472C449 586 359 666 237 666C124 666 50 574 50 485C50 429 100 429 103 429C120 429 155 441 155 482C155 508 137 534 102 534C94 534 92 534 89 533C112 598 166 635 224 635C315 635 358 554 358 472C358 392 308 313 253 251L61 37C50 26 50 24 50 0L421 0Z" stroke="rgb(0,0,0)" stroke-opacity="1" stroke-width="8" fill="rgb(0,0,0)" fill-opacity="1"></path></g></g></g></g><g><g><g><g transform="matrix(1,0,0,1,218,92.5)"><path transform="matrix(0.017,0,0,-0.017,0,0)" d="M490 404C490 422 476 431 461 431C451 431 435 425 426 410C424 405 416 374 412 356L392 276L347 96C343 81 300 11 234 11C183 11 172 55 172 92C172 138 189 200 223 288C239 329 243 340 243 360C243 405 211 442 161 442C66 442 29 297 29 288C29 278 41 278 41 278C51 278 52 280 57 296C84 390 124 420 158 420C166 420 183 420 183 388C183 363 173 337 166 318C126 212 108 155 108 108C108 19 171 -11 230 -11C269 -11 303 6 331 34C318 -18 306 -67 266 -120C240 -154 202 -183 156 -183C142 -183 97 -180 80 -141C96 -141 109 -141 123 -129C133 -120 143 -107 143 -88C143 -57 116 -53 106 -53C83 -53 50 -69 50 -118C50 -168 94 -205 156 -205C259 -205 362 -114 390 -1L486 381C490 395 490 397 490 404Z" stroke="rgb(0,0,0)" stroke-opacity="1" stroke-width="8" fill="rgb(0,0,0)" fill-opacity="1"></path></g></g><g><g transform="matrix(1,0,0,1,231.4296875,92.5)"><path transform="matrix(0.017,0,0,-0.017,0,0)" d="M722 347C722 358 713 367 702 367L76 367C65 367 56 358 56 347C56 336 65 327 76 327L702 327C713 327 722 336 722 347ZM722 153C722 164 713 173 702 173L76 173C65 173 56 164 56 153C56 142 65 133 76 133L702 133C713 133 722 142 722 153Z" stroke="rgb(0,0,0)" stroke-opacity="1" stroke-width="8" fill="rgb(0,0,0)" fill-opacity="1"></path></g></g><g><g transform="matrix(1,0,0,1,249.75,92.5)"><path transform="matrix(0.017,0,0,-0.017,0,0)" d="M419 0L419 31L387 31C297 31 294 42 294 79L294 640C294 664 294 666 271 666C209 602 121 602 89 602L89 571C109 571 168 571 220 597L220 79C220 43 217 31 127 31L95 31L95 0C130 3 217 3 257 3C297 3 384 3 419 0Z" stroke="rgb(0,0,0)" stroke-opacity="1" stroke-width="8" fill="rgb(0,0,0)" fill-opacity="1"></path></g></g></g></g><g><g><g><g transform="matrix(1,0,0,1,211,298.5)"><path transform="matrix(0.017,0,0,-0.017,0,0)" d="M490 404C490 422 476 431 461 431C451 431 435 425 426 410C424 405 416 374 412 356L392 276L347 96C343 81 300 11 234 11C183 11 172 55 172 92C172 138 189 200 223 288C239 329 243 340 243 360C243 405 211 442 161 442C66 442 29 297 29 288C29 278 41 278 41 278C51 278 52 280 57 296C84 390 124 420 158 420C166 420 183 420 183 388C183 363 173 337 166 318C126 212 108 155 108 108C108 19 171 -11 230 -11C269 -11 303 6 331 34C318 -18 306 -67 266 -120C240 -154 202 -183 156 -183C142 -183 97 -180 80 -141C96 -141 109 -141 123 -129C133 -120 143 -107 143 -88C143 -57 116 -53 106 -53C83 -53 50 -69 50 -118C50 -168 94 -205 156 -205C259 -205 362 -114 390 -1L486 381C490 395 490 397 490 404Z" stroke="rgb(0,0,0)" stroke-opacity="1" stroke-width="8" fill="rgb(0,0,0)" fill-opacity="1"></path></g></g><g><g transform="matrix(1,0,0,1,224.4296875,298.5)"><path transform="matrix(0.017,0,0,-0.017,0,0)" d="M722 347C722 358 713 367 702 367L76 367C65 367 56 358 56 347C56 336 65 327 76 327L702 327C713 327 722 336 722 347ZM722 153C722 164 713 173 702 173L76 173C65 173 56 164 56 153C56 142 65 133 76 133L702 133C713 133 722 142 722 153Z" stroke="rgb(0,0,0)" stroke-opacity="1" stroke-width="8" fill="rgb(0,0,0)" fill-opacity="1"></path></g></g><g><g transform="matrix(1,0,0,1,242.75,298.5)"><path transform="matrix(0.017,0,0,-0.017,0,0)" d="M449 174L424 174C419 144 412 100 402 85C395 77 329 77 307 77L127 77L233 180C389 318 449 372 449 472C449 586 359 666 237 666C124 666 50 574 50 485C50 429 100 429 103 429C120 429 155 441 155 482C155 508 137 534 102 534C94 534 92 534 89 533C112 598 166 635 224 635C315 635 358 554 358 472C358 392 308 313 253 251L61 37C50 26 50 24 50 0L421 0Z" stroke="rgb(0,0,0)" stroke-opacity="1" stroke-width="8" fill="rgb(0,0,0)" fill-opacity="1"></path></g></g></g></g><g><g><g><g transform="matrix(1,0,0,1,210,426.5)"><path transform="matrix(0.017,0,0,-0.017,0,0)" d="M490 404C490 422 476 431 461 431C451 431 435 425 426 410C424 405 416 374 412 356L392 276L347 96C343 81 300 11 234 11C183 11 172 55 172 92C172 138 189 200 223 288C239 329 243 340 243 360C243 405 211 442 161 442C66 442 29 297 29 288C29 278 41 278 41 278C51 278 52 280 57 296C84 390 124 420 158 420C166 420 183 420 183 388C183 363 173 337 166 318C126 212 108 155 108 108C108 19 171 -11 230 -11C269 -11 303 6 331 34C318 -18 306 -67 266 -120C240 -154 202 -183 156 -183C142 -183 97 -180 80 -141C96 -141 109 -141 123 -129C133 -120 143 -107 143 -88C143 -57 116 -53 106 -53C83 -53 50 -69 50 -118C50 -168 94 -205 156 -205C259 -205 362 -114 390 -1L486 381C490 395 490 397 490 404Z" stroke="rgb(0,0,0)" stroke-opacity="1" stroke-width="8" fill="rgb(0,0,0)" fill-opacity="1"></path></g></g><g><g transform="matrix(1,0,0,1,223.4296875,426.5)"><path transform="matrix(0.017,0,0,-0.017,0,0)" d="M722 347C722 358 713 367 702 367L76 367C65 367 56 358 56 347C56 336 65 327 76 327L702 327C713 327 722 336 722 347ZM722 153C722 164 713 173 702 173L76 173C65 173 56 164 56 153C56 142 65 133 76 133L702 133C713 133 722 142 722 153Z" stroke="rgb(0,0,0)" stroke-opacity="1" stroke-width="8" fill="rgb(0,0,0)" fill-opacity="1"></path></g></g><g><g transform="matrix(1,0,0,1,241.75,426.5)"><path transform="matrix(0.017,0,0,-0.017,0,0)" d="M457 171C457 253 394 331 290 352C372 379 430 449 430 528C430 610 342 666 246 666C145 666 69 606 69 530C69 497 91 478 120 478C151 478 171 500 171 529C171 579 124 579 109 579C140 628 206 641 242 641C283 641 338 619 338 529C338 517 336 459 310 415C280 367 246 364 221 363C213 362 189 360 182 360C174 359 167 358 167 348C167 337 174 337 191 337L235 337C317 337 354 269 354 171C354 35 285 6 241 6C198 6 123 23 88 82C123 77 154 99 154 137C154 173 127 193 98 193C74 193 42 179 42 135C42 44 135 -22 244 -22C366 -22 457 69 457 171Z" stroke="rgb(0,0,0)" stroke-opacity="1" stroke-width="8" fill="rgb(0,0,0)" fill-opacity="1"></path></g></g></g></g><g><g><g><text x="352" y="185" style="white-space:pre;stroke:none;fill:rgb(0,0,0);fill-opacity:1;font-size:15px;font-family:&quot;Courier New&quot;, Courier, monospace;font-weight:400;font-style:normal;dominant-baseline:text-before-edge;text-decoration:none solid rgb(0, 0, 0);">axis = 0</text></g></g></g><g><g><g><text x="476" y="78" style="white-space:pre;stroke:none;fill:rgb(0,0,0);fill-opacity:1;font-size:15px;font-family:&quot;Courier New&quot;, Courier, monospace;font-weight:400;font-style:normal;dominant-baseline:text-before-edge;text-decoration:none solid rgb(0, 0, 0);">axis = 1</text></g></g></g><g><g><g><text x="471" y="284" style="white-space:pre;stroke:none;fill:rgb(0,0,0);fill-opacity:1;font-size:15px;font-family:&quot;Courier New&quot;, Courier, monospace;font-weight:400;font-style:normal;dominant-baseline:text-before-edge;text-decoration:none solid rgb(0, 0, 0);">X[y == 1]</text></g></g></g><g><g><g><text x="361" y="442" style="white-space:pre;stroke:none;fill:rgb(0,0,0);fill-opacity:1;font-size:15px;font-family:&quot;Courier New&quot;, Courier, monospace;font-weight:400;font-style:normal;dominant-baseline:text-before-edge;text-decoration:none solid rgb(0, 0, 0);">X[y == 1].mean(axis = 0)</text></g></g></g><g><g><g><text x="362" y="475" style="white-space:pre;stroke:none;fill:rgb(0,0,0);fill-opacity:1;font-size:15px;font-family:&quot;Courier New&quot;, Courier, monospace;font-weight:400;font-style:normal;dominant-baseline:text-before-edge;text-decoration:none solid rgb(0, 0, 0);">X[y == 1].var(axis = 0)</text></g></g></g></svg>
</svg>
