<svg version="1.1" viewBox="0.0 0.0 960.0 540.0" fill="none" stroke="none" stroke-linecap="square" stroke-miterlimit="10" xmlns:xlink="http://www.w3.org/1999/xlink" xmlns="http://www.w3.org/2000/svg"><clipPath id="g115e58f8c3d_0_40.0"><path d="m0 0l960.0 0l0 540.0l-960.0 0l0 -540.0z" clip-rule="nonzero"/></clipPath><g clip-path="url(#g115e58f8c3d_0_40.0)"><path fill="#ffffff" d="m0 0l960.0 0l0 540.0l-960.0 0z" fill-rule="evenodd"/><path fill="#ffffff" d="m253.16798 104.63517l0 0c0 -28.69271 23.260025 -51.952755 51.952744 -51.952755l0 0c13.778748 0 26.993134 5.4735794 36.736145 15.21661c9.743042 9.743034 15.216614 22.95742 15.216614 36.736145l0 0c0 28.69271 -23.26004 51.95275 -51.95276 51.95275l0 0c-28.692719 0 -51.952744 -23.26004 -51.952744 -51.95275z" fill-rule="evenodd"/><path stroke="#000000" stroke-width="1.0" stroke-linejoin="round" stroke-linecap="butt" d="m253.16798 104.63517l0 0c0 -28.69271 23.260025 -51.952755 51.952744 -51.952755l0 0c13.778748 0 26.993134 5.4735794 36.736145 15.21661c9.743042 9.743034 15.216614 22.95742 15.216614 36.736145l0 0c0 28.69271 -23.26004 51.95275 -51.95276 51.95275l0 0c-28.692719 0 -51.952744 -23.26004 -51.952744 -51.95275z" fill-rule="evenodd"/><path fill="#ffffff" d="m253.16798 264.04987l0 0c0 -28.692719 23.260025 -51.95276 51.952744 -51.95276l0 0c13.778748 0 26.993134 5.473587 36.736145 15.216614c9.743042 9.743027 15.216614 22.957428 15.216614 36.736145l0 0c0 28.692719 -23.26004 51.95276 -51.95276 51.95276l0 0c-28.692719 0 -51.952744 -23.26004 -51.952744 -51.95276z" fill-rule="evenodd"/><path stroke="#000000" stroke-width="1.0" stroke-linejoin="round" stroke-linecap="butt" d="m253.16798 264.04987l0 0c0 -28.692719 23.260025 -51.95276 51.952744 -51.95276l0 0c13.778748 0 26.993134 5.473587 36.736145 15.216614c9.743042 9.743027 15.216614 22.957428 15.216614 36.736145l0 0c0 28.692719 -23.26004 51.95276 -51.95276 51.95276l0 0c-28.692719 0 -51.952744 -23.26004 -51.952744 -51.95276z" fill-rule="evenodd"/><path fill="#ffffff" d="m253.16798 423.46457l0 0c0 -28.692719 23.260025 -51.95276 51.952744 -51.95276l0 0c13.778748 0 26.993134 5.473572 36.736145 15.216614c9.743042 9.743042 15.216614 22.957428 15.216614 36.736145l0 0c0 28.692719 -23.26004 51.95276 -51.95276 51.95276l0 0c-28.692719 0 -51.952744 -23.26004 -51.952744 -51.95276z" fill-rule="evenodd"/><path stroke="#000000" stroke-width="1.0" stroke-linejoin="round" stroke-linecap="butt" d="m253.16798 423.46457l0 0c0 -28.692719 23.260025 -51.95276 51.952744 -51.95276l0 0c13.778748 0 26.993134 5.473572 36.736145 15.216614c9.743042 9.743042 15.216614 22.957428 15.216614 36.736145l0 0c0 28.692719 -23.26004 51.95276 -51.95276 51.95276l0 0c-28.692719 0 -51.952744 -23.26004 -51.952744 -51.95276z" fill-rule="evenodd"/><path fill="#ffffff" d="m575.021 178.48819l0 0c0 -28.692719 23.26007 -51.95276 51.95276 -51.95276l0 0c13.778748 0 26.993103 5.473587 36.736145 15.216614c9.743042 9.743027 15.216614 22.957413 15.216614 36.736145l0 0c0 28.692719 -23.26007 51.95276 -51.95276 51.95276l0 0c-28.692688 0 -51.95276 -23.26004 -51.95276 -51.95276z" fill-rule="evenodd"/><path stroke="#000000" stroke-width="1.0" stroke-linejoin="round" stroke-linecap="butt" d="m575.021 178.48819l0 0c0 -28.692719 23.26007 -51.95276 51.95276 -51.95276l0 0c13.778748 0 26.993103 5.473587 36.736145 15.216614c9.743042 9.743027 15.216614 22.957413 15.216614 36.736145l0 0c0 28.692719 -23.26007 51.95276 -51.95276 51.95276l0 0c-28.692688 0 -51.95276 -23.26004 -51.95276 -51.95276z" fill-rule="evenodd"/><path fill="#ffffff" d="m575.021 337.9029l0 0c0 -28.692719 23.26007 -51.95276 51.95276 -51.95276l0 0c13.778748 0 26.993103 5.473572 36.736145 15.216614c9.743042 9.743011 15.216614 22.957397 15.216614 36.736145l0 0c0 28.692719 -23.26007 51.95276 -51.95276 51.95276l0 0c-28.692688 0 -51.95276 -23.26004 -51.95276 -51.95276z" fill-rule="evenodd"/><path stroke="#000000" stroke-width="1.0" stroke-linejoin="round" stroke-linecap="butt" d="m575.021 337.9029l0 0c0 -28.692719 23.26007 -51.95276 51.95276 -51.95276l0 0c13.778748 0 26.993103 5.473572 36.736145 15.216614c9.743042 9.743011 15.216614 22.957397 15.216614 36.736145l0 0c0 28.692719 -23.26007 51.95276 -51.95276 51.95276l0 0c-28.692688 0 -51.95276 -23.26004 -51.95276 -51.95276z" fill-rule="evenodd"/><path fill="#000000" fill-opacity="0.0" d="m357.0735 104.63517l217.95276 73.85827" fill-rule="evenodd"/><path stroke="#cccccc" stroke-width="2.0" stroke-linejoin="round" stroke-linecap="butt" d="m357.0735 104.63517l217.95276 73.85827" fill-rule="evenodd"/><path fill="#000000" fill-opacity="0.0" d="m357.0735 104.63517l217.95276 233.25986" fill-rule="evenodd"/><path stroke="#cccccc" stroke-width="2.0" stroke-linejoin="round" stroke-linecap="butt" d="m357.0735 104.63517l217.95276 233.25986" fill-rule="evenodd"/><path fill="#000000" fill-opacity="0.0" d="m357.0735 264.04987l217.95276 -85.5748" fill-rule="evenodd"/><path stroke="#000000" stroke-width="2.0" stroke-linejoin="round" stroke-linecap="butt" d="m357.0735 264.04987l217.95276 -85.5748" fill-rule="evenodd"/><path fill="#000000" fill-opacity="0.0" d="m357.0735 264.04987l217.95276 73.85828" fill-rule="evenodd"/><path stroke="#cccccc" stroke-width="2.0" stroke-linejoin="round" stroke-linecap="butt" d="m357.0735 264.04987l217.95276 73.85828" fill-rule="evenodd"/><path fill="#000000" fill-opacity="0.0" d="m357.0735 423.46457l217.95276 -85.5748" fill-rule="evenodd"/><path stroke="#cccccc" stroke-width="2.0" stroke-linejoin="round" stroke-linecap="butt" d="m357.0735 423.46457l217.95276 -85.5748" fill-rule="evenodd"/><path fill="#000000" fill-opacity="0.0" d="m357.0735 423.46457l217.95276 -244.97638" fill-rule="evenodd"/><path stroke="#cccccc" stroke-width="2.0" stroke-linejoin="round" stroke-linecap="butt" d="m357.0735 423.46457l217.95276 -244.97638" fill-rule="evenodd"/><path fill="#000000" fill-opacity="0.0" d="m199.40683 240.91339l37.85826 0l0 58.173218l-37.85826 0z" fill-rule="evenodd"/><path fill="#000000" d="m218.65683 260.36777l0 3.390625l-1.9375 0l0 -3.390625l1.9375 0zm0.046875 6.734375l0 12.21875l5.15625 0q0.484375 0 0.6875 0.1875q0.203125 0.171875 0.203125 0.46875q0 0.28125 -0.203125 0.46875q-0.203125 0.1875 -0.6875 0.1875l-11.625 0q-0.46875 0 -0.671875 -0.1875q-0.203125 -0.1875 -0.203125 -0.46875q0 -0.296875 0.203125 -0.46875q0.203125 -0.1875 0.671875 -0.1875l5.15625 0l0 -10.890625l-3.828125 0q-0.46875 0 -0.6875 -0.1875q-0.203125 -0.1875 -0.203125 -0.46875q0 -0.296875 0.203125 -0.484375q0.203125 -0.1875 0.6875 -0.1875l5.140625 0z" fill-rule="nonzero"/><path fill="#000000" fill-opacity="0.0" d="m698.64044 149.40158l37.858215 0l0 58.173218l-37.858215 0z" fill-rule="evenodd"/><path fill="#000000" d="m719.1248 168.85596l0 3.390625l-1.9375 0l0 -3.390625l1.9375 0zm0.078125 8.0625l-7.796875 0q-0.46875 0 -0.671875 -0.1875q-0.203125 -0.1875 -0.203125 -0.484375q0 -0.28125 0.1875 -0.46875q0.203125 -0.1875 0.6875 -0.1875l9.109375 0l0 14.453125q0 1.671875 -0.6875 2.796875q-0.6875 1.125 -2.0625 1.828125q-0.953125 0.484375 -2.265625 0.484375l-4.171875 0q-0.46875 0 -0.671875 -0.1875q-0.203125 -0.171875 -0.203125 -0.46875q0 -0.296875 0.203125 -0.484375q0.203125 -0.1875 0.671875 -0.1875l4.140625 0.015625q1.671875 0 2.703125 -1.09375q1.03125 -1.09375 1.03125 -2.703125l0 -13.125z" fill-rule="nonzero"/></g></svg>