<svg xmlns="http://www.w3.org/2000/svg" xmlns:xlink="http://www.w3.org/1999/xlink" x="0" y="0" width="662" height="415" style="
        width:662px;
        height:415px;
        background: #FFF;
        fill: none;
">
        <svg xmlns="http://www.w3.org/2000/svg"/>
        
        <svg xmlns="http://www.w3.org/2000/svg" class="role-diagram-draw-area"><g class="shapes-region" style="stroke: black; fill: none;"><g class="composite-shape"><path class="real" d=" M147,305.75 C147,302.85 149.35,300.5 152.25,300.5 C155.15,300.5 157.5,302.85 157.5,305.75 C157.5,308.65 155.15,311 152.25,311 C149.35,311 147,308.65 147,305.75 Z" style="stroke-width: 1; stroke: rgb(0, 0, 0); fill: rgb(74, 144, 226); fill-opacity: 1;"/></g><g class="composite-shape"><path class="real" d=" M217,332.75 C217,329.85 219.35,327.5 222.25,327.5 C225.15,327.5 227.5,329.85 227.5,332.75 C227.5,335.65 225.15,338 222.25,338 C219.35,338 217,335.65 217,332.75 Z" style="stroke-width: 1; stroke: rgb(0, 0, 0); fill: rgb(74, 144, 226); fill-opacity: 1;"/></g><g class="composite-shape"><path class="real" d=" M217,332.75 C217,329.85 219.35,327.5 222.25,327.5 C225.15,327.5 227.5,329.85 227.5,332.75 C227.5,335.65 225.15,338 222.25,338 C219.35,338 217,335.65 217,332.75 Z" style="stroke-width: 1; stroke: rgb(0, 0, 0); fill: rgb(74, 144, 226); fill-opacity: 1;"/></g><g class="composite-shape"><path class="real" d=" M187,369.75 C187,366.85 189.35,364.5 192.25,364.5 C195.15,364.5 197.5,366.85 197.5,369.75 C197.5,372.65 195.15,375 192.25,375 C189.35,375 187,372.65 187,369.75 Z" style="stroke-width: 1; stroke: rgb(0, 0, 0); fill: rgb(74, 144, 226); fill-opacity: 1;"/></g><g class="composite-shape"><path class="real" d=" M182,323.75 C182,320.85 184.35,318.5 187.25,318.5 C190.15,318.5 192.5,320.85 192.5,323.75 C192.5,326.65 190.15,329 187.25,329 C184.35,329 182,326.65 182,323.75 Z" style="stroke-width: 1; stroke: rgb(0, 0, 0); fill: rgb(74, 144, 226); fill-opacity: 1;"/></g><g class="composite-shape"><path class="real" d=" M214,276.75 C214,273.85 216.35,271.5 219.25,271.5 C222.15,271.5 224.5,273.85 224.5,276.75 C224.5,279.65 222.15,282 219.25,282 C216.35,282 214,279.65 214,276.75 Z" style="stroke-width: 1; stroke: rgb(0, 0, 0); fill: rgb(74, 144, 226); fill-opacity: 1;"/></g><g class="composite-shape"><path class="real" d=" M144,348.75 C144,345.85 146.35,343.5 149.25,343.5 C152.15,343.5 154.5,345.85 154.5,348.75 C154.5,351.65 152.15,354 149.25,354 C146.35,354 144,351.65 144,348.75 Z" style="stroke-width: 1; stroke: rgb(0, 0, 0); fill: rgb(74, 144, 226); fill-opacity: 1;"/></g><g class="composite-shape"><path class="real" d=" M172,253.75 C172,250.85 174.35,248.5 177.25,248.5 C180.15,248.5 182.5,250.85 182.5,253.75 C182.5,256.65 180.15,259 177.25,259 C174.35,259 172,256.65 172,253.75 Z" style="stroke-width: 1; stroke: rgb(0, 0, 0); fill: rgb(74, 144, 226); fill-opacity: 1;"/></g><g class="composite-shape"><path class="real" d=" M405,146.75 C405,143.85 407.35,141.5 410.25,141.5 C413.15,141.5 415.5,143.85 415.5,146.75 C415.5,149.65 413.15,152 410.25,152 C407.35,152 405,149.65 405,146.75 Z" style="stroke-width: 1; stroke: rgb(0, 0, 0); fill: rgb(208, 2, 27); fill-opacity: 1;"/></g><g class="composite-shape"><path class="real" d=" M437,161.75 C437,158.85 439.35,156.5 442.25,156.5 C445.15,156.5 447.5,158.85 447.5,161.75 C447.5,164.65 445.15,167 442.25,167 C439.35,167 437,164.65 437,161.75 Z" style="stroke-width: 1; stroke: rgb(0, 0, 0); fill: rgb(208, 2, 27); fill-opacity: 1;"/></g><g class="composite-shape"><path class="real" d=" M457.25,170.75 C457.25,167.85 459.6,165.5 462.5,165.5 C465.4,165.5 467.75,167.85 467.75,170.75 C467.75,173.65 465.4,176 462.5,176 C459.6,176 457.25,173.65 457.25,170.75 Z" style="stroke-width: 1; stroke: rgb(0, 0, 0); fill: rgb(208, 2, 27); fill-opacity: 1;"/></g><g class="composite-shape"><path class="real" d=" M395,199.75 C395,196.85 397.35,194.5 400.25,194.5 C403.15,194.5 405.5,196.85 405.5,199.75 C405.5,202.65 403.15,205 400.25,205 C397.35,205 395,202.65 395,199.75 Z" style="stroke-width: 1; stroke: rgb(0, 0, 0); fill: rgb(208, 2, 27); fill-opacity: 1;"/></g><g class="composite-shape"><path class="real" d=" M433,209.75 C433,206.85 435.35,204.5 438.25,204.5 C441.15,204.5 443.5,206.85 443.5,209.75 C443.5,212.65 441.15,215 438.25,215 C435.35,215 433,212.65 433,209.75 Z" style="stroke-width: 1; stroke: rgb(0, 0, 0); fill: rgb(208, 2, 27); fill-opacity: 1;"/></g><g class="composite-shape"><path class="real" d=" M422,110.75 C422,107.85 424.35,105.5 427.25,105.5 C430.15,105.5 432.5,107.85 432.5,110.75 C432.5,113.65 430.15,116 427.25,116 C424.35,116 422,113.65 422,110.75 Z" style="stroke-width: 1; stroke: rgb(0, 0, 0); fill: rgb(208, 2, 27); fill-opacity: 1;"/></g><g class="composite-shape"><path class="real" d=" M367,163.75 C367,160.85 369.35,158.5 372.25,158.5 C375.15,158.5 377.5,160.85 377.5,163.75 C377.5,166.65 375.15,169 372.25,169 C369.35,169 367,166.65 367,163.75 Z" style="stroke-width: 1; stroke: rgb(0, 0, 0); fill: rgb(208, 2, 27); fill-opacity: 1;"/></g><g class="composite-shape"><path class="real" d=" M366,108.75 C366,105.85 368.35,103.5 371.25,103.5 C374.15,103.5 376.5,105.85 376.5,108.75 C376.5,111.65 374.15,114 371.25,114 C368.35,114 366,111.65 366,108.75 Z" style="stroke-width: 1; stroke: rgb(0, 0, 0); fill: rgb(208, 2, 27); fill-opacity: 1;"/></g><g class="composite-shape"><path class="real" d=" M126,268.75 C126,265.85 128.35,263.5 131.25,263.5 C134.15,263.5 136.5,265.85 136.5,268.75 C136.5,271.65 134.15,274 131.25,274 C128.35,274 126,271.65 126,268.75 Z" style="stroke-width: 1; stroke: rgb(0, 0, 0); fill: rgb(74, 144, 226); fill-opacity: 1;"/></g><g/></g><g/><g/><g/></svg>
        <svg xmlns="http://www.w3.org/2000/svg" xmlns:xlink="http://www.w3.org/1999/xlink" width="660" height="413" style="width:660px;height:413px;font-family:LatinModern-Math, LatinModern, Asana-Math, Asana;background:#FFF;"></svg>
</svg>
