<svg xmlns="http://www.w3.org/2000/svg" xmlns:xlink="http://www.w3.org/1999/xlink" x="0" y="0" width="662" height="490" style="
        width:662px;
        height:490px;
        background: #FFF;
        fill: none;
">
        <svg xmlns="http://www.w3.org/2000/svg"/>
        
        <svg xmlns="http://www.w3.org/2000/svg" class="role-diagram-draw-area"><g class="shapes-region" style="stroke: black; fill: none;"><g class="composite-shape axis2d" style="stroke-width: 1; stroke: rgb(0, 0, 0);"><path class="real" d=" M63,301 L552,301 M243,1 L243,447"/><path d=" M545,296 L552,301 L545,306"/><path d=" M238,8 L243,1 L248,8"/></g><g class="composite-shape"><path class="real" d=" M153.06,301 C153.06,251.33 193.33,211.06 243,211.06 C292.67,211.06 332.94,251.33 332.94,301 C332.94,350.67 292.67,390.94 243,390.94 C193.33,390.94 153.06,350.67 153.06,301 Z" style="stroke-width: 1; stroke: rgb(0, 0, 0); fill: none; fill-opacity: 1;"/></g><g class="composite-shape"><path class="real" d=" M101.03,301 C101.03,222.59 164.59,159.03 243,159.03 C321.41,159.03 384.97,222.59 384.97,301 C384.97,379.41 321.41,442.97 243,442.97 C164.59,442.97 101.03,379.41 101.03,301 Z" style="stroke-width: 1; stroke: rgb(0, 0, 0); fill: none; fill-opacity: 1;"/></g><g class="composite-shape"><path class="real" d=" M355,183 C355,129.43 398.43,86 452,86 C505.57,86 549,129.43 549,183 C549,236.57 505.57,280 452,280 C398.43,280 355,236.57 355,183 Z" style="stroke-width: 1; stroke: rgb(0, 0, 0); fill: rgb(11, 65, 242); fill-opacity: 0.17;"/></g><g class="composite-shape"><path class="real" d=" M74.01,301 C74.01,207.67 149.67,132.01 243,132.01 C336.33,132.01 411.99,207.67 411.99,301 C411.99,394.33 336.33,469.99 243,469.99 C149.67,469.99 74.01,394.33 74.01,301 Z" style="stroke-width: 1; stroke: rgb(0, 0, 0); fill: none; fill-opacity: 1;"/></g><g/></g><g/><g/><g/></svg>
        <svg xmlns="http://www.w3.org/2000/svg" xmlns:xlink="http://www.w3.org/1999/xlink" width="660" height="488" style="width:660px;height:488px;font-family:LatinModern-Math, LatinModern, Asana-Math, Asana;background:#FFF;"><g><g><g><g transform="matrix(1,0,0,1,558,287.5)"><path transform="matrix(0.017,0,0,-0.017,0,0)" d="M527 376C527 428 468 442 434 442C376 442 341 389 329 366C304 432 250 442 221 442C117 442 60 313 60 288C60 278 72 278 72 278C80 278 83 280 85 289C119 395 185 420 219 420C238 420 273 411 273 353C273 322 256 255 219 115C203 53 168 11 124 11C118 11 95 11 74 24C99 29 121 50 121 78C121 105 99 113 84 113C54 113 29 87 29 55C29 9 79 -11 123 -11C189 -11 225 59 228 65C240 28 276 -11 336 -11C439 -11 496 118 496 143C496 153 487 153 484 153C475 153 473 149 471 142C438 35 370 11 338 11C299 11 283 43 283 77C283 99 289 121 300 165L334 302C340 328 363 420 433 420C438 420 462 420 483 407C455 402 435 377 435 353C435 337 446 318 473 318C495 318 527 336 527 376Z" stroke="rgb(0,0,0)" stroke-opacity="1" stroke-width="8" fill="rgb(0,0,0)" fill-opacity="1"></path></g></g><g><g><g><g><g transform="matrix(1,0,0,1,568.234375,291.0015625)"><path transform="matrix(0.0119,0,0,-0.0119,0,0)" d="M419 0L419 31L387 31C297 31 294 42 294 79L294 640C294 664 294 666 271 666C209 602 121 602 89 602L89 571C109 571 168 571 220 597L220 79C220 43 217 31 127 31L95 31L95 0C130 3 217 3 257 3C297 3 384 3 419 0Z" stroke="rgb(0,0,0)" stroke-opacity="1" stroke-width="8" fill="rgb(0,0,0)" fill-opacity="1"></path></g></g></g></g></g></g></g><g><g><g><g transform="matrix(1,0,0,1,203,29.5)"><path transform="matrix(0.017,0,0,-0.017,0,0)" d="M527 376C527 428 468 442 434 442C376 442 341 389 329 366C304 432 250 442 221 442C117 442 60 313 60 288C60 278 72 278 72 278C80 278 83 280 85 289C119 395 185 420 219 420C238 420 273 411 273 353C273 322 256 255 219 115C203 53 168 11 124 11C118 11 95 11 74 24C99 29 121 50 121 78C121 105 99 113 84 113C54 113 29 87 29 55C29 9 79 -11 123 -11C189 -11 225 59 228 65C240 28 276 -11 336 -11C439 -11 496 118 496 143C496 153 487 153 484 153C475 153 473 149 471 142C438 35 370 11 338 11C299 11 283 43 283 77C283 99 289 121 300 165L334 302C340 328 363 420 433 420C438 420 462 420 483 407C455 402 435 377 435 353C435 337 446 318 473 318C495 318 527 336 527 376Z" stroke="rgb(0,0,0)" stroke-opacity="1" stroke-width="8" fill="rgb(0,0,0)" fill-opacity="1"></path></g></g><g><g><g><g><g transform="matrix(1,0,0,1,213.234375,33.0015625)"><path transform="matrix(0.0119,0,0,-0.0119,0,0)" d="M449 174L424 174C419 144 412 100 402 85C395 77 329 77 307 77L127 77L233 180C389 318 449 372 449 472C449 586 359 666 237 666C124 666 50 574 50 485C50 429 100 429 103 429C120 429 155 441 155 482C155 508 137 534 102 534C94 534 92 534 89 533C112 598 166 635 224 635C315 635 358 554 358 472C358 392 308 313 253 251L61 37C50 26 50 24 50 0L421 0Z" stroke="rgb(0,0,0)" stroke-opacity="1" stroke-width="8" fill="rgb(0,0,0)" fill-opacity="1"></path></g></g></g></g></g></g></g><g><g><g><g transform="matrix(1,0,0,1,172,264.5)"><path transform="matrix(0.017,0,0,-0.017,0,0)" d="M552 636C552 682 506 705 465 705C431 705 368 687 338 588C332 567 329 557 305 431L236 431C217 431 206 431 206 412C206 400 215 400 234 400L300 400L225 5C207 -92 190 -183 138 -183C134 -183 109 -183 90 -165C136 -162 145 -126 145 -111C145 -88 127 -76 108 -76C82 -76 53 -98 53 -136C53 -181 97 -205 138 -205C193 -205 233 -146 251 -108C283 -45 306 76 307 83L367 400L453 400C473 400 483 400 483 420C483 431 473 431 456 431L373 431C384 489 383 487 394 545C398 566 412 637 418 649C427 668 444 683 465 683C469 683 495 683 514 665C470 661 460 626 460 611C460 588 478 576 497 576C523 576 552 598 552 636Z" stroke="rgb(0,0,0)" stroke-opacity="1" stroke-width="8" fill="rgb(0,0,0)" fill-opacity="1"></path></g></g><g><g transform="matrix(1,0,0,1,180.3359375,265)"><path transform="matrix(0.017,0,0,-0.017,0,0)" d="M332 -238C332 -235 330 -232 328 -230C224 -152 155 48 155 208L155 292C155 452 224 652 328 730C330 732 332 735 332 738C332 743 327 748 322 748C320 748 318 747 316 746C206 663 101 463 101 292L101 208C101 37 206 -163 316 -246C318 -247 320 -248 322 -248C327 -248 332 -243 332 -238Z" stroke="rgb(0,0,0)" stroke-opacity="1" stroke-width="8" fill="rgb(0,0,0)" fill-opacity="1"></path></g></g><g><g transform="matrix(1,0,0,1,186.953125,264.5)"><path transform="matrix(0.017,0,0,-0.017,0,0)" d="M527 376C527 428 468 442 434 442C376 442 341 389 329 366C304 432 250 442 221 442C117 442 60 313 60 288C60 278 72 278 72 278C80 278 83 280 85 289C119 395 185 420 219 420C238 420 273 411 273 353C273 322 256 255 219 115C203 53 168 11 124 11C118 11 95 11 74 24C99 29 121 50 121 78C121 105 99 113 84 113C54 113 29 87 29 55C29 9 79 -11 123 -11C189 -11 225 59 228 65C240 28 276 -11 336 -11C439 -11 496 118 496 143C496 153 487 153 484 153C475 153 473 149 471 142C438 35 370 11 338 11C299 11 283 43 283 77C283 99 289 121 300 165L334 302C340 328 363 420 433 420C438 420 462 420 483 407C455 402 435 377 435 353C435 337 446 318 473 318C495 318 527 336 527 376Z" stroke="rgb(0,0,0)" stroke-opacity="1" stroke-width="8" fill="rgb(0,0,0)" fill-opacity="1"></path></g></g><g><g transform="matrix(1,0,0,1,196.6796875,265)"><path transform="matrix(0.017,0,0,-0.017,0,0)" d="M288 208L288 292C288 463 183 663 73 746C71 747 69 748 67 748C62 748 57 743 57 738C57 735 59 732 61 730C165 652 234 452 234 292L234 208C234 48 165 -152 61 -230C59 -232 57 -235 57 -238C57 -243 62 -248 67 -248C69 -248 71 -247 73 -246C183 -163 288 37 288 208Z" stroke="rgb(0,0,0)" stroke-opacity="1" stroke-width="8" fill="rgb(0,0,0)" fill-opacity="1"></path></g></g><g><g transform="matrix(1,0,0,1,208.390625,264.5)"><path transform="matrix(0.017,0,0,-0.017,0,0)" d="M722 347C722 358 713 367 702 367L76 367C65 367 56 358 56 347C56 336 65 327 76 327L702 327C713 327 722 336 722 347ZM722 153C722 164 713 173 702 173L76 173C65 173 56 164 56 153C56 142 65 133 76 133L702 133C713 133 722 142 722 153Z" stroke="rgb(0,0,0)" stroke-opacity="1" stroke-width="8" fill="rgb(0,0,0)" fill-opacity="1"></path></g></g><g><g transform="matrix(1,0,0,1,226.7109375,264.5)"><path transform="matrix(0.017,0,0,-0.017,0,0)" d="M419 0L419 31L387 31C297 31 294 42 294 79L294 640C294 664 294 666 271 666C209 602 121 602 89 602L89 571C109 571 168 571 220 597L220 79C220 43 217 31 127 31L95 31L95 0C130 3 217 3 257 3C297 3 384 3 419 0Z" stroke="rgb(0,0,0)" stroke-opacity="1" stroke-width="8" fill="rgb(0,0,0)" fill-opacity="1"></path></g></g></g></g><g><g><g><g transform="matrix(1,0,0,1,151,405.5)"><path transform="matrix(0.017,0,0,-0.017,0,0)" d="M552 636C552 682 506 705 465 705C431 705 368 687 338 588C332 567 329 557 305 431L236 431C217 431 206 431 206 412C206 400 215 400 234 400L300 400L225 5C207 -92 190 -183 138 -183C134 -183 109 -183 90 -165C136 -162 145 -126 145 -111C145 -88 127 -76 108 -76C82 -76 53 -98 53 -136C53 -181 97 -205 138 -205C193 -205 233 -146 251 -108C283 -45 306 76 307 83L367 400L453 400C473 400 483 400 483 420C483 431 473 431 456 431L373 431C384 489 383 487 394 545C398 566 412 637 418 649C427 668 444 683 465 683C469 683 495 683 514 665C470 661 460 626 460 611C460 588 478 576 497 576C523 576 552 598 552 636Z" stroke="rgb(0,0,0)" stroke-opacity="1" stroke-width="8" fill="rgb(0,0,0)" fill-opacity="1"></path></g></g><g><g transform="matrix(1,0,0,1,159.3359375,406)"><path transform="matrix(0.017,0,0,-0.017,0,0)" d="M332 -238C332 -235 330 -232 328 -230C224 -152 155 48 155 208L155 292C155 452 224 652 328 730C330 732 332 735 332 738C332 743 327 748 322 748C320 748 318 747 316 746C206 663 101 463 101 292L101 208C101 37 206 -163 316 -246C318 -247 320 -248 322 -248C327 -248 332 -243 332 -238Z" stroke="rgb(0,0,0)" stroke-opacity="1" stroke-width="8" fill="rgb(0,0,0)" fill-opacity="1"></path></g></g><g><g transform="matrix(1,0,0,1,165.953125,405.5)"><path transform="matrix(0.017,0,0,-0.017,0,0)" d="M527 376C527 428 468 442 434 442C376 442 341 389 329 366C304 432 250 442 221 442C117 442 60 313 60 288C60 278 72 278 72 278C80 278 83 280 85 289C119 395 185 420 219 420C238 420 273 411 273 353C273 322 256 255 219 115C203 53 168 11 124 11C118 11 95 11 74 24C99 29 121 50 121 78C121 105 99 113 84 113C54 113 29 87 29 55C29 9 79 -11 123 -11C189 -11 225 59 228 65C240 28 276 -11 336 -11C439 -11 496 118 496 143C496 153 487 153 484 153C475 153 473 149 471 142C438 35 370 11 338 11C299 11 283 43 283 77C283 99 289 121 300 165L334 302C340 328 363 420 433 420C438 420 462 420 483 407C455 402 435 377 435 353C435 337 446 318 473 318C495 318 527 336 527 376Z" stroke="rgb(0,0,0)" stroke-opacity="1" stroke-width="8" fill="rgb(0,0,0)" fill-opacity="1"></path></g></g><g><g transform="matrix(1,0,0,1,175.6796875,406)"><path transform="matrix(0.017,0,0,-0.017,0,0)" d="M288 208L288 292C288 463 183 663 73 746C71 747 69 748 67 748C62 748 57 743 57 738C57 735 59 732 61 730C165 652 234 452 234 292L234 208C234 48 165 -152 61 -230C59 -232 57 -235 57 -238C57 -243 62 -248 67 -248C69 -248 71 -247 73 -246C183 -163 288 37 288 208Z" stroke="rgb(0,0,0)" stroke-opacity="1" stroke-width="8" fill="rgb(0,0,0)" fill-opacity="1"></path></g></g><g><g transform="matrix(1,0,0,1,187.390625,405.5)"><path transform="matrix(0.017,0,0,-0.017,0,0)" d="M722 347C722 358 713 367 702 367L76 367C65 367 56 358 56 347C56 336 65 327 76 327L702 327C713 327 722 336 722 347ZM722 153C722 164 713 173 702 173L76 173C65 173 56 164 56 153C56 142 65 133 76 133L702 133C713 133 722 142 722 153Z" stroke="rgb(0,0,0)" stroke-opacity="1" stroke-width="8" fill="rgb(0,0,0)" fill-opacity="1"></path></g></g><g><g transform="matrix(1,0,0,1,205.7109375,405.5)"><path transform="matrix(0.017,0,0,-0.017,0,0)" d="M449 174L424 174C419 144 412 100 402 85C395 77 329 77 307 77L127 77L233 180C389 318 449 372 449 472C449 586 359 666 237 666C124 666 50 574 50 485C50 429 100 429 103 429C120 429 155 441 155 482C155 508 137 534 102 534C94 534 92 534 89 533C112 598 166 635 224 635C315 635 358 554 358 472C358 392 308 313 253 251L61 37C50 26 50 24 50 0L421 0Z" stroke="rgb(0,0,0)" stroke-opacity="1" stroke-width="8" fill="rgb(0,0,0)" fill-opacity="1"></path></g></g></g></g><g><g><g><g transform="matrix(1,0,0,1,406,380.5)"><path transform="matrix(0.017,0,0,-0.017,0,0)" d="M552 636C552 682 506 705 465 705C431 705 368 687 338 588C332 567 329 557 305 431L236 431C217 431 206 431 206 412C206 400 215 400 234 400L300 400L225 5C207 -92 190 -183 138 -183C134 -183 109 -183 90 -165C136 -162 145 -126 145 -111C145 -88 127 -76 108 -76C82 -76 53 -98 53 -136C53 -181 97 -205 138 -205C193 -205 233 -146 251 -108C283 -45 306 76 307 83L367 400L453 400C473 400 483 400 483 420C483 431 473 431 456 431L373 431C384 489 383 487 394 545C398 566 412 637 418 649C427 668 444 683 465 683C469 683 495 683 514 665C470 661 460 626 460 611C460 588 478 576 497 576C523 576 552 598 552 636Z" stroke="rgb(0,0,0)" stroke-opacity="1" stroke-width="8" fill="rgb(0,0,0)" fill-opacity="1"></path></g></g><g><g transform="matrix(1,0,0,1,414.3359375,381)"><path transform="matrix(0.017,0,0,-0.017,0,0)" d="M332 -238C332 -235 330 -232 328 -230C224 -152 155 48 155 208L155 292C155 452 224 652 328 730C330 732 332 735 332 738C332 743 327 748 322 748C320 748 318 747 316 746C206 663 101 463 101 292L101 208C101 37 206 -163 316 -246C318 -247 320 -248 322 -248C327 -248 332 -243 332 -238Z" stroke="rgb(0,0,0)" stroke-opacity="1" stroke-width="8" fill="rgb(0,0,0)" fill-opacity="1"></path></g></g><g><g transform="matrix(1,0,0,1,420.953125,380.5)"><path transform="matrix(0.017,0,0,-0.017,0,0)" d="M527 376C527 428 468 442 434 442C376 442 341 389 329 366C304 432 250 442 221 442C117 442 60 313 60 288C60 278 72 278 72 278C80 278 83 280 85 289C119 395 185 420 219 420C238 420 273 411 273 353C273 322 256 255 219 115C203 53 168 11 124 11C118 11 95 11 74 24C99 29 121 50 121 78C121 105 99 113 84 113C54 113 29 87 29 55C29 9 79 -11 123 -11C189 -11 225 59 228 65C240 28 276 -11 336 -11C439 -11 496 118 496 143C496 153 487 153 484 153C475 153 473 149 471 142C438 35 370 11 338 11C299 11 283 43 283 77C283 99 289 121 300 165L334 302C340 328 363 420 433 420C438 420 462 420 483 407C455 402 435 377 435 353C435 337 446 318 473 318C495 318 527 336 527 376Z" stroke="rgb(0,0,0)" stroke-opacity="1" stroke-width="8" fill="rgb(0,0,0)" fill-opacity="1"></path></g></g><g><g transform="matrix(1,0,0,1,430.6796875,381)"><path transform="matrix(0.017,0,0,-0.017,0,0)" d="M288 208L288 292C288 463 183 663 73 746C71 747 69 748 67 748C62 748 57 743 57 738C57 735 59 732 61 730C165 652 234 452 234 292L234 208C234 48 165 -152 61 -230C59 -232 57 -235 57 -238C57 -243 62 -248 67 -248C69 -248 71 -247 73 -246C183 -163 288 37 288 208Z" stroke="rgb(0,0,0)" stroke-opacity="1" stroke-width="8" fill="rgb(0,0,0)" fill-opacity="1"></path></g></g><g><g transform="matrix(1,0,0,1,442.390625,380.5)"><path transform="matrix(0.017,0,0,-0.017,0,0)" d="M722 347C722 358 713 367 702 367L76 367C65 367 56 358 56 347C56 336 65 327 76 327L702 327C713 327 722 336 722 347ZM722 153C722 164 713 173 702 173L76 173C65 173 56 164 56 153C56 142 65 133 76 133L702 133C713 133 722 142 722 153Z" stroke="rgb(0,0,0)" stroke-opacity="1" stroke-width="8" fill="rgb(0,0,0)" fill-opacity="1"></path></g></g><g><g transform="matrix(1,0,0,1,460.7109375,380.5)"><path transform="matrix(0.017,0,0,-0.017,0,0)" d="M449 174L424 174C419 144 412 100 402 85C395 77 329 77 307 77L127 77L233 180C389 318 449 372 449 472C449 586 359 666 237 666C124 666 50 574 50 485C50 429 100 429 103 429C120 429 155 441 155 482C155 508 137 534 102 534C94 534 92 534 89 533C112 598 166 635 224 635C315 635 358 554 358 472C358 392 308 313 253 251L61 37C50 26 50 24 50 0L421 0ZM692 53C692 82 668 106 639 106C610 106 586 82 586 53C586 24 610 0 639 0C668 0 692 24 692 53ZM1235 171C1235 253 1172 331 1068 352C1150 379 1208 449 1208 528C1208 610 1120 666 1024 666C923 666 847 606 847 530C847 497 869 478 898 478C929 478 949 500 949 529C949 579 902 579 887 579C918 628 984 641 1020 641C1061 641 1116 619 1116 529C1116 517 1114 459 1088 415C1058 367 1024 364 999 363C991 362 967 360 960 360C952 359 945 358 945 348C945 337 952 337 969 337L1013 337C1095 337 1132 269 1132 171C1132 35 1063 6 1019 6C976 6 901 23 866 82C901 77 932 99 932 137C932 173 905 193 876 193C852 193 820 179 820 135C820 44 913 -22 1022 -22C1144 -22 1235 69 1235 171Z" stroke="rgb(0,0,0)" stroke-opacity="1" stroke-width="8" fill="rgb(0,0,0)" fill-opacity="1"></path></g></g></g></g><g><g><g><g transform="matrix(1,0,0,1,425,185.5)"><path transform="matrix(0.017,0,0,-0.017,0,0)" d="M474 395C474 412 462 422 445 422C435 422 408 415 404 379C386 416 351 442 311 442C197 442 73 302 73 158C73 59 134 0 206 0C265 0 312 47 322 58L323 57L290 -75C286 -84 252 -183 146 -183C127 -183 94 -182 66 -173C96 -164 107 -138 107 -121C107 -105 96 -86 69 -86C47 -86 15 -104 15 -144C15 -185 52 -205 148 -205C273 -205 345 -127 360 -67L471 377C472 383 474 388 474 395ZM392 334C392 329 390 323 389 319L341 128C335 102 312 77 290 58C269 40 238 22 209 22C159 22 144 74 144 114C144 162 173 280 200 331C227 380 270 420 312 420C378 420 392 339 392 334Z" stroke="rgb(0,0,0)" stroke-opacity="1" stroke-width="8" fill="rgb(0,0,0)" fill-opacity="1"></path></g></g><g><g transform="matrix(1,0,0,1,433.109375,186)"><path transform="matrix(0.017,0,0,-0.017,0,0)" d="M332 -238C332 -235 330 -232 328 -230C224 -152 155 48 155 208L155 292C155 452 224 652 328 730C330 732 332 735 332 738C332 743 327 748 322 748C320 748 318 747 316 746C206 663 101 463 101 292L101 208C101 37 206 -163 316 -246C318 -247 320 -248 322 -248C327 -248 332 -243 332 -238Z" stroke="rgb(0,0,0)" stroke-opacity="1" stroke-width="8" fill="rgb(0,0,0)" fill-opacity="1"></path></g></g><g><g transform="matrix(1,0,0,1,439.7265625,185.5)"><path transform="matrix(0.017,0,0,-0.017,0,0)" d="M527 376C527 428 468 442 434 442C376 442 341 389 329 366C304 432 250 442 221 442C117 442 60 313 60 288C60 278 72 278 72 278C80 278 83 280 85 289C119 395 185 420 219 420C238 420 273 411 273 353C273 322 256 255 219 115C203 53 168 11 124 11C118 11 95 11 74 24C99 29 121 50 121 78C121 105 99 113 84 113C54 113 29 87 29 55C29 9 79 -11 123 -11C189 -11 225 59 228 65C240 28 276 -11 336 -11C439 -11 496 118 496 143C496 153 487 153 484 153C475 153 473 149 471 142C438 35 370 11 338 11C299 11 283 43 283 77C283 99 289 121 300 165L334 302C340 328 363 420 433 420C438 420 462 420 483 407C455 402 435 377 435 353C435 337 446 318 473 318C495 318 527 336 527 376Z" stroke="rgb(0,0,0)" stroke-opacity="1" stroke-width="8" fill="rgb(0,0,0)" fill-opacity="1"></path></g></g><g><g transform="matrix(1,0,0,1,449.453125,186)"><path transform="matrix(0.017,0,0,-0.017,0,0)" d="M288 208L288 292C288 463 183 663 73 746C71 747 69 748 67 748C62 748 57 743 57 738C57 735 59 732 61 730C165 652 234 452 234 292L234 208C234 48 165 -152 61 -230C59 -232 57 -235 57 -238C57 -243 62 -248 67 -248C69 -248 71 -247 73 -246C183 -163 288 37 288 208Z" stroke="rgb(0,0,0)" stroke-opacity="1" stroke-width="8" fill="rgb(0,0,0)" fill-opacity="1"></path></g></g><g><g transform="matrix(1,0,0,1,461.1640625,185.5)"><path transform="matrix(0.017,0,0,-0.017,0,0)" d="M691 78L143 337L691 596C715 607 698 643 673 632L92 357C75 349 75 325 92 317L673 42C698 30 715 67 691 78ZM702 -114C702 -106 697 -99 691 -96L105 181C102 182 99 183 96 183C85 183 76 174 76 163C76 155 81 148 87 145L673 -132C676 -133 679 -134 682 -134C693 -134 702 -125 702 -114Z" stroke="rgb(0,0,0)" stroke-opacity="1" stroke-width="8" fill="rgb(0,0,0)" fill-opacity="1"></path></g></g><g><g transform="matrix(1,0,0,1,479.484375,185.5)"><path transform="matrix(0.017,0,0,-0.017,0,0)" d="M460 320C460 400 455 480 420 554C374 650 292 666 250 666C190 666 117 640 76 547C44 478 39 400 39 320C39 245 43 155 84 79C127 -2 200 -22 249 -22C303 -22 379 -1 423 94C455 163 460 241 460 320ZM377 332C377 257 377 189 366 125C351 30 294 0 249 0C210 0 151 25 133 121C122 181 122 273 122 332C122 396 122 462 130 516C149 635 224 644 249 644C282 644 348 626 367 527C377 471 377 395 377 332Z" stroke="rgb(0,0,0)" stroke-opacity="1" stroke-width="8" fill="rgb(0,0,0)" fill-opacity="1"></path></g></g></g></g></svg>
</svg>
