<svg xmlns="http://www.w3.org/2000/svg" xmlns:xlink="http://www.w3.org/1999/xlink" x="0" y="0" width="662" height="471.0000305175781" style="
        width:662px;
        height:471.0000305175781px;
        background: #FFF;
        fill: none;
">
        
        
        <svg xmlns="http://www.w3.org/2000/svg" class="role-diagram-draw-area"><g class="shapes-region" style="stroke: black; fill: none;"><g class="composite-shape axis2d" style="stroke-width: 1; stroke: rgb(0, 0, 0);"><path class="real" d=" M8.4,360.72 L534.4,360.72 M61,18 L61,398.8"/><path d=" M527.4,355.72 L534.4,360.72 L527.4,365.72"/><path d=" M56,25 L61,18 L66,25"/></g><g class="composite-shape"><path class="real" d=" M474,188.4 C474,185.31 476.51,182.8 479.6,182.8 C482.69,182.8 485.2,185.31 485.2,188.4 C485.2,191.49 482.69,194 479.6,194 C476.51,194 474,191.49 474,188.4 Z" style="stroke-width: 1; stroke: rgb(0, 0, 0); fill: rgb(74, 144, 226); fill-opacity: 1;"/></g><g class="composite-shape"><path class="real" d=" M341,93.4 C341,90.31 343.51,87.8 346.6,87.8 C349.69,87.8 352.2,90.31 352.2,93.4 C352.2,96.49 349.69,99 346.6,99 C343.51,99 341,96.49 341,93.4 Z" style="stroke-width: 1; stroke: rgb(0, 0, 0); fill: rgb(74, 144, 226); fill-opacity: 1;"/></g><g class="composite-shape"><path class="real" d=" M295,144.4 C295,141.31 297.51,138.8 300.6,138.8 C303.69,138.8 306.2,141.31 306.2,144.4 C306.2,147.49 303.69,150 300.6,150 C297.51,150 295,147.49 295,144.4 Z" style="stroke-width: 1; stroke: rgb(0, 0, 0); fill: rgb(74, 144, 226); fill-opacity: 1;"/></g><g class="composite-shape"><path class="real" d=" M376,179.4 C376,176.31 378.51,173.8 381.6,173.8 C384.69,173.8 387.2,176.31 387.2,179.4 C387.2,182.49 384.69,185 381.6,185 C378.51,185 376,182.49 376,179.4 Z" style="stroke-width: 1; stroke: rgb(0, 0, 0); fill: rgb(74, 144, 226); fill-opacity: 1;"/></g><g class="composite-shape"><path class="real" d=" M414,119.4 C414,116.31 416.51,113.8 419.6,113.8 C422.69,113.8 425.2,116.31 425.2,119.4 C425.2,122.49 422.69,125 419.6,125 C416.51,125 414,122.49 414,119.4 Z" style="stroke-width: 1; stroke: rgb(0, 0, 0); fill: rgb(74, 144, 226); fill-opacity: 1;"/></g><g class="composite-shape"><path class="real" d=" M475,61.4 C475,58.31 477.51,55.8 480.6,55.8 C483.69,55.8 486.2,58.31 486.2,61.4 C486.2,64.49 483.69,67 480.6,67 C477.51,67 475,64.49 475,61.4 Z" style="stroke-width: 1; stroke: rgb(0, 0, 0); fill: rgb(74, 144, 226); fill-opacity: 1;"/></g><g class="composite-shape"><path class="real" d=" M406,69.4 C406,66.31 408.51,63.8 411.6,63.8 C414.69,63.8 417.2,66.31 417.2,69.4 C417.2,72.49 414.69,75 411.6,75 C408.51,75 406,72.49 406,69.4 Z" style="stroke-width: 1; stroke: rgb(0, 0, 0); fill: rgb(74, 144, 226); fill-opacity: 1;"/></g><g class="composite-shape"><path class="real" d=" M193,297.4 C193,294.31 195.51,291.8 198.6,291.8 C201.69,291.8 204.2,294.31 204.2,297.4 C204.2,300.49 201.69,303 198.6,303 C195.51,303 193,300.49 193,297.4 Z" style="stroke-width: 1; stroke: rgb(0, 0, 0); fill: rgb(226, 87, 74); fill-opacity: 1;"/></g><g class="composite-shape"><path class="real" d=" M126,197.4 C126,194.31 128.51,191.8 131.6,191.8 C134.69,191.8 137.2,194.31 137.2,197.4 C137.2,200.49 134.69,203 131.6,203 C128.51,203 126,200.49 126,197.4 Z" style="stroke-width: 1; stroke: rgb(0, 0, 0); fill: rgb(226, 87, 74); fill-opacity: 1;"/></g><g class="composite-shape"><path class="real" d=" M88,256.4 C88,253.31 90.51,250.8 93.6,250.8 C96.69,250.8 99.2,253.31 99.2,256.4 C99.2,259.49 96.69,262 93.6,262 C90.51,262 88,259.49 88,256.4 Z" style="stroke-width: 1; stroke: rgb(0, 0, 0); fill: rgb(226, 87, 74); fill-opacity: 1;"/></g><g class="composite-shape"><path class="real" d=" M144,290.4 C144,287.31 146.51,284.8 149.6,284.8 C152.69,284.8 155.2,287.31 155.2,290.4 C155.2,293.49 152.69,296 149.6,296 C146.51,296 144,293.49 144,290.4 Z" style="stroke-width: 1; stroke: rgb(0, 0, 0); fill: rgb(226, 87, 74); fill-opacity: 1;"/></g><g class="composite-shape"><path class="real" d=" M207,231.4 C207,228.31 209.51,225.8 212.6,225.8 C215.69,225.8 218.2,228.31 218.2,231.4 C218.2,234.49 215.69,237 212.6,237 C209.51,237 207,234.49 207,231.4 Z" style="stroke-width: 1; stroke: rgb(0, 0, 0); fill: rgb(226, 87, 74); fill-opacity: 1;"/></g><g class="composite-shape"><path class="real" d=" M143,250.4 C143,247.31 145.51,244.8 148.6,244.8 C151.69,244.8 154.2,247.31 154.2,250.4 C154.2,253.49 151.69,256 148.6,256 C145.51,256 143,253.49 143,250.4 Z" style="stroke-width: 1; stroke: rgb(0, 0, 0); fill: rgb(226, 87, 74); fill-opacity: 1;"/></g><g class="composite-shape"><path class="real" d=" M178,193.4 C178,190.31 180.51,187.8 183.6,187.8 C186.69,187.8 189.2,190.31 189.2,193.4 C189.2,196.49 186.69,199 183.6,199 C180.51,199 178,196.49 178,193.4 Z" style="stroke-width: 1; stroke: rgb(0, 0, 0); fill: rgb(226, 87, 74); fill-opacity: 1;"/></g><g/></g><g/><g/><g/></svg>
        <svg xmlns="http://www.w3.org/2000/svg" xmlns:xlink="http://www.w3.org/1999/xlink" width="660" height="469.0000305175781" style="width:660px;height:469.0000305175781px;font-family:LatinModern-Math, LatinModern, Asana-Math, Asana;background:#FFF;"><g><g><g><g transform="matrix(1,0,0,1,35.000030517578125,38.90856597900391)"><path transform="matrix(0.024480000000000002,0,0,-0.024480000000000002,0,0)" d="M527 376C527 428 468 442 434 442C376 442 341 389 329 366C304 432 250 442 221 442C117 442 60 313 60 288C60 278 72 278 72 278C80 278 83 280 85 289C119 395 185 420 219 420C238 420 273 411 273 353C273 322 256 255 219 115C203 53 168 11 124 11C118 11 95 11 74 24C99 29 121 50 121 78C121 105 99 113 84 113C54 113 29 87 29 55C29 9 79 -11 123 -11C189 -11 225 59 228 65C240 28 276 -11 336 -11C439 -11 496 118 496 143C496 153 487 153 484 153C475 153 473 149 471 142C438 35 370 11 338 11C299 11 283 43 283 77C283 99 289 121 300 165L334 302C340 328 363 420 433 420C438 420 462 420 483 407C455 402 435 377 435 353C435 337 446 318 473 318C495 318 527 336 527 376Z" stroke="rgb(0,0,0)" stroke-opacity="1" stroke-width="8" fill="rgb(0,0,0)" fill-opacity="1"></path></g></g><g><g><g><g><g transform="matrix(1,0,0,1,49.732147216796875,43.79671319580078)"><path transform="matrix(0.017136,0,0,-0.017136,0,0)" d="M449 174L424 174C419 144 412 100 402 85C395 77 329 77 307 77L127 77L233 180C389 318 449 372 449 472C449 586 359 666 237 666C124 666 50 574 50 485C50 429 100 429 103 429C120 429 155 441 155 482C155 508 137 534 102 534C94 534 92 534 89 533C112 598 166 635 224 635C315 635 358 554 358 472C358 392 308 313 253 251L61 37C50 26 50 24 50 0L421 0Z" stroke="rgb(0,0,0)" stroke-opacity="1" stroke-width="8" fill="rgb(0,0,0)" fill-opacity="1"></path></g></g></g></g></g></g></g><g><g><g><g transform="matrix(1,0,0,1,521.0000610351562,397.90859649658205)"><path transform="matrix(0.024480000000000002,0,0,-0.024480000000000002,0,0)" d="M527 376C527 428 468 442 434 442C376 442 341 389 329 366C304 432 250 442 221 442C117 442 60 313 60 288C60 278 72 278 72 278C80 278 83 280 85 289C119 395 185 420 219 420C238 420 273 411 273 353C273 322 256 255 219 115C203 53 168 11 124 11C118 11 95 11 74 24C99 29 121 50 121 78C121 105 99 113 84 113C54 113 29 87 29 55C29 9 79 -11 123 -11C189 -11 225 59 228 65C240 28 276 -11 336 -11C439 -11 496 118 496 143C496 153 487 153 484 153C475 153 473 149 471 142C438 35 370 11 338 11C299 11 283 43 283 77C283 99 289 121 300 165L334 302C340 328 363 420 433 420C438 420 462 420 483 407C455 402 435 377 435 353C435 337 446 318 473 318C495 318 527 336 527 376Z" stroke="rgb(0,0,0)" stroke-opacity="1" stroke-width="8" fill="rgb(0,0,0)" fill-opacity="1"></path></g></g><g><g><g><g><g transform="matrix(1,0,0,1,535.732177734375,402.79674371337893)"><path transform="matrix(0.017136,0,0,-0.017136,0,0)" d="M419 0L419 31L387 31C297 31 294 42 294 79L294 640C294 664 294 666 271 666C209 602 121 602 89 602L89 571C109 571 168 571 220 597L220 79C220 43 217 31 127 31L95 31L95 0C130 3 217 3 257 3C297 3 384 3 419 0Z" stroke="rgb(0,0,0)" stroke-opacity="1" stroke-width="8" fill="rgb(0,0,0)" fill-opacity="1"></path></g></g></g></g></g></g></g></svg>
</svg>
