<svg version="1.1" viewBox="0.0 0.0 960.0 540.0" fill="none" stroke="none" stroke-linecap="square" stroke-miterlimit="10" xmlns:xlink="http://www.w3.org/1999/xlink" xmlns="http://www.w3.org/2000/svg"><clipPath id="g117551e540a_0_0.0"><path d="m0 0l960.0 0l0 540.0l-960.0 0l0 -540.0z" clip-rule="nonzero"/></clipPath><g clip-path="url(#g117551e540a_0_0.0)"><path fill="#ffffff" d="m0 0l960.0 0l0 540.0l-960.0 0z" fill-rule="evenodd"/><path fill="#ffffff" d="m457.64246 203.93814l0 0c0 -20.821579 15.863953 -37.70079 35.433075 -37.70079l0 0c9.39743 0 18.409973 3.9720306 25.054962 11.042297c6.6450195 7.0702667 10.378113 16.659622 10.378113 26.658493l0 0c0 20.821564 -15.863953 37.700775 -35.433075 37.700775l0 0c-19.569122 0 -35.433075 -16.879211 -35.433075 -37.700775z" fill-rule="evenodd"/><path stroke="#000000" stroke-width="1.0" stroke-linejoin="round" stroke-linecap="butt" d="m457.64246 203.93814l0 0c0 -20.821579 15.863953 -37.70079 35.433075 -37.70079l0 0c9.39743 0 18.409973 3.9720306 25.054962 11.042297c6.6450195 7.0702667 10.378113 16.659622 10.378113 26.658493l0 0c0 20.821564 -15.863953 37.700775 -35.433075 37.700775l0 0c-19.569122 0 -35.433075 -16.879211 -35.433075 -37.700775z" fill-rule="evenodd"/><path fill="#ffffff" d="m457.64246 332.33298l0 0c0 -20.821564 15.863953 -37.700806 35.433075 -37.700806l0 0c9.39743 0 18.409973 3.972046 25.054962 11.042328c6.6450195 7.0702515 10.378113 16.659607 10.378113 26.658478l0 0c0 20.821564 -15.863953 37.700775 -35.433075 37.700775l0 0c-19.569122 0 -35.433075 -16.879211 -35.433075 -37.700775z" fill-rule="evenodd"/><path stroke="#000000" stroke-width="1.0" stroke-linejoin="round" stroke-linecap="butt" d="m457.64246 332.33298l0 0c0 -20.821564 15.863953 -37.700806 35.433075 -37.700806l0 0c9.39743 0 18.409973 3.972046 25.054962 11.042328c6.6450195 7.0702515 10.378113 16.659607 10.378113 26.658478l0 0c0 20.821564 -15.863953 37.700775 -35.433075 37.700775l0 0c-19.569122 0 -35.433075 -16.879211 -35.433075 -37.700775z" fill-rule="evenodd"/><path fill="#ffffff" d="m457.64246 75.5433l0 0c0 -20.821568 15.863953 -37.700787 35.433075 -37.700787l0 0c9.39743 0 18.409973 3.9720383 25.054962 11.042305c6.6450195 7.0702705 10.378113 16.65961 10.378113 26.658482l0 0c0 20.821571 -15.863953 37.70079 -35.433075 37.70079l0 0c-19.569122 0 -35.433075 -16.87922 -35.433075 -37.70079z" fill-rule="evenodd"/><path stroke="#000000" stroke-width="1.0" stroke-linejoin="round" stroke-linecap="butt" d="m457.64246 75.5433l0 0c0 -20.821568 15.863953 -37.700787 35.433075 -37.700787l0 0c9.39743 0 18.409973 3.9720383 25.054962 11.042305c6.6450195 7.0702705 10.378113 16.65961 10.378113 26.658482l0 0c0 20.821571 -15.863953 37.70079 -35.433075 37.70079l0 0c-19.569122 0 -35.433075 -16.87922 -35.433075 -37.70079z" fill-rule="evenodd"/><path fill="#ffffff" d="m457.64246 460.7278l0 0c0 -20.821594 15.863953 -37.700806 35.433075 -37.700806l0 0c9.39743 0 18.409973 3.972046 25.054962 11.042328c6.6450195 7.0702515 10.378113 16.659607 10.378113 26.658478l0 0c0 20.821564 -15.863953 37.700775 -35.433075 37.700775l0 0c-19.569122 0 -35.433075 -16.879211 -35.433075 -37.700775z" fill-rule="evenodd"/><path stroke="#000000" stroke-width="1.0" stroke-linejoin="round" stroke-linecap="butt" d="m457.64246 460.7278l0 0c0 -20.821594 15.863953 -37.700806 35.433075 -37.700806l0 0c9.39743 0 18.409973 3.972046 25.054962 11.042328c6.6450195 7.0702515 10.378113 16.659607 10.378113 26.658478l0 0c0 20.821564 -15.863953 37.700775 -35.433075 37.700775l0 0c-19.569122 0 -35.433075 -16.879211 -35.433075 -37.700775z" fill-rule="evenodd"/><path fill="#ffffff" d="m117.20998 150.95486l0 0c0 -20.821564 15.863922 -37.70079 35.433075 -37.70079l0 0c9.39743 0 18.409973 3.9720383 25.054962 11.042305c6.644989 7.0702744 10.378098 16.659615 10.378098 26.658485l0 0c0 20.821564 -15.863922 37.70079 -35.43306 37.70079l0 0c-19.569153 0 -35.433075 -16.879227 -35.433075 -37.70079z" fill-rule="evenodd"/><path stroke="#000000" stroke-width="1.0" stroke-linejoin="round" stroke-linecap="butt" d="m117.20998 150.95486l0 0c0 -20.821564 15.863922 -37.70079 35.433075 -37.70079l0 0c9.39743 0 18.409973 3.9720383 25.054962 11.042305c6.644989 7.0702744 10.378098 16.659615 10.378098 26.658485l0 0c0 20.821564 -15.863922 37.70079 -35.43306 37.70079l0 0c-19.569153 0 -35.433075 -16.879227 -35.433075 -37.70079z" fill-rule="evenodd"/><path fill="#ffffff" d="m117.20998 279.3497l0 0c0 -20.821564 15.863922 -37.70079 35.433075 -37.70079l0 0c9.39743 0 18.409973 3.9720306 25.054962 11.042313c6.644989 7.0702515 10.378098 16.659607 10.378098 26.658478l0 0c0 20.821564 -15.863922 37.700775 -35.43306 37.700775l0 0c-19.569153 0 -35.433075 -16.879211 -35.433075 -37.700775z" fill-rule="evenodd"/><path stroke="#000000" stroke-width="1.0" stroke-linejoin="round" stroke-linecap="butt" d="m117.20998 279.3497l0 0c0 -20.821564 15.863922 -37.70079 35.433075 -37.70079l0 0c9.39743 0 18.409973 3.9720306 25.054962 11.042313c6.644989 7.0702515 10.378098 16.659607 10.378098 26.658478l0 0c0 20.821564 -15.863922 37.700775 -35.43306 37.700775l0 0c-19.569153 0 -35.433075 -16.879211 -35.433075 -37.700775z" fill-rule="evenodd"/><path fill="#ffffff" d="m117.20998 407.74454l0 0c0 -20.821564 15.863922 -37.700775 35.433075 -37.700775l0 0c9.39743 0 18.409973 3.9720154 25.054962 11.042297c6.644989 7.0702515 10.378098 16.659607 10.378098 26.658478l0 0c0 20.821564 -15.863922 37.700775 -35.43306 37.700775l0 0c-19.569153 0 -35.433075 -16.879211 -35.433075 -37.700775z" fill-rule="evenodd"/><path stroke="#000000" stroke-width="1.0" stroke-linejoin="round" stroke-linecap="butt" d="m117.20998 407.74454l0 0c0 -20.821564 15.863922 -37.700775 35.433075 -37.700775l0 0c9.39743 0 18.409973 3.9720154 25.054962 11.042297c6.644989 7.0702515 10.378098 16.659607 10.378098 26.658478l0 0c0 20.821564 -15.863922 37.700775 -35.43306 37.700775l0 0c-19.569153 0 -35.433075 -16.879211 -35.433075 -37.700775z" fill-rule="evenodd"/><path fill="#ffffff" d="m798.07495 215.15228l0 0c0 -20.821564 15.863953 -37.70079 35.433105 -37.70079l0 0c9.3974 0 18.409973 3.972046 25.054932 11.042313c6.6450195 7.0702667 10.378113 16.659607 10.378113 26.658478l0 0c0 20.821564 -15.863953 37.70079 -35.433044 37.70079l0 0c-19.569153 0 -35.433105 -16.879227 -35.433105 -37.70079z" fill-rule="evenodd"/><path stroke="#000000" stroke-width="1.0" stroke-linejoin="round" stroke-linecap="butt" d="m798.07495 215.15228l0 0c0 -20.821564 15.863953 -37.70079 35.433105 -37.70079l0 0c9.3974 0 18.409973 3.972046 25.054932 11.042313c6.6450195 7.0702667 10.378113 16.659607 10.378113 26.658478l0 0c0 20.821564 -15.863953 37.70079 -35.433044 37.70079l0 0c-19.569153 0 -35.433105 -16.879227 -35.433105 -37.70079z" fill-rule="evenodd"/><path fill="#ffffff" d="m798.07495 343.54712l0 0c0 -20.821564 15.863953 -37.700775 35.433105 -37.700775l0 0c9.3974 0 18.409973 3.9720154 25.054932 11.042297c6.6450195 7.0702515 10.378113 16.659607 10.378113 26.658478l0 0c0 20.821564 -15.863953 37.700775 -35.433044 37.700775l0 0c-19.569153 0 -35.433105 -16.879211 -35.433105 -37.700775z" fill-rule="evenodd"/><path stroke="#000000" stroke-width="1.0" stroke-linejoin="round" stroke-linecap="butt" d="m798.07495 343.54712l0 0c0 -20.821564 15.863953 -37.700775 35.433105 -37.700775l0 0c9.3974 0 18.409973 3.9720154 25.054932 11.042297c6.6450195 7.0702515 10.378113 16.659607 10.378113 26.658478l0 0c0 20.821564 -15.863953 37.700775 -35.433044 37.700775l0 0c-19.569153 0 -35.433105 -16.879211 -35.433105 -37.700775z" fill-rule="evenodd"/><path fill="#000000" fill-opacity="0.0" d="m188.07611 150.95486l269.5748 -75.40157" fill-rule="evenodd"/><path stroke="#595959" stroke-width="1.0" stroke-linejoin="round" stroke-linecap="butt" d="m188.07611 150.95486l263.7966 -73.78537" fill-rule="evenodd"/><path fill="#595959" stroke="#595959" stroke-width="1.0" stroke-linecap="butt" d="m452.31763 78.76017l3.925415 -2.813095l-4.815277 -0.36826324z" fill-rule="evenodd"/><path fill="#000000" fill-opacity="0.0" d="m188.07611 150.95486l269.5748 52.97638" fill-rule="evenodd"/><path stroke="#595959" stroke-width="1.0" stroke-linejoin="round" stroke-linecap="butt" d="m188.07611 150.95486l263.6874 51.819397" fill-rule="evenodd"/><path fill="#595959" stroke="#595959" stroke-width="1.0" stroke-linecap="butt" d="m451.445 204.395l4.771454 -0.74565125l-4.13443 -2.495819z" fill-rule="evenodd"/><path fill="#000000" fill-opacity="0.0" d="m188.07611 150.95486l269.5748 181.38583" fill-rule="evenodd"/><path stroke="#595959" stroke-width="1.0" stroke-linejoin="round" stroke-linecap="butt" d="m188.07611 150.95486l264.5968 178.03632" fill-rule="evenodd"/><path fill="#595959" stroke="#595959" stroke-width="1.0" stroke-linecap="butt" d="m451.7508 330.36157l4.6872253 1.1630249l-2.843048 -3.9038086z" fill-rule="evenodd"/><path fill="#000000" fill-opacity="0.0" d="m188.07611 150.95486l269.5748 309.7638" fill-rule="evenodd"/><path stroke="#595959" stroke-width="1.0" stroke-linejoin="round" stroke-linecap="butt" d="m188.07611 150.95486l265.63596 305.23767" fill-rule="evenodd"/><path fill="#595959" stroke="#595959" stroke-width="1.0" stroke-linecap="butt" d="m452.4661 457.2769l4.225128 2.3389587l-1.7331848 -4.5076294z" fill-rule="evenodd"/><path fill="#000000" fill-opacity="0.0" d="m188.07611 279.3497l269.5748 -203.81104" fill-rule="evenodd"/><path stroke="#595959" stroke-width="1.0" stroke-linejoin="round" stroke-linecap="butt" d="m188.07611 279.3497l264.78873 -200.19254" fill-rule="evenodd"/><path fill="#595959" stroke="#595959" stroke-width="1.0" stroke-linecap="butt" d="m453.86096 80.474724l2.6238403 -4.0543976l-4.616089 1.4192963z" fill-rule="evenodd"/><path fill="#000000" fill-opacity="0.0" d="m188.07611 279.3497l269.5748 -75.40158" fill-rule="evenodd"/><path stroke="#595959" stroke-width="1.0" stroke-linejoin="round" stroke-linecap="butt" d="m188.07611 279.3497l263.7966 -73.78537" fill-rule="evenodd"/><path fill="#595959" stroke="#595959" stroke-width="1.0" stroke-linecap="butt" d="m452.31763 207.155l3.925415 -2.813095l-4.815277 -0.36825562z" fill-rule="evenodd"/><path fill="#000000" fill-opacity="0.0" d="m188.07611 279.3497l269.5748 52.97638" fill-rule="evenodd"/><path stroke="#595959" stroke-width="1.0" stroke-linejoin="round" stroke-linecap="butt" d="m188.07611 279.3497l263.6874 51.819397" fill-rule="evenodd"/><path fill="#595959" stroke="#595959" stroke-width="1.0" stroke-linecap="butt" d="m451.445 332.78983l4.771454 -0.745636l-4.13443 -2.495819z" fill-rule="evenodd"/><path fill="#000000" fill-opacity="0.0" d="m188.07611 279.3497l269.5748 181.38583" fill-rule="evenodd"/><path stroke="#595959" stroke-width="1.0" stroke-linejoin="round" stroke-linecap="butt" d="m188.07611 279.3497l264.5968 178.03632" fill-rule="evenodd"/><path fill="#595959" stroke="#595959" stroke-width="1.0" stroke-linecap="butt" d="m451.7508 458.7564l4.6872253 1.1629944l-2.843048 -3.903778z" fill-rule="evenodd"/><path fill="#000000" fill-opacity="0.0" d="m188.07611 407.74454l269.5748 -332.18896" fill-rule="evenodd"/><path stroke="#595959" stroke-width="1.0" stroke-linejoin="round" stroke-linecap="butt" d="m188.07611 407.74454l265.79404 -327.53003" fill-rule="evenodd"/><path fill="#595959" stroke="#595959" stroke-width="1.0" stroke-linecap="butt" d="m455.15268 81.2553l1.5770569 -4.5645905l-4.142151 2.4829788z" fill-rule="evenodd"/><path fill="#000000" fill-opacity="0.0" d="m188.07611 407.74454l269.5748 -75.40158" fill-rule="evenodd"/><path stroke="#595959" stroke-width="1.0" stroke-linejoin="round" stroke-linecap="butt" d="m188.07611 407.74454l263.7966 -73.78537" fill-rule="evenodd"/><path fill="#595959" stroke="#595959" stroke-width="1.0" stroke-linecap="butt" d="m452.31763 335.54984l3.925415 -2.8131104l-4.815277 -0.36825562z" fill-rule="evenodd"/><path fill="#000000" fill-opacity="0.0" d="m188.07611 407.74454l269.5748 52.97638" fill-rule="evenodd"/><path stroke="#595959" stroke-width="1.0" stroke-linejoin="round" stroke-linecap="butt" d="m188.07611 407.74454l263.6874 51.819397" fill-rule="evenodd"/><path fill="#595959" stroke="#595959" stroke-width="1.0" stroke-linecap="butt" d="m451.445 461.18466l4.771454 -0.745636l-4.13443 -2.495819z" fill-rule="evenodd"/><path fill="#000000" fill-opacity="0.0" d="m528.5086 75.5433l269.57483 139.62204" fill-rule="evenodd"/><path stroke="#595959" stroke-width="1.0" stroke-linejoin="round" stroke-linecap="butt" d="m528.5086 75.5433l264.24695 136.86261" fill-rule="evenodd"/><path fill="#595959" stroke="#595959" stroke-width="1.0" stroke-linecap="butt" d="m791.996 213.87259l4.7893066 0.62042236l-3.2700195 -3.5537872z" fill-rule="evenodd"/><path fill="#000000" fill-opacity="0.0" d="m528.5086 75.5433l269.57483 268.0" fill-rule="evenodd"/><path stroke="#595959" stroke-width="1.0" stroke-linejoin="round" stroke-linecap="butt" d="m528.5086 75.5433l265.3197 263.7698" fill-rule="evenodd"/><path fill="#595959" stroke="#595959" stroke-width="1.0" stroke-linecap="butt" d="m792.6638 340.48447l4.3828735 2.0281372l-2.053833 -4.3708496z" fill-rule="evenodd"/><path fill="#000000" fill-opacity="0.0" d="m528.5086 203.93814l269.57483 11.212585" fill-rule="evenodd"/><path stroke="#595959" stroke-width="1.0" stroke-linejoin="round" stroke-linecap="butt" d="m528.5086 203.93814l263.57996 10.963257" fill-rule="evenodd"/><path fill="#595959" stroke="#595959" stroke-width="1.0" stroke-linecap="butt" d="m792.01996 216.5517l4.602844 -1.4617157l-4.465576 -1.8388977z" fill-rule="evenodd"/><path fill="#000000" fill-opacity="0.0" d="m528.5086 203.93814l269.57483 139.62204" fill-rule="evenodd"/><path stroke="#595959" stroke-width="1.0" stroke-linejoin="round" stroke-linecap="butt" d="m528.5086 203.93814l264.24695 136.86258" fill-rule="evenodd"/><path fill="#595959" stroke="#595959" stroke-width="1.0" stroke-linecap="butt" d="m791.996 342.26743l4.7893066 0.62042236l-3.2700195 -3.5538025z" fill-rule="evenodd"/><path fill="#000000" fill-opacity="0.0" d="m528.5086 332.33298l269.57483 -117.16536" fill-rule="evenodd"/><path stroke="#595959" stroke-width="1.0" stroke-linejoin="round" stroke-linecap="butt" d="m528.5086 332.33298l264.07208 -114.77371" fill-rule="evenodd"/><path fill="#595959" stroke="#595959" stroke-width="1.0" stroke-linecap="butt" d="m793.2391 219.0741l3.503601 -3.323761l-4.8203735 0.29408264z" fill-rule="evenodd"/><path fill="#000000" fill-opacity="0.0" d="m528.5086 332.33298l269.57483 11.212585" fill-rule="evenodd"/><path stroke="#595959" stroke-width="1.0" stroke-linejoin="round" stroke-linecap="butt" d="m528.5086 332.33298l263.57996 10.963226" fill-rule="evenodd"/><path fill="#595959" stroke="#595959" stroke-width="1.0" stroke-linecap="butt" d="m792.01996 344.94653l4.602844 -1.461731l-4.465576 -1.8388977z" fill-rule="evenodd"/><path fill="#000000" fill-opacity="0.0" d="m528.5086 460.7278l269.57483 -245.57481" fill-rule="evenodd"/><path stroke="#595959" stroke-width="1.0" stroke-linejoin="round" stroke-linecap="butt" d="m528.5086 460.7278l265.13934 -241.53421" fill-rule="evenodd"/><path fill="#595959" stroke="#595959" stroke-width="1.0" stroke-linecap="butt" d="m794.76025 220.41466l2.2424316 -4.2771606l-4.467102 1.8350677z" fill-rule="evenodd"/><path fill="#000000" fill-opacity="0.0" d="m528.5086 460.7278l269.57483 -117.165375" fill-rule="evenodd"/><path stroke="#595959" stroke-width="1.0" stroke-linejoin="round" stroke-linecap="butt" d="m528.5086 460.7278l264.07208 -114.77371" fill-rule="evenodd"/><path fill="#595959" stroke="#595959" stroke-width="1.0" stroke-linecap="butt" d="m793.2391 347.46896l3.503601 -3.3237915l-4.8203735 0.2940979z" fill-rule="evenodd"/><path fill="#000000" fill-opacity="0.0" d="m188.07611 407.74454l269.5748 -203.81102" fill-rule="evenodd"/><path stroke="#595959" stroke-width="1.0" stroke-linejoin="round" stroke-linecap="butt" d="m188.07611 407.74454l264.78873 -200.19254" fill-rule="evenodd"/><path fill="#595959" stroke="#595959" stroke-width="1.0" stroke-linecap="butt" d="m453.86096 208.86955l2.6238403 -4.0543976l-4.616089 1.419281z" fill-rule="evenodd"/></g></svg>