<svg xmlns="http://www.w3.org/2000/svg" xmlns:xlink="http://www.w3.org/1999/xlink" x="0" y="0" width="662" height="262" style="
        width:662px;
        height:262px;
        background: #FFF;
        fill: none;
">
        <svg xmlns="http://www.w3.org/2000/svg"/>
        
        <svg xmlns="http://www.w3.org/2000/svg" class="role-diagram-draw-area"><g class="shapes-region" style="stroke: black; fill: none;"><g class="composite-shape"><path class="real" d=" M178,100 L235,100 L235,139 L178,139 Z" style="stroke-width: 1; stroke: rgb(0, 0, 0); fill: rgb(74, 144, 226); fill-opacity: 1;"/></g><g class="composite-shape"><path class="real" d=" M178,139 L235,139 L235,178 L178,178 Z" style="stroke-width: 1; stroke: rgb(0, 0, 0); fill: rgb(74, 144, 226); fill-opacity: 1;"/></g><g class="composite-shape"><path class="real" d=" M248,99 L305,99 L305,138 L248,138 Z" style="stroke-width: 1; stroke: rgb(0, 0, 0); fill: rgb(208, 2, 27); fill-opacity: 1;"/></g><g class="composite-shape"><path class="real" d=" M248,138 L305,138 L305,177 L248,177 Z" style="stroke-width: 1; stroke: rgb(0, 0, 0); fill: rgb(208, 2, 27); fill-opacity: 1;"/></g><g class="composite-shape"><path class="real" d=" M316,101 L373,101 L373,140 L316,140 Z" style="stroke-width: 1; stroke: rgb(0, 0, 0); fill: rgb(57, 157, 9); fill-opacity: 1;"/></g><g class="composite-shape"><path class="real" d=" M316,140 L373,140 L373,179 L316,179 Z" style="stroke-width: 1; stroke: rgb(0, 0, 0); fill: rgb(57, 157, 9); fill-opacity: 1;"/></g><g/></g><g/><g/><g/></svg>
        <svg xmlns="http://www.w3.org/2000/svg" xmlns:xlink="http://www.w3.org/1999/xlink" width="660" height="260" style="width:660px;height:260px;font-family:LatinModern-Math, LatinModern, Asana-Math, Asana;background:#FFF;"><g><g><g><g transform="matrix(1,0,0,1,121,126.5)"><path transform="matrix(0.017,0,0,-0.017,0,0)" d="M527 376C527 428 468 442 434 442C376 442 341 389 329 366C304 432 250 442 221 442C117 442 60 313 60 288C60 278 72 278 72 278C80 278 83 280 85 289C119 395 185 420 219 420C238 420 273 411 273 353C273 322 256 255 219 115C203 53 168 11 124 11C118 11 95 11 74 24C99 29 121 50 121 78C121 105 99 113 84 113C54 113 29 87 29 55C29 9 79 -11 123 -11C189 -11 225 59 228 65C240 28 276 -11 336 -11C439 -11 496 118 496 143C496 153 487 153 484 153C475 153 473 149 471 142C438 35 370 11 338 11C299 11 283 43 283 77C283 99 289 121 300 165L334 302C340 328 363 420 433 420C438 420 462 420 483 407C455 402 435 377 435 353C435 337 446 318 473 318C495 318 527 336 527 376Z" stroke="rgb(0,0,0)" stroke-opacity="1" stroke-width="8" fill="rgb(0,0,0)" fill-opacity="1"></path></g></g><g><g><g><g><g transform="matrix(1,0,0,1,131.234375,130.0015625)"><path transform="matrix(0.0119,0,0,-0.0119,0,0)" d="M419 0L419 31L387 31C297 31 294 42 294 79L294 640C294 664 294 666 271 666C209 602 121 602 89 602L89 571C109 571 168 571 220 597L220 79C220 43 217 31 127 31L95 31L95 0C130 3 217 3 257 3C297 3 384 3 419 0Z" stroke="rgb(0,0,0)" stroke-opacity="1" stroke-width="8" fill="rgb(0,0,0)" fill-opacity="1"></path></g></g></g></g></g></g></g><g><g><g><g transform="matrix(1,0,0,1,122,168.5)"><path transform="matrix(0.017,0,0,-0.017,0,0)" d="M527 376C527 428 468 442 434 442C376 442 341 389 329 366C304 432 250 442 221 442C117 442 60 313 60 288C60 278 72 278 72 278C80 278 83 280 85 289C119 395 185 420 219 420C238 420 273 411 273 353C273 322 256 255 219 115C203 53 168 11 124 11C118 11 95 11 74 24C99 29 121 50 121 78C121 105 99 113 84 113C54 113 29 87 29 55C29 9 79 -11 123 -11C189 -11 225 59 228 65C240 28 276 -11 336 -11C439 -11 496 118 496 143C496 153 487 153 484 153C475 153 473 149 471 142C438 35 370 11 338 11C299 11 283 43 283 77C283 99 289 121 300 165L334 302C340 328 363 420 433 420C438 420 462 420 483 407C455 402 435 377 435 353C435 337 446 318 473 318C495 318 527 336 527 376Z" stroke="rgb(0,0,0)" stroke-opacity="1" stroke-width="8" fill="rgb(0,0,0)" fill-opacity="1"></path></g></g><g><g><g><g><g transform="matrix(1,0,0,1,132.234375,172.0015625)"><path transform="matrix(0.0119,0,0,-0.0119,0,0)" d="M449 174L424 174C419 144 412 100 402 85C395 77 329 77 307 77L127 77L233 180C389 318 449 372 449 472C449 586 359 666 237 666C124 666 50 574 50 485C50 429 100 429 103 429C120 429 155 441 155 482C155 508 137 534 102 534C94 534 92 534 89 533C112 598 166 635 224 635C315 635 358 554 358 472C358 392 308 313 253 251L61 37C50 26 50 24 50 0L421 0Z" stroke="rgb(0,0,0)" stroke-opacity="1" stroke-width="8" fill="rgb(0,0,0)" fill-opacity="1"></path></g></g></g></g></g></g></g><g><g><g><g transform="matrix(1,0,0,1,189,73.5)"><path transform="matrix(0.017,0,0,-0.017,0,0)" d="M490 404C490 422 476 431 461 431C451 431 435 425 426 410C424 405 416 374 412 356L392 276L347 96C343 81 300 11 234 11C183 11 172 55 172 92C172 138 189 200 223 288C239 329 243 340 243 360C243 405 211 442 161 442C66 442 29 297 29 288C29 278 41 278 41 278C51 278 52 280 57 296C84 390 124 420 158 420C166 420 183 420 183 388C183 363 173 337 166 318C126 212 108 155 108 108C108 19 171 -11 230 -11C269 -11 303 6 331 34C318 -18 306 -67 266 -120C240 -154 202 -183 156 -183C142 -183 97 -180 80 -141C96 -141 109 -141 123 -129C133 -120 143 -107 143 -88C143 -57 116 -53 106 -53C83 -53 50 -69 50 -118C50 -168 94 -205 156 -205C259 -205 362 -114 390 -1L486 381C490 395 490 397 490 404Z" stroke="rgb(0,0,0)" stroke-opacity="1" stroke-width="8" fill="rgb(0,0,0)" fill-opacity="1"></path></g></g><g><g transform="matrix(1,0,0,1,202.4296875,73.5)"><path transform="matrix(0.017,0,0,-0.017,0,0)" d="M722 347C722 358 713 367 702 367L76 367C65 367 56 358 56 347C56 336 65 327 76 327L702 327C713 327 722 336 722 347ZM722 153C722 164 713 173 702 173L76 173C65 173 56 164 56 153C56 142 65 133 76 133L702 133C713 133 722 142 722 153Z" stroke="rgb(0,0,0)" stroke-opacity="1" stroke-width="8" fill="rgb(0,0,0)" fill-opacity="1"></path></g></g><g><g transform="matrix(1,0,0,1,220.75,73.5)"><path transform="matrix(0.017,0,0,-0.017,0,0)" d="M419 0L419 31L387 31C297 31 294 42 294 79L294 640C294 664 294 666 271 666C209 602 121 602 89 602L89 571C109 571 168 571 220 597L220 79C220 43 217 31 127 31L95 31L95 0C130 3 217 3 257 3C297 3 384 3 419 0Z" stroke="rgb(0,0,0)" stroke-opacity="1" stroke-width="8" fill="rgb(0,0,0)" fill-opacity="1"></path></g></g></g></g><g><g><g><g transform="matrix(1,0,0,1,254,74.5)"><path transform="matrix(0.017,0,0,-0.017,0,0)" d="M490 404C490 422 476 431 461 431C451 431 435 425 426 410C424 405 416 374 412 356L392 276L347 96C343 81 300 11 234 11C183 11 172 55 172 92C172 138 189 200 223 288C239 329 243 340 243 360C243 405 211 442 161 442C66 442 29 297 29 288C29 278 41 278 41 278C51 278 52 280 57 296C84 390 124 420 158 420C166 420 183 420 183 388C183 363 173 337 166 318C126 212 108 155 108 108C108 19 171 -11 230 -11C269 -11 303 6 331 34C318 -18 306 -67 266 -120C240 -154 202 -183 156 -183C142 -183 97 -180 80 -141C96 -141 109 -141 123 -129C133 -120 143 -107 143 -88C143 -57 116 -53 106 -53C83 -53 50 -69 50 -118C50 -168 94 -205 156 -205C259 -205 362 -114 390 -1L486 381C490 395 490 397 490 404Z" stroke="rgb(0,0,0)" stroke-opacity="1" stroke-width="8" fill="rgb(0,0,0)" fill-opacity="1"></path></g></g><g><g transform="matrix(1,0,0,1,267.4296875,74.5)"><path transform="matrix(0.017,0,0,-0.017,0,0)" d="M722 347C722 358 713 367 702 367L76 367C65 367 56 358 56 347C56 336 65 327 76 327L702 327C713 327 722 336 722 347ZM722 153C722 164 713 173 702 173L76 173C65 173 56 164 56 153C56 142 65 133 76 133L702 133C713 133 722 142 722 153Z" stroke="rgb(0,0,0)" stroke-opacity="1" stroke-width="8" fill="rgb(0,0,0)" fill-opacity="1"></path></g></g><g><g transform="matrix(1,0,0,1,285.75,74.5)"><path transform="matrix(0.017,0,0,-0.017,0,0)" d="M449 174L424 174C419 144 412 100 402 85C395 77 329 77 307 77L127 77L233 180C389 318 449 372 449 472C449 586 359 666 237 666C124 666 50 574 50 485C50 429 100 429 103 429C120 429 155 441 155 482C155 508 137 534 102 534C94 534 92 534 89 533C112 598 166 635 224 635C315 635 358 554 358 472C358 392 308 313 253 251L61 37C50 26 50 24 50 0L421 0Z" stroke="rgb(0,0,0)" stroke-opacity="1" stroke-width="8" fill="rgb(0,0,0)" fill-opacity="1"></path></g></g></g></g><g><g><g><g transform="matrix(1,0,0,1,320,74.5)"><path transform="matrix(0.017,0,0,-0.017,0,0)" d="M490 404C490 422 476 431 461 431C451 431 435 425 426 410C424 405 416 374 412 356L392 276L347 96C343 81 300 11 234 11C183 11 172 55 172 92C172 138 189 200 223 288C239 329 243 340 243 360C243 405 211 442 161 442C66 442 29 297 29 288C29 278 41 278 41 278C51 278 52 280 57 296C84 390 124 420 158 420C166 420 183 420 183 388C183 363 173 337 166 318C126 212 108 155 108 108C108 19 171 -11 230 -11C269 -11 303 6 331 34C318 -18 306 -67 266 -120C240 -154 202 -183 156 -183C142 -183 97 -180 80 -141C96 -141 109 -141 123 -129C133 -120 143 -107 143 -88C143 -57 116 -53 106 -53C83 -53 50 -69 50 -118C50 -168 94 -205 156 -205C259 -205 362 -114 390 -1L486 381C490 395 490 397 490 404Z" stroke="rgb(0,0,0)" stroke-opacity="1" stroke-width="8" fill="rgb(0,0,0)" fill-opacity="1"></path></g></g><g><g transform="matrix(1,0,0,1,333.4296875,74.5)"><path transform="matrix(0.017,0,0,-0.017,0,0)" d="M722 347C722 358 713 367 702 367L76 367C65 367 56 358 56 347C56 336 65 327 76 327L702 327C713 327 722 336 722 347ZM722 153C722 164 713 173 702 173L76 173C65 173 56 164 56 153C56 142 65 133 76 133L702 133C713 133 722 142 722 153Z" stroke="rgb(0,0,0)" stroke-opacity="1" stroke-width="8" fill="rgb(0,0,0)" fill-opacity="1"></path></g></g><g><g transform="matrix(1,0,0,1,351.75,74.5)"><path transform="matrix(0.017,0,0,-0.017,0,0)" d="M457 171C457 253 394 331 290 352C372 379 430 449 430 528C430 610 342 666 246 666C145 666 69 606 69 530C69 497 91 478 120 478C151 478 171 500 171 529C171 579 124 579 109 579C140 628 206 641 242 641C283 641 338 619 338 529C338 517 336 459 310 415C280 367 246 364 221 363C213 362 189 360 182 360C174 359 167 358 167 348C167 337 174 337 191 337L235 337C317 337 354 269 354 171C354 35 285 6 241 6C198 6 123 23 88 82C123 77 154 99 154 137C154 173 127 193 98 193C74 193 42 179 42 135C42 44 135 -22 244 -22C366 -22 457 69 457 171Z" stroke="rgb(0,0,0)" stroke-opacity="1" stroke-width="8" fill="rgb(0,0,0)" fill-opacity="1"></path></g></g></g></g><g><g><g><g transform="matrix(1,0,0,1,194,122.5)"><path transform="matrix(0.017,0,0,-0.017,0,0)" d="M572 143C572 153 563 153 560 153C550 153 549 149 546 135C529 70 511 11 470 11C443 11 440 37 440 57C440 79 452 126 460 161L488 269C491 284 501 322 505 337C510 360 520 398 520 404C520 422 506 431 491 431C486 431 460 430 452 396L405 209L379 107C378 102 330 11 249 11C199 11 175 44 175 98C175 127 182 155 189 183L231 351C236 372 246 410 246 415C246 432 234 442 217 442C214 442 186 441 177 406L33 -173C30 -185 30 -189 30 -189C30 -204 41 -216 58 -216C79 -216 91 -198 93 -195C97 -186 110 -134 148 20C180 -7 225 -11 245 -11C315 -11 354 34 378 62C387 17 424 -11 468 -11C503 -11 526 12 542 44C559 80 572 143 572 143Z" stroke="rgb(0,0,0)" stroke-opacity="1" stroke-width="8" fill="rgb(0,0,0)" fill-opacity="1"></path></g></g><g><g><g><g><g transform="matrix(1,0,0,1,204.765625,125.5015625)"><path transform="matrix(0.0119,0,0,-0.0119,0,0)" d="M419 0L419 31L387 31C297 31 294 42 294 79L294 640C294 664 294 666 271 666C209 602 121 602 89 602L89 571C109 571 168 571 220 597L220 79C220 43 217 31 127 31L95 31L95 0C130 3 217 3 257 3C297 3 384 3 419 0ZM919 0L919 31L887 31C797 31 794 42 794 79L794 640C794 664 794 666 771 666C709 602 621 602 589 602L589 571C609 571 668 571 720 597L720 79C720 43 717 31 627 31L595 31L595 0C630 3 717 3 757 3C797 3 884 3 919 0Z" stroke="rgb(0,0,0)" stroke-opacity="1" stroke-width="8" fill="rgb(0,0,0)" fill-opacity="1"></path></g></g></g></g></g></g></g><g><g><g><g transform="matrix(1,0,0,1,265,122.5)"><path transform="matrix(0.017,0,0,-0.017,0,0)" d="M572 143C572 153 563 153 560 153C550 153 549 149 546 135C529 70 511 11 470 11C443 11 440 37 440 57C440 79 452 126 460 161L488 269C491 284 501 322 505 337C510 360 520 398 520 404C520 422 506 431 491 431C486 431 460 430 452 396L405 209L379 107C378 102 330 11 249 11C199 11 175 44 175 98C175 127 182 155 189 183L231 351C236 372 246 410 246 415C246 432 234 442 217 442C214 442 186 441 177 406L33 -173C30 -185 30 -189 30 -189C30 -204 41 -216 58 -216C79 -216 91 -198 93 -195C97 -186 110 -134 148 20C180 -7 225 -11 245 -11C315 -11 354 34 378 62C387 17 424 -11 468 -11C503 -11 526 12 542 44C559 80 572 143 572 143Z" stroke="rgb(0,0,0)" stroke-opacity="1" stroke-width="8" fill="rgb(0,0,0)" fill-opacity="1"></path></g></g><g><g><g><g><g transform="matrix(1,0,0,1,275.765625,125.5015625)"><path transform="matrix(0.0119,0,0,-0.0119,0,0)" d="M419 0L419 31L387 31C297 31 294 42 294 79L294 640C294 664 294 666 271 666C209 602 121 602 89 602L89 571C109 571 168 571 220 597L220 79C220 43 217 31 127 31L95 31L95 0C130 3 217 3 257 3C297 3 384 3 419 0ZM949 174L924 174C919 144 912 100 902 85C895 77 829 77 807 77L627 77L733 180C889 318 949 372 949 472C949 586 859 666 737 666C624 666 550 574 550 485C550 429 600 429 603 429C620 429 655 441 655 482C655 508 637 534 602 534C594 534 592 534 589 533C612 598 666 635 724 635C815 635 858 554 858 472C858 392 808 313 753 251L561 37C550 26 550 24 550 0L921 0Z" stroke="rgb(0,0,0)" stroke-opacity="1" stroke-width="8" fill="rgb(0,0,0)" fill-opacity="1"></path></g></g></g></g></g></g></g><g><g><g><g transform="matrix(1,0,0,1,330,121.5)"><path transform="matrix(0.017,0,0,-0.017,0,0)" d="M572 143C572 153 563 153 560 153C550 153 549 149 546 135C529 70 511 11 470 11C443 11 440 37 440 57C440 79 452 126 460 161L488 269C491 284 501 322 505 337C510 360 520 398 520 404C520 422 506 431 491 431C486 431 460 430 452 396L405 209L379 107C378 102 330 11 249 11C199 11 175 44 175 98C175 127 182 155 189 183L231 351C236 372 246 410 246 415C246 432 234 442 217 442C214 442 186 441 177 406L33 -173C30 -185 30 -189 30 -189C30 -204 41 -216 58 -216C79 -216 91 -198 93 -195C97 -186 110 -134 148 20C180 -7 225 -11 245 -11C315 -11 354 34 378 62C387 17 424 -11 468 -11C503 -11 526 12 542 44C559 80 572 143 572 143Z" stroke="rgb(0,0,0)" stroke-opacity="1" stroke-width="8" fill="rgb(0,0,0)" fill-opacity="1"></path></g></g><g><g><g><g><g transform="matrix(1,0,0,1,340.765625,124.5015625)"><path transform="matrix(0.0119,0,0,-0.0119,0,0)" d="M419 0L419 31L387 31C297 31 294 42 294 79L294 640C294 664 294 666 271 666C209 602 121 602 89 602L89 571C109 571 168 571 220 597L220 79C220 43 217 31 127 31L95 31L95 0C130 3 217 3 257 3C297 3 384 3 419 0ZM957 171C957 253 894 331 790 352C872 379 930 449 930 528C930 610 842 666 746 666C645 666 569 606 569 530C569 497 591 478 620 478C651 478 671 500 671 529C671 579 624 579 609 579C640 628 706 641 742 641C783 641 838 619 838 529C838 517 836 459 810 415C780 367 746 364 721 363C713 362 689 360 682 360C674 359 667 358 667 348C667 337 674 337 691 337L735 337C817 337 854 269 854 171C854 35 785 6 741 6C698 6 623 23 588 82C623 77 654 99 654 137C654 173 627 193 598 193C574 193 542 179 542 135C542 44 635 -22 744 -22C866 -22 957 69 957 171Z" stroke="rgb(0,0,0)" stroke-opacity="1" stroke-width="8" fill="rgb(0,0,0)" fill-opacity="1"></path></g></g></g></g></g></g></g><g><g><g><g transform="matrix(1,0,0,1,194,159.5)"><path transform="matrix(0.017,0,0,-0.017,0,0)" d="M572 143C572 153 563 153 560 153C550 153 549 149 546 135C529 70 511 11 470 11C443 11 440 37 440 57C440 79 452 126 460 161L488 269C491 284 501 322 505 337C510 360 520 398 520 404C520 422 506 431 491 431C486 431 460 430 452 396L405 209L379 107C378 102 330 11 249 11C199 11 175 44 175 98C175 127 182 155 189 183L231 351C236 372 246 410 246 415C246 432 234 442 217 442C214 442 186 441 177 406L33 -173C30 -185 30 -189 30 -189C30 -204 41 -216 58 -216C79 -216 91 -198 93 -195C97 -186 110 -134 148 20C180 -7 225 -11 245 -11C315 -11 354 34 378 62C387 17 424 -11 468 -11C503 -11 526 12 542 44C559 80 572 143 572 143Z" stroke="rgb(0,0,0)" stroke-opacity="1" stroke-width="8" fill="rgb(0,0,0)" fill-opacity="1"></path></g></g><g><g><g><g><g transform="matrix(1,0,0,1,204.765625,162.5015625)"><path transform="matrix(0.0119,0,0,-0.0119,0,0)" d="M449 174L424 174C419 144 412 100 402 85C395 77 329 77 307 77L127 77L233 180C389 318 449 372 449 472C449 586 359 666 237 666C124 666 50 574 50 485C50 429 100 429 103 429C120 429 155 441 155 482C155 508 137 534 102 534C94 534 92 534 89 533C112 598 166 635 224 635C315 635 358 554 358 472C358 392 308 313 253 251L61 37C50 26 50 24 50 0L421 0ZM919 0L919 31L887 31C797 31 794 42 794 79L794 640C794 664 794 666 771 666C709 602 621 602 589 602L589 571C609 571 668 571 720 597L720 79C720 43 717 31 627 31L595 31L595 0C630 3 717 3 757 3C797 3 884 3 919 0Z" stroke="rgb(0,0,0)" stroke-opacity="1" stroke-width="8" fill="rgb(0,0,0)" fill-opacity="1"></path></g></g></g></g></g></g></g><g><g><g><g transform="matrix(1,0,0,1,264,161.5)"><path transform="matrix(0.017,0,0,-0.017,0,0)" d="M572 143C572 153 563 153 560 153C550 153 549 149 546 135C529 70 511 11 470 11C443 11 440 37 440 57C440 79 452 126 460 161L488 269C491 284 501 322 505 337C510 360 520 398 520 404C520 422 506 431 491 431C486 431 460 430 452 396L405 209L379 107C378 102 330 11 249 11C199 11 175 44 175 98C175 127 182 155 189 183L231 351C236 372 246 410 246 415C246 432 234 442 217 442C214 442 186 441 177 406L33 -173C30 -185 30 -189 30 -189C30 -204 41 -216 58 -216C79 -216 91 -198 93 -195C97 -186 110 -134 148 20C180 -7 225 -11 245 -11C315 -11 354 34 378 62C387 17 424 -11 468 -11C503 -11 526 12 542 44C559 80 572 143 572 143Z" stroke="rgb(0,0,0)" stroke-opacity="1" stroke-width="8" fill="rgb(0,0,0)" fill-opacity="1"></path></g></g><g><g><g><g><g transform="matrix(1,0,0,1,274.765625,164.5015625)"><path transform="matrix(0.0119,0,0,-0.0119,0,0)" d="M449 174L424 174C419 144 412 100 402 85C395 77 329 77 307 77L127 77L233 180C389 318 449 372 449 472C449 586 359 666 237 666C124 666 50 574 50 485C50 429 100 429 103 429C120 429 155 441 155 482C155 508 137 534 102 534C94 534 92 534 89 533C112 598 166 635 224 635C315 635 358 554 358 472C358 392 308 313 253 251L61 37C50 26 50 24 50 0L421 0ZM949 174L924 174C919 144 912 100 902 85C895 77 829 77 807 77L627 77L733 180C889 318 949 372 949 472C949 586 859 666 737 666C624 666 550 574 550 485C550 429 600 429 603 429C620 429 655 441 655 482C655 508 637 534 602 534C594 534 592 534 589 533C612 598 666 635 724 635C815 635 858 554 858 472C858 392 808 313 753 251L561 37C550 26 550 24 550 0L921 0Z" stroke="rgb(0,0,0)" stroke-opacity="1" stroke-width="8" fill="rgb(0,0,0)" fill-opacity="1"></path></g></g></g></g></g></g></g><g><g><g><g transform="matrix(1,0,0,1,331,161.5)"><path transform="matrix(0.017,0,0,-0.017,0,0)" d="M572 143C572 153 563 153 560 153C550 153 549 149 546 135C529 70 511 11 470 11C443 11 440 37 440 57C440 79 452 126 460 161L488 269C491 284 501 322 505 337C510 360 520 398 520 404C520 422 506 431 491 431C486 431 460 430 452 396L405 209L379 107C378 102 330 11 249 11C199 11 175 44 175 98C175 127 182 155 189 183L231 351C236 372 246 410 246 415C246 432 234 442 217 442C214 442 186 441 177 406L33 -173C30 -185 30 -189 30 -189C30 -204 41 -216 58 -216C79 -216 91 -198 93 -195C97 -186 110 -134 148 20C180 -7 225 -11 245 -11C315 -11 354 34 378 62C387 17 424 -11 468 -11C503 -11 526 12 542 44C559 80 572 143 572 143Z" stroke="rgb(0,0,0)" stroke-opacity="1" stroke-width="8" fill="rgb(0,0,0)" fill-opacity="1"></path></g></g><g><g><g><g><g transform="matrix(1,0,0,1,341.765625,164.5015625)"><path transform="matrix(0.0119,0,0,-0.0119,0,0)" d="M449 174L424 174C419 144 412 100 402 85C395 77 329 77 307 77L127 77L233 180C389 318 449 372 449 472C449 586 359 666 237 666C124 666 50 574 50 485C50 429 100 429 103 429C120 429 155 441 155 482C155 508 137 534 102 534C94 534 92 534 89 533C112 598 166 635 224 635C315 635 358 554 358 472C358 392 308 313 253 251L61 37C50 26 50 24 50 0L421 0ZM957 171C957 253 894 331 790 352C872 379 930 449 930 528C930 610 842 666 746 666C645 666 569 606 569 530C569 497 591 478 620 478C651 478 671 500 671 529C671 579 624 579 609 579C640 628 706 641 742 641C783 641 838 619 838 529C838 517 836 459 810 415C780 367 746 364 721 363C713 362 689 360 682 360C674 359 667 358 667 348C667 337 674 337 691 337L735 337C817 337 854 269 854 171C854 35 785 6 741 6C698 6 623 23 588 82C623 77 654 99 654 137C654 173 627 193 598 193C574 193 542 179 542 135C542 44 635 -22 744 -22C866 -22 957 69 957 171Z" stroke="rgb(0,0,0)" stroke-opacity="1" stroke-width="8" fill="rgb(0,0,0)" fill-opacity="1"></path></g></g></g></g></g></g></g><g><g><g><g><g><g><g transform="matrix(1,0,0,1,194,215.5)"><path transform="matrix(0.017,0,0,-0.017,0,0)" d="M572 143C572 153 563 153 560 153C550 153 549 149 546 135C529 70 511 11 470 11C443 11 440 37 440 57C440 79 452 126 460 161L488 269C491 284 501 322 505 337C510 360 520 398 520 404C520 422 506 431 491 431C486 431 460 430 452 396L405 209L379 107C378 102 330 11 249 11C199 11 175 44 175 98C175 127 182 155 189 183L231 351C236 372 246 410 246 415C246 432 234 442 217 442C214 442 186 441 177 406L33 -173C30 -185 30 -189 30 -189C30 -204 41 -216 58 -216C79 -216 91 -198 93 -195C97 -186 110 -134 148 20C180 -7 225 -11 245 -11C315 -11 354 34 378 62C387 17 424 -11 468 -11C503 -11 526 12 542 44C559 80 572 143 572 143Z" stroke="rgb(0,0,0)" stroke-opacity="1" stroke-width="24" fill="rgb(0,0,0)" fill-opacity="1"></path></g></g></g></g><svg x="194" overflow="visible" y="197" height="9" width="10.2578125"><polyline points="0.00,8.06 5.13,4.64 10.26,8.06" style="fill:none;fill-opacity:1;stroke-width:1px;stroke:rgb(0,0,0);stroke-opacity:1;"></polyline></svg></g><g><g><g><g><g transform="matrix(1,0,0,1,204.765625,222.790625)"><path transform="matrix(0.0119,0,0,-0.0119,0,0)" d="M424 0L424 58L299 58L299 678L279 678C220 617 137 614 89 612L89 554C122 555 170 557 220 578L220 58L95 58L95 0Z" stroke="rgb(0,0,0)" stroke-opacity="1" stroke-width="24" fill="rgb(0,0,0)" fill-opacity="1"></path></g></g></g></g></g></g></g><g><g><g><g><g><g><g transform="matrix(1,0,0,1,264,216.5)"><path transform="matrix(0.017,0,0,-0.017,0,0)" d="M572 143C572 153 563 153 560 153C550 153 549 149 546 135C529 70 511 11 470 11C443 11 440 37 440 57C440 79 452 126 460 161L488 269C491 284 501 322 505 337C510 360 520 398 520 404C520 422 506 431 491 431C486 431 460 430 452 396L405 209L379 107C378 102 330 11 249 11C199 11 175 44 175 98C175 127 182 155 189 183L231 351C236 372 246 410 246 415C246 432 234 442 217 442C214 442 186 441 177 406L33 -173C30 -185 30 -189 30 -189C30 -204 41 -216 58 -216C79 -216 91 -198 93 -195C97 -186 110 -134 148 20C180 -7 225 -11 245 -11C315 -11 354 34 378 62C387 17 424 -11 468 -11C503 -11 526 12 542 44C559 80 572 143 572 143Z" stroke="rgb(0,0,0)" stroke-opacity="1" stroke-width="24" fill="rgb(0,0,0)" fill-opacity="1"></path></g></g></g></g><svg x="264" overflow="visible" y="198" height="9" width="10.2578125"><polyline points="0.00,8.06 5.13,4.64 10.26,8.06" style="fill:none;fill-opacity:1;stroke-width:1px;stroke:rgb(0,0,0);stroke-opacity:1;"></polyline></svg></g><g><g><g><g><g transform="matrix(1,0,0,1,274.765625,223.790625)"><path transform="matrix(0.0119,0,0,-0.0119,0,0)" d="M449 0L449 71L267 71C255 71 243 70 231 70L122 70C154 98 230 173 261 202C280 220 331 262 350 280C395 325 449 378 449 463C449 578 368 678 236 678C122 678 66 600 42 514C54 497 59 491 61 488C63 486 73 473 83 459C103 536 131 614 222 614C316 614 367 539 367 461C367 376 310 319 251 259L174 188L50 64L50 0Z" stroke="rgb(0,0,0)" stroke-opacity="1" stroke-width="24" fill="rgb(0,0,0)" fill-opacity="1"></path></g></g></g></g></g></g></g><g><g><g><g><g><g><g transform="matrix(1,0,0,1,334,214.5)"><path transform="matrix(0.017,0,0,-0.017,0,0)" d="M572 143C572 153 563 153 560 153C550 153 549 149 546 135C529 70 511 11 470 11C443 11 440 37 440 57C440 79 452 126 460 161L488 269C491 284 501 322 505 337C510 360 520 398 520 404C520 422 506 431 491 431C486 431 460 430 452 396L405 209L379 107C378 102 330 11 249 11C199 11 175 44 175 98C175 127 182 155 189 183L231 351C236 372 246 410 246 415C246 432 234 442 217 442C214 442 186 441 177 406L33 -173C30 -185 30 -189 30 -189C30 -204 41 -216 58 -216C79 -216 91 -198 93 -195C97 -186 110 -134 148 20C180 -7 225 -11 245 -11C315 -11 354 34 378 62C387 17 424 -11 468 -11C503 -11 526 12 542 44C559 80 572 143 572 143Z" stroke="rgb(0,0,0)" stroke-opacity="1" stroke-width="24" fill="rgb(0,0,0)" fill-opacity="1"></path></g></g></g></g><svg x="334" overflow="visible" y="196" height="9" width="10.2578125"><polyline points="0.00,8.06 5.13,4.64 10.26,8.06" style="fill:none;fill-opacity:1;stroke-width:1px;stroke:rgb(0,0,0);stroke-opacity:1;"></polyline></svg></g><g><g><g><g><g transform="matrix(1,0,0,1,344.765625,221.790625)"><path transform="matrix(0.0119,0,0,-0.0119,0,0)" d="M457 180C457 271 387 333 319 354C395 395 430 463 430 526C430 612 347 678 248 678C171 678 98 638 56 568L92 514C121 584 186 620 247 620C299 620 348 590 348 526C348 465 307 406 246 392C240 391 238 391 167 385L167 324L238 324C346 324 368 231 368 181C368 103 322 39 245 39C176 39 97 74 53 142L42 82C115 -12 207 -22 247 -22C369 -22 457 75 457 180Z" stroke="rgb(0,0,0)" stroke-opacity="1" stroke-width="24" fill="rgb(0,0,0)" fill-opacity="1"></path></g></g></g></g></g></g></g><g><g><g><text x="426" y="123" style="white-space:pre;stroke:none;fill:rgb(0,0,0);fill-opacity:1;font-size:15px;font-family:&quot;Courier New&quot;, Courier, monospace;font-weight:400;font-style:normal;dominant-baseline:text-before-edge;text-decoration:none solid rgb(0, 0, 0);">means → 2 X 3</text></g></g></g></svg>
</svg>
