<svg xmlns="http://www.w3.org/2000/svg" xmlns:xlink="http://www.w3.org/1999/xlink" x="0" y="0" width="662" height="194" style="
        width:662px;
        height:194px;
        background: #FFF;
        fill: none;
">
        <svg xmlns="http://www.w3.org/2000/svg"/>
        
        <svg xmlns="http://www.w3.org/2000/svg" class="role-diagram-draw-area"><g class="shapes-region" style="stroke: black; fill: none;"><g class="composite-shape" data-amt="diagram/shapes/plot" transform="matrix(1,0,0,1,6,7)"><g><g><g class="test-xgi"><line x1="27.040453513642774" y1="0" x2="27.040453513642774" y2="173.5" fill="none" stroke="#c3c3c3" stroke-width="0.5"/><line x1="99.62959857826529" y1="0" x2="99.62959857826529" y2="173.5" fill="none" stroke="#c3c3c3" stroke-width="0.5"/><line x1="172.2187436428878" y1="0" x2="172.2187436428878" y2="173.5" fill="none" stroke="#c3c3c3" stroke-width="0.5"/><line x1="244.80788870751033" y1="0" x2="244.80788870751033" y2="173.5" fill="none" stroke="#c3c3c3" stroke-width="0.5"/><line x1="317.39703377213283" y1="0" x2="317.39703377213283" y2="173.5" fill="none" stroke="#c3c3c3" stroke-width="0.5"/><line x1="389.98617883675536" y1="0" x2="389.98617883675536" y2="173.5" fill="none" stroke="#c3c3c3" stroke-width="0.5"/></g><g class="test-ygi"><line x1="0" y1="154.43474860843452" x2="428" y2="154.43474860843452" fill="none" stroke="#c3c3c3" stroke-width="0.5"/><line x1="0" y1="81.845603543812" x2="428" y2="81.845603543812" fill="none" stroke="#c3c3c3" stroke-width="0.5"/><line x1="0" y1="9.25645847918949" x2="428" y2="9.25645847918949" fill="none" stroke="#c3c3c3" stroke-width="0.5"/></g></g><g><g class="test-xti" style="font-family: Asana-Math, Asana;"><line x1="0" y1="81.845603543812" x2="424" y2="81.845603543812" fill="none" stroke="rgb(50,50,50)" stroke-opacity="1" stroke-width="1"/><line x1="99.62959857826529" y1="77.845603543812" x2="99.62959857826529" y2="85.845603543812" fill="none" stroke="rgb(50,50,50)" stroke-opacity="1" stroke-width="1"/><line x1="172.2187436428878" y1="77.845603543812" x2="172.2187436428878" y2="85.845603543812" fill="none" stroke="rgb(50,50,50)" stroke-opacity="1" stroke-width="1"/><line x1="244.80788870751033" y1="77.845603543812" x2="244.80788870751033" y2="85.845603543812" fill="none" stroke="rgb(50,50,50)" stroke-opacity="1" stroke-width="1"/><line x1="317.39703377213283" y1="77.845603543812" x2="317.39703377213283" y2="85.845603543812" fill="none" stroke="rgb(50,50,50)" stroke-opacity="1" stroke-width="1"/><line x1="389.98617883675536" y1="77.845603543812" x2="389.98617883675536" y2="85.845603543812" fill="none" stroke="rgb(50,50,50)" stroke-opacity="1" stroke-width="1"/><path d="M419,78.24560354381201 L427,81.845603543812 L419,85.445603543812 Z" stroke="none" stroke-width="1" fill="rgb(50,50,50)" fill-opacity="1"/></g><g class="test-yti" style="font-family: Asana-Math, Asana;"><line x1="27.040453513642774" y1="4" x2="27.040453513642774" y2="173.5" fill="none" stroke="rgb(50,50,50)" stroke-opacity="1" stroke-width="1"/><line x1="23.040453513642774" y1="154.43474860843452" x2="31.040453513642774" y2="154.43474860843452" fill="none" stroke="rgb(50,50,50)" stroke-opacity="1" stroke-width="1"/><line x1="23.040453513642774" y1="9.25645847918949" x2="31.040453513642774" y2="9.25645847918949" fill="none" stroke="rgb(50,50,50)" stroke-opacity="1" stroke-width="1"/><path d="M23.440453513642773,9 L27.040453513642774,1 L30.640453513642775,9 Z" stroke="none" stroke-width="1" fill="rgb(50,50,50)" fill-opacity="1"/></g><g class="test-plot-expression"><defs><clipPath id="cpvwi5aadpf"><rect x="1" y="1" width="426" height="171.5"/></clipPath></defs><g clip-path="url(#cpvwi5aadpf)"><path d=" M27.04,81.85 L27.46,81.85 L27.89,81.85 L28.31,81.85 L28.74,81.85 L29.16,81.85 L29.59,81.85 L30.01,81.85 L30.44,81.85 L30.86,81.85 L31.29,81.85 L31.71,81.85 L32.13,81.85 L32.56,81.85 L32.98,81.85 L33.41,81.85 L33.83,81.85 L34.26,81.85 L34.68,81.85 L35.11,81.85 L35.53,81.85 L35.95,81.85 L36.38,81.85 L36.80,81.85 L37.23,81.85 L37.65,81.85 L38.08,81.85 L38.50,81.85 L38.93,81.85 L39.35,81.85 L39.78,81.85 L40.20,81.84 L40.62,81.84 L41.05,81.84 L41.47,81.84 L41.90,81.84 L42.32,81.84 L42.75,81.84 L43.17,81.84 L43.60,81.84 L44.02,81.84 L44.44,81.84 L44.87,81.84 L45.29,81.84 L45.72,81.84 L46.14,81.84 L46.57,81.84 L46.99,81.84 L47.42,81.84 L47.84,81.84 L48.27,81.84 L48.69,81.84 L49.11,81.84 L49.54,81.84 L49.96,81.84 L50.39,81.84 L50.81,81.84 L51.24,81.84 L51.66,81.84 L52.09,81.84 L52.51,81.84 L52.93,81.84 L53.36,81.84 L53.78,81.84 L54.21,81.84 L54.63,81.83 L55.06,81.83 L55.48,81.83 L55.91,81.83 L56.33,81.83 L56.76,81.83 L57.18,81.83 L57.60,81.83 L58.03,81.83 L58.45,81.83 L58.88,81.83 L59.30,81.82 L59.73,81.82 L60.15,81.82 L60.58,81.82 L61.00,81.82 L61.42,81.82 L61.85,81.82 L62.27,81.82 L62.70,81.82 L63.12,81.81 L63.55,81.81 L63.97,81.81 L64.40,81.81 L64.82,81.81 L65.25,81.81 L65.67,81.80 L66.09,81.80 L66.52,81.80 L66.94,81.80 L67.37,81.80 L67.79,81.79 L68.22,81.79 L68.64,81.79 L69.07,81.79 L69.49,81.79 L69.91,81.78 L70.34,81.78 L70.76,81.78 L71.19,81.78 L71.61,81.77 L72.04,81.77 L72.46,81.77 L72.89,81.76 L73.31,81.76 L73.74,81.76 L74.16,81.76 L74.58,81.75 L75.01,81.75 L75.43,81.75 L75.86,81.74 L76.28,81.74 L76.71,81.74 L77.13,81.73 L77.56,81.73 L77.98,81.72 L78.40,81.72 L78.83,81.72 L79.25,81.71 L79.68,81.71 L80.10,81.70 L80.53,81.70 L80.95,81.70 L81.38,81.69 L81.80,81.69 L82.23,81.68 L82.65,81.68 L83.07,81.67 L83.50,81.67 L83.92,81.66 L84.35,81.66 L84.77,81.65 L85.20,81.64 L85.62,81.64 L86.05,81.63 L86.47,81.63 L86.89,81.62 L87.32,81.62 L87.74,81.61 L88.17,81.60 L88.59,81.60 L89.02,81.59 L89.44,81.58 L89.87,81.58 L90.29,81.57 L90.72,81.56 L91.14,81.55 L91.56,81.55 L91.99,81.54 L92.41,81.53 L92.84,81.52 L93.26,81.52 L93.69,81.51 L94.11,81.50 L94.54,81.49 L94.96,81.48 L95.38,81.48 L95.81,81.47 L96.23,81.46 L96.66,81.45 L97.08,81.44 L97.51,81.43 L97.93,81.42 L98.36,81.41 L98.78,81.40 L99.21,81.39 L99.63,81.38 L100.05,81.37 L100.48,81.36 L100.90,81.35 L101.33,81.34 L101.75,81.33 L102.18,81.32 L102.60,81.31 L103.03,81.29 L103.45,81.28 L103.87,81.27 L104.30,81.26 L104.72,81.25 L105.15,81.23 L105.57,81.22 L106.00,81.21 L106.42,81.20 L106.85,81.18 L107.27,81.17 L107.70,81.16 L108.12,81.14 L108.54,81.13 L108.97,81.12 L109.39,81.10 L109.82,81.09 L110.24,81.07 L110.67,81.06 L111.09,81.04 L111.52,81.03 L111.94,81.01 L112.36,81.00 L112.79,80.98 L113.21,80.97 L113.64,80.95 L114.06,80.93 L114.49,80.92 L114.91,80.90 L115.34,80.88 L115.76,80.87 L116.19,80.85 L116.61,80.83 L117.03,80.81 L117.46,80.80 L117.88,80.78 L118.31,80.76 L118.73,80.74 L119.16,80.72 L119.58,80.70 L120.01,80.68 L120.43,80.66 L120.85,80.64 L121.28,80.62 L121.70,80.60 L122.13,80.58 L122.55,80.56 L122.98,80.54 L123.40,80.52 L123.83,80.50 L124.25,80.48 L124.67,80.46 L125.10,80.43 L125.52,80.41 L125.95,80.39 L126.37,80.37 L126.80,80.34 L127.22,80.32 L127.65,80.30 L128.07,80.27 L128.50,80.25 L128.92,80.22 L129.34,80.20 L129.77,80.18 L130.19,80.15 L130.62,80.13 L131.04,80.10 L131.47,80.07 L131.89,80.05 L132.32,80.02 L132.74,80.00 L133.16,79.97 L133.59,79.94 L134.01,79.91 L134.44,79.89 L134.86,79.86 L135.29,79.83 L135.71,79.80 L136.14,79.77 L136.56,79.74 L136.99,79.72 L137.41,79.69 L137.83,79.66 L138.26,79.63 L138.68,79.60 L139.11,79.57 L139.53,79.53 L139.96,79.50 L140.38,79.47 L140.81,79.44 L141.23,79.41 L141.65,79.38 L142.08,79.34 L142.50,79.31 L142.93,79.28 L143.35,79.24 L143.78,79.21 L144.20,79.18 L144.63,79.14 L145.05,79.11 L145.48,79.07 L145.90,79.04 L146.32,79.00 L146.75,78.97 L147.17,78.93 L147.60,78.89 L148.02,78.86 L148.45,78.82 L148.87,78.78 L149.30,78.75 L149.72,78.71 L150.14,78.67 L150.57,78.63 L150.99,78.59 L151.42,78.56 L151.84,78.52 L152.27,78.48 L152.69,78.44 L153.12,78.40 L153.54,78.36 L153.97,78.32 L154.39,78.27 L154.81,78.23 L155.24,78.19 L155.66,78.15 L156.09,78.11 L156.51,78.06 L156.94,78.02 L157.36,77.98 L157.79,77.94 L158.21,77.89 L158.63,77.85 L159.06,77.80 L159.48,77.76 L159.91,77.71 L160.33,77.67 L160.76,77.62 L161.18,77.58 L161.61,77.53 L162.03,77.48 L162.46,77.44 L162.88,77.39 L163.30,77.34 L163.73,77.29 L164.15,77.25 L164.58,77.20 L165.00,77.15 L165.43,77.10 L165.85,77.05 L166.28,77.00 L166.70,76.95 L167.12,76.90 L167.55,76.85 L167.97,76.80 L168.40,76.75 L168.82,76.70 L169.25,76.64 L169.67,76.59 L170.10,76.54 L170.52,76.49 L170.95,76.43 L171.37,76.38 L171.79,76.32 L172.22,76.27 L172.64,76.22 L173.07,76.16 L173.49,76.11 L173.92,76.05 L174.34,76.00 L174.77,75.94 L175.19,75.88 L175.61,75.83 L176.04,75.77 L176.46,75.71 L176.89,75.65 L177.31,75.60 L177.74,75.54 L178.16,75.48 L178.59,75.42 L179.01,75.36 L179.44,75.30 L179.86,75.24 L180.28,75.18 L180.71,75.12 L181.13,75.06 L181.56,75.00 L181.98,74.94 L182.41,74.88 L182.83,74.81 L183.26,74.75 L183.68,74.69 L184.10,74.63 L184.53,74.56 L184.95,74.50 L185.38,74.43 L185.80,74.37 L186.23,74.31 L186.65,74.24 L187.08,74.18 L187.50,74.11 L187.93,74.04 L188.35,73.98 L188.77,73.91 L189.20,73.84 L189.62,73.78 L190.05,73.71 L190.47,73.64 L190.90,73.58 L191.32,73.51 L191.75,73.44 L192.17,73.37 L192.59,73.30 L193.02,73.23 L193.44,73.16 L193.87,73.09 L194.29,73.02 L194.72,72.95 L195.14,72.88 L195.57,72.81 L195.99,72.74 L196.42,72.67 L196.84,72.59 L197.26,72.52 L197.69,72.45 L198.11,72.38 L198.54,72.30 L198.96,72.23 L199.39,72.15 L199.81,72.08 L200.24,72.01 L200.66,71.93 L201.08,71.86 L201.51,71.78 L201.93,71.71 L202.36,71.63 L202.78,71.55 L203.21,71.48 L203.63,71.40 L204.06,71.33 L204.48,71.25 L204.91,71.17 L205.33,71.09 L205.75,71.02 L206.18,70.94 L206.60,70.86 L207.03,70.78 L207.45,70.70 L207.88,70.62 L208.30,70.54 L208.73,70.46 L209.15,70.38 L209.57,70.30 L210.00,70.22 L210.42,70.14 L210.85,70.06 L211.27,69.98 L211.70,69.90 L212.12,69.82 L212.55,69.74 L212.97,69.65 L213.40,69.57 L213.82,69.49 L214.24,69.41 L214.67,69.32 L215.09,69.24 L215.52,69.16 L215.94,69.07 L216.37,68.99 L216.79,68.91 L217.22,68.82 L217.64,68.74 L218.06,68.65 L218.49,68.57 L218.91,68.48 L219.34,68.40 L219.76,68.31 L220.19,68.23 L220.61,68.14 L221.04,68.06 L221.46,67.97 L221.89,67.88 L222.31,67.80 L222.73,67.71 L223.16,67.62 L223.58,67.54 L224.01,67.45 L224.43,67.36 L224.86,67.27 L225.28,67.19 L225.71,67.10 L226.13,67.01 L226.55,66.92 L226.98,66.83 L227.40,66.75 L227.83,66.66 L228.25,66.57 L228.68,66.48 L229.10,66.39 L229.53,66.30 L229.95,66.21 L230.37,66.12 L230.80,66.03 L231.22,65.94 L231.65,65.85 L232.07,65.76 L232.50,65.67 L232.92,65.58 L233.35,65.49 L233.77,65.40 L234.20,65.31 L234.62,65.22 L235.04,65.13 L235.47,65.04 L235.89,64.95 L236.32,64.86 L236.74,64.77 L237.17,64.68 L237.59,64.59 L238.02,64.49 L238.44,64.40 L238.86,64.31 L239.29,64.22 L239.71,64.13 L240.14,64.04 L240.56,63.95 L240.99,63.86 L241.41,63.76 L241.84,63.67 L242.26,63.58 L242.69,63.49 L243.11,63.40 L243.53,63.31 L243.96,63.21 L244.38,63.12 L244.81,63.03 L245.23,62.94 L245.66,62.85 L246.08,62.76 L246.51,62.66 L246.93,62.57 L247.35,62.48 L247.78,62.39 L248.20,62.30 L248.63,62.21 L249.05,62.11 L249.48,62.02 L249.90,61.93 L250.33,61.84 L250.75,61.75 L251.18,61.66 L251.60,61.57 L252.02,61.48 L252.45,61.38 L252.87,61.29 L253.30,61.20 L253.72,61.11 L254.15,61.02 L254.57,60.93 L255.00,60.84 L255.42,60.75 L255.84,60.66 L256.27,60.57 L256.69,60.48 L257.12,60.39 L257.54,60.30 L257.97,60.21 L258.39,60.12 L258.82,60.03 L259.24,59.94 L259.67,59.85 L260.09,59.76 L260.51,59.68 L260.94,59.59 L261.36,59.50 L261.79,59.41 L262.21,59.32 L262.64,59.24 L263.06,59.15 L263.49,59.06 L263.91,58.97 L264.33,58.89 L264.76,58.80 L265.18,58.71 L265.61,58.63 L266.03,58.54 L266.46,58.46 L266.88,58.37 L267.31,58.29 L267.73,58.20 L268.16,58.12 L268.58,58.03 L269.00,57.95 L269.43,57.86 L269.85,57.78 L270.28,57.70 L270.70,57.61 L271.13,57.53 L271.55,57.45 L271.98,57.37 L272.40,57.29 L272.82,57.21 L273.25,57.13 L273.67,57.04 L274.10,56.96 L274.52,56.89 L274.95,56.81 L275.37,56.73 L275.80,56.65 L276.22,56.57 L276.65,56.49 L277.07,56.42 L277.49,56.34 L277.92,56.26 L278.34,56.19 L278.77,56.11 L279.19,56.04 L279.62,55.96 L280.04,55.89 L280.47,55.81 L280.89,55.74 L281.31,55.67 L281.74,55.59 L282.16,55.52 L282.59,55.45 L283.01,55.38 L283.44,55.31 L283.86,55.24 L284.29,55.17 L284.71,55.10 L285.14,55.03 L285.56,54.97 L285.98,54.90 L286.41,54.83 L286.83,54.77 L287.26,54.70 L287.68,54.64 L288.11,54.57 L288.53,54.51 L288.96,54.45 L289.38,54.38 L289.80,54.32 L290.23,54.26 L290.65,54.20 L291.08,54.14 L291.50,54.08 L291.93,54.03 L292.35,53.97 L292.78,53.91 L293.20,53.85 L293.63,53.80 L294.05,53.74 L294.47,53.69 L294.90,53.64 L295.32,53.58 L295.75,53.53 L296.17,53.48 L296.60,53.43 L297.02,53.38 L297.45,53.33 L297.87,53.29 L298.29,53.24 L298.72,53.19 L299.14,53.15 L299.57,53.10 L299.99,53.06 L300.42,53.02 L300.84,52.97 L301.27,52.93 L301.69,52.89 L302.12,52.85 L302.54,52.81 L302.96,52.78 L303.39,52.74 L303.81,52.71 L304.24,52.67 L304.66,52.64 L305.09,52.60 L305.51,52.57 L305.94,52.54 L306.36,52.51 L306.78,52.48 L307.21,52.45 L307.63,52.43 L308.06,52.40 L308.48,52.38 L308.91,52.35 L309.33,52.33 L309.76,52.31 L310.18,52.29 L310.61,52.27 L311.03,52.25 L311.45,52.23 L311.88,52.22 L312.30,52.20 L312.73,52.19 L313.15,52.17 L313.58,52.16 L314.00,52.15 L314.43,52.14 L314.85,52.14 L315.27,52.13 L315.70,52.12 L316.12,52.12 L316.55,52.12 L316.97,52.11 L317.40,52.11 L317.82,52.11 L318.25,52.12 L318.67,52.12 L319.10,52.12 L319.52,52.13 L319.94,52.14 L320.37,52.14 L320.79,52.15 L321.22,52.17 L321.64,52.18 L322.07,52.19 L322.49,52.21 L322.92,52.22 L323.34,52.24 L323.76,52.26 L324.19,52.28 L324.61,52.31 L325.04,52.33 L325.46,52.36 L325.89,52.38 L326.31,52.41 L326.74,52.44 L327.16,52.47 L327.58,52.51 L328.01,52.54 L328.43,52.58 L328.86,52.61 L329.28,52.65 L329.71,52.69 L330.13,52.74 L330.56,52.78 L330.98,52.83 L331.41,52.87 L331.83,52.92 L332.25,52.97 L332.68,53.03 L333.10,53.08 L333.53,53.14 L333.95,53.19 L334.38,53.25 L334.80,53.32 L335.23,53.38 L335.65,53.44 L336.07,53.51 L336.50,53.58 L336.92,53.65 L337.35,53.72 L337.77,53.79 L338.20,53.87 L338.62,53.95 L339.05,54.03 L339.47,54.11 L339.90,54.19 L340.32,54.28 L340.74,54.36 L341.17,54.45 L341.59,54.54 L342.02,54.64 L342.44,54.73 L342.87,54.83 L343.29,54.93 L343.72,55.03 L344.14,55.13 L344.56,55.24 L344.99,55.35 L345.41,55.46 L345.84,55.57 L346.26,55.68 L346.69,55.80 L347.11,55.91 L347.54,56.03 L347.96,56.16 L348.39,56.28 L348.81,56.41 L349.23,56.54 L349.66,56.67 L350.08,56.80 L350.51,56.94 L350.93,57.08 L351.36,57.22 L351.78,57.36 L352.21,57.51 L352.63,57.65 L353.05,57.80 L353.48,57.96 L353.90,58.11 L354.33,58.27 L354.75,58.43 L355.18,58.59 L355.60,58.75 L356.03,58.92 L356.45,59.09 L356.88,59.26 L357.30,59.44 L357.72,59.61 L358.15,59.79 L358.57,59.98 L359.00,60.16 L359.42,60.35 L359.85,60.54 L360.27,60.73 L360.70,60.93 L361.12,61.12 L361.54,61.32 L361.97,61.53 L362.39,61.73 L362.82,61.94 L363.24,62.16 L363.67,62.37 L364.09,62.59 L364.52,62.81 L364.94,63.03 L365.37,63.26 L365.79,63.48 L366.21,63.72 L366.64,63.95 L367.06,64.19 L367.49,64.43 L367.91,64.67 L368.34,64.92 L368.76,65.17 L369.19,65.42 L369.61,65.67 L370.03,65.93 L370.46,66.19 L370.88,66.46 L371.31,66.73 L371.73,67.00 L372.16,67.27 L372.58,67.55 L373.01,67.83 L373.43,68.11 L373.86,68.40 L374.28,68.69 L374.70,68.98 L375.13,69.28 L375.55,69.58 L375.98,69.88 L376.40,70.18 L376.83,70.49 L377.25,70.81 L377.68,71.12 L378.10,71.44 L378.52,71.76 L378.95,72.09 L379.37,72.42 L379.80,72.75 L380.22,73.09 L380.65,73.43 L381.07,73.78 L381.50,74.12 L381.92,74.47 L382.35,74.83 L382.77,75.19 L383.19,75.55 L383.62,75.91 L384.04,76.28 L384.47,76.66 L384.89,77.03 L385.32,77.41 L385.74,77.80 L386.17,78.18 L386.59,78.57 L387.01,78.97 L387.44,79.37 L387.86,79.77 L388.29,80.18 L388.71,80.59 L389.14,81.00 L389.56,81.42 L389.99,81.85" style="stroke-width: 2; stroke: rgb(74, 144, 226); stroke-opacity: 0.8;"/><path d=" M27.04,81.85 L27.46,81.42 L27.89,81.00 L28.31,80.59 L28.74,80.18 L29.16,79.77 L29.59,79.37 L30.01,78.97 L30.44,78.57 L30.86,78.18 L31.29,77.80 L31.71,77.41 L32.13,77.03 L32.56,76.66 L32.98,76.28 L33.41,75.91 L33.83,75.55 L34.26,75.19 L34.68,74.83 L35.11,74.47 L35.53,74.12 L35.95,73.78 L36.38,73.43 L36.80,73.09 L37.23,72.75 L37.65,72.42 L38.08,72.09 L38.50,71.76 L38.93,71.44 L39.35,71.12 L39.78,70.81 L40.20,70.49 L40.62,70.18 L41.05,69.88 L41.47,69.58 L41.90,69.28 L42.32,68.98 L42.75,68.69 L43.17,68.40 L43.60,68.11 L44.02,67.83 L44.44,67.55 L44.87,67.27 L45.29,67.00 L45.72,66.73 L46.14,66.46 L46.57,66.19 L46.99,65.93 L47.42,65.67 L47.84,65.42 L48.27,65.17 L48.69,64.92 L49.11,64.67 L49.54,64.43 L49.96,64.19 L50.39,63.95 L50.81,63.72 L51.24,63.48 L51.66,63.26 L52.09,63.03 L52.51,62.81 L52.93,62.59 L53.36,62.37 L53.78,62.16 L54.21,61.94 L54.63,61.73 L55.06,61.53 L55.48,61.32 L55.91,61.12 L56.33,60.93 L56.76,60.73 L57.18,60.54 L57.60,60.35 L58.03,60.16 L58.45,59.98 L58.88,59.79 L59.30,59.61 L59.73,59.44 L60.15,59.26 L60.58,59.09 L61.00,58.92 L61.42,58.75 L61.85,58.59 L62.27,58.43 L62.70,58.27 L63.12,58.11 L63.55,57.96 L63.97,57.80 L64.40,57.65 L64.82,57.51 L65.25,57.36 L65.67,57.22 L66.09,57.08 L66.52,56.94 L66.94,56.80 L67.37,56.67 L67.79,56.54 L68.22,56.41 L68.64,56.28 L69.07,56.16 L69.49,56.03 L69.91,55.91 L70.34,55.80 L70.76,55.68 L71.19,55.57 L71.61,55.46 L72.04,55.35 L72.46,55.24 L72.89,55.13 L73.31,55.03 L73.74,54.93 L74.16,54.83 L74.58,54.73 L75.01,54.64 L75.43,54.54 L75.86,54.45 L76.28,54.36 L76.71,54.28 L77.13,54.19 L77.56,54.11 L77.98,54.03 L78.40,53.95 L78.83,53.87 L79.25,53.79 L79.68,53.72 L80.10,53.65 L80.53,53.58 L80.95,53.51 L81.38,53.44 L81.80,53.38 L82.23,53.32 L82.65,53.25 L83.07,53.19 L83.50,53.14 L83.92,53.08 L84.35,53.03 L84.77,52.97 L85.20,52.92 L85.62,52.87 L86.05,52.83 L86.47,52.78 L86.89,52.74 L87.32,52.69 L87.74,52.65 L88.17,52.61 L88.59,52.58 L89.02,52.54 L89.44,52.51 L89.87,52.47 L90.29,52.44 L90.72,52.41 L91.14,52.38 L91.56,52.36 L91.99,52.33 L92.41,52.31 L92.84,52.28 L93.26,52.26 L93.69,52.24 L94.11,52.22 L94.54,52.21 L94.96,52.19 L95.38,52.18 L95.81,52.17 L96.23,52.15 L96.66,52.14 L97.08,52.14 L97.51,52.13 L97.93,52.12 L98.36,52.12 L98.78,52.12 L99.21,52.11 L99.63,52.11 L100.05,52.11 L100.48,52.12 L100.90,52.12 L101.33,52.12 L101.75,52.13 L102.18,52.14 L102.60,52.14 L103.03,52.15 L103.45,52.16 L103.87,52.17 L104.30,52.19 L104.72,52.20 L105.15,52.22 L105.57,52.23 L106.00,52.25 L106.42,52.27 L106.85,52.29 L107.27,52.31 L107.70,52.33 L108.12,52.35 L108.54,52.38 L108.97,52.40 L109.39,52.43 L109.82,52.45 L110.24,52.48 L110.67,52.51 L111.09,52.54 L111.52,52.57 L111.94,52.60 L112.36,52.64 L112.79,52.67 L113.21,52.71 L113.64,52.74 L114.06,52.78 L114.49,52.81 L114.91,52.85 L115.34,52.89 L115.76,52.93 L116.19,52.97 L116.61,53.02 L117.03,53.06 L117.46,53.10 L117.88,53.15 L118.31,53.19 L118.73,53.24 L119.16,53.29 L119.58,53.33 L120.01,53.38 L120.43,53.43 L120.85,53.48 L121.28,53.53 L121.70,53.58 L122.13,53.64 L122.55,53.69 L122.98,53.74 L123.40,53.80 L123.83,53.85 L124.25,53.91 L124.67,53.97 L125.10,54.03 L125.52,54.08 L125.95,54.14 L126.37,54.20 L126.80,54.26 L127.22,54.32 L127.65,54.38 L128.07,54.45 L128.50,54.51 L128.92,54.57 L129.34,54.64 L129.77,54.70 L130.19,54.77 L130.62,54.83 L131.04,54.90 L131.47,54.97 L131.89,55.03 L132.32,55.10 L132.74,55.17 L133.16,55.24 L133.59,55.31 L134.01,55.38 L134.44,55.45 L134.86,55.52 L135.29,55.59 L135.71,55.67 L136.14,55.74 L136.56,55.81 L136.99,55.89 L137.41,55.96 L137.83,56.04 L138.26,56.11 L138.68,56.19 L139.11,56.26 L139.53,56.34 L139.96,56.42 L140.38,56.49 L140.81,56.57 L141.23,56.65 L141.65,56.73 L142.08,56.81 L142.50,56.89 L142.93,56.96 L143.35,57.04 L143.78,57.13 L144.20,57.21 L144.63,57.29 L145.05,57.37 L145.48,57.45 L145.90,57.53 L146.32,57.61 L146.75,57.70 L147.17,57.78 L147.60,57.86 L148.02,57.95 L148.45,58.03 L148.87,58.12 L149.30,58.20 L149.72,58.29 L150.14,58.37 L150.57,58.46 L150.99,58.54 L151.42,58.63 L151.84,58.71 L152.27,58.80 L152.69,58.89 L153.12,58.97 L153.54,59.06 L153.97,59.15 L154.39,59.24 L154.81,59.32 L155.24,59.41 L155.66,59.50 L156.09,59.59 L156.51,59.68 L156.94,59.76 L157.36,59.85 L157.79,59.94 L158.21,60.03 L158.63,60.12 L159.06,60.21 L159.48,60.30 L159.91,60.39 L160.33,60.48 L160.76,60.57 L161.18,60.66 L161.61,60.75 L162.03,60.84 L162.46,60.93 L162.88,61.02 L163.30,61.11 L163.73,61.20 L164.15,61.29 L164.58,61.38 L165.00,61.48 L165.43,61.57 L165.85,61.66 L166.28,61.75 L166.70,61.84 L167.12,61.93 L167.55,62.02 L167.97,62.11 L168.40,62.21 L168.82,62.30 L169.25,62.39 L169.67,62.48 L170.10,62.57 L170.52,62.66 L170.95,62.76 L171.37,62.85 L171.79,62.94 L172.22,63.03 L172.64,63.12 L173.07,63.21 L173.49,63.31 L173.92,63.40 L174.34,63.49 L174.77,63.58 L175.19,63.67 L175.61,63.76 L176.04,63.86 L176.46,63.95 L176.89,64.04 L177.31,64.13 L177.74,64.22 L178.16,64.31 L178.59,64.40 L179.01,64.49 L179.44,64.59 L179.86,64.68 L180.28,64.77 L180.71,64.86 L181.13,64.95 L181.56,65.04 L181.98,65.13 L182.41,65.22 L182.83,65.31 L183.26,65.40 L183.68,65.49 L184.10,65.58 L184.53,65.67 L184.95,65.76 L185.38,65.85 L185.80,65.94 L186.23,66.03 L186.65,66.12 L187.08,66.21 L187.50,66.30 L187.93,66.39 L188.35,66.48 L188.77,66.57 L189.20,66.66 L189.62,66.75 L190.05,66.83 L190.47,66.92 L190.90,67.01 L191.32,67.10 L191.75,67.19 L192.17,67.27 L192.59,67.36 L193.02,67.45 L193.44,67.54 L193.87,67.62 L194.29,67.71 L194.72,67.80 L195.14,67.88 L195.57,67.97 L195.99,68.06 L196.42,68.14 L196.84,68.23 L197.26,68.31 L197.69,68.40 L198.11,68.48 L198.54,68.57 L198.96,68.65 L199.39,68.74 L199.81,68.82 L200.24,68.91 L200.66,68.99 L201.08,69.07 L201.51,69.16 L201.93,69.24 L202.36,69.32 L202.78,69.41 L203.21,69.49 L203.63,69.57 L204.06,69.65 L204.48,69.74 L204.91,69.82 L205.33,69.90 L205.75,69.98 L206.18,70.06 L206.60,70.14 L207.03,70.22 L207.45,70.30 L207.88,70.38 L208.30,70.46 L208.73,70.54 L209.15,70.62 L209.57,70.70 L210.00,70.78 L210.42,70.86 L210.85,70.94 L211.27,71.02 L211.70,71.09 L212.12,71.17 L212.55,71.25 L212.97,71.33 L213.40,71.40 L213.82,71.48 L214.24,71.55 L214.67,71.63 L215.09,71.71 L215.52,71.78 L215.94,71.86 L216.37,71.93 L216.79,72.01 L217.22,72.08 L217.64,72.15 L218.06,72.23 L218.49,72.30 L218.91,72.38 L219.34,72.45 L219.76,72.52 L220.19,72.59 L220.61,72.67 L221.04,72.74 L221.46,72.81 L221.89,72.88 L222.31,72.95 L222.73,73.02 L223.16,73.09 L223.58,73.16 L224.01,73.23 L224.43,73.30 L224.86,73.37 L225.28,73.44 L225.71,73.51 L226.13,73.58 L226.55,73.64 L226.98,73.71 L227.40,73.78 L227.83,73.84 L228.25,73.91 L228.68,73.98 L229.10,74.04 L229.53,74.11 L229.95,74.18 L230.37,74.24 L230.80,74.31 L231.22,74.37 L231.65,74.43 L232.07,74.50 L232.50,74.56 L232.92,74.63 L233.35,74.69 L233.77,74.75 L234.20,74.81 L234.62,74.88 L235.04,74.94 L235.47,75.00 L235.89,75.06 L236.32,75.12 L236.74,75.18 L237.17,75.24 L237.59,75.30 L238.02,75.36 L238.44,75.42 L238.86,75.48 L239.29,75.54 L239.71,75.60 L240.14,75.65 L240.56,75.71 L240.99,75.77 L241.41,75.83 L241.84,75.88 L242.26,75.94 L242.69,76.00 L243.11,76.05 L243.53,76.11 L243.96,76.16 L244.38,76.22 L244.81,76.27 L245.23,76.32 L245.66,76.38 L246.08,76.43 L246.51,76.49 L246.93,76.54 L247.35,76.59 L247.78,76.64 L248.20,76.70 L248.63,76.75 L249.05,76.80 L249.48,76.85 L249.90,76.90 L250.33,76.95 L250.75,77.00 L251.18,77.05 L251.60,77.10 L252.02,77.15 L252.45,77.20 L252.87,77.25 L253.30,77.29 L253.72,77.34 L254.15,77.39 L254.57,77.44 L255.00,77.48 L255.42,77.53 L255.84,77.58 L256.27,77.62 L256.69,77.67 L257.12,77.71 L257.54,77.76 L257.97,77.80 L258.39,77.85 L258.82,77.89 L259.24,77.94 L259.67,77.98 L260.09,78.02 L260.51,78.06 L260.94,78.11 L261.36,78.15 L261.79,78.19 L262.21,78.23 L262.64,78.27 L263.06,78.32 L263.49,78.36 L263.91,78.40 L264.33,78.44 L264.76,78.48 L265.18,78.52 L265.61,78.56 L266.03,78.59 L266.46,78.63 L266.88,78.67 L267.31,78.71 L267.73,78.75 L268.16,78.78 L268.58,78.82 L269.00,78.86 L269.43,78.89 L269.85,78.93 L270.28,78.97 L270.70,79.00 L271.13,79.04 L271.55,79.07 L271.98,79.11 L272.40,79.14 L272.82,79.18 L273.25,79.21 L273.67,79.24 L274.10,79.28 L274.52,79.31 L274.95,79.34 L275.37,79.38 L275.80,79.41 L276.22,79.44 L276.65,79.47 L277.07,79.50 L277.49,79.53 L277.92,79.57 L278.34,79.60 L278.77,79.63 L279.19,79.66 L279.62,79.69 L280.04,79.72 L280.47,79.74 L280.89,79.77 L281.31,79.80 L281.74,79.83 L282.16,79.86 L282.59,79.89 L283.01,79.91 L283.44,79.94 L283.86,79.97 L284.29,80.00 L284.71,80.02 L285.14,80.05 L285.56,80.07 L285.98,80.10 L286.41,80.13 L286.83,80.15 L287.26,80.18 L287.68,80.20 L288.11,80.22 L288.53,80.25 L288.96,80.27 L289.38,80.30 L289.80,80.32 L290.23,80.34 L290.65,80.37 L291.08,80.39 L291.50,80.41 L291.93,80.43 L292.35,80.46 L292.78,80.48 L293.20,80.50 L293.63,80.52 L294.05,80.54 L294.47,80.56 L294.90,80.58 L295.32,80.60 L295.75,80.62 L296.17,80.64 L296.60,80.66 L297.02,80.68 L297.45,80.70 L297.87,80.72 L298.29,80.74 L298.72,80.76 L299.14,80.78 L299.57,80.80 L299.99,80.81 L300.42,80.83 L300.84,80.85 L301.27,80.87 L301.69,80.88 L302.12,80.90 L302.54,80.92 L302.96,80.93 L303.39,80.95 L303.81,80.97 L304.24,80.98 L304.66,81.00 L305.09,81.01 L305.51,81.03 L305.94,81.04 L306.36,81.06 L306.78,81.07 L307.21,81.09 L307.63,81.10 L308.06,81.12 L308.48,81.13 L308.91,81.14 L309.33,81.16 L309.76,81.17 L310.18,81.18 L310.61,81.20 L311.03,81.21 L311.45,81.22 L311.88,81.23 L312.30,81.25 L312.73,81.26 L313.15,81.27 L313.58,81.28 L314.00,81.29 L314.43,81.31 L314.85,81.32 L315.27,81.33 L315.70,81.34 L316.12,81.35 L316.55,81.36 L316.97,81.37 L317.40,81.38 L317.82,81.39 L318.25,81.40 L318.67,81.41 L319.10,81.42 L319.52,81.43 L319.94,81.44 L320.37,81.45 L320.79,81.46 L321.22,81.47 L321.64,81.48 L322.07,81.48 L322.49,81.49 L322.92,81.50 L323.34,81.51 L323.76,81.52 L324.19,81.52 L324.61,81.53 L325.04,81.54 L325.46,81.55 L325.89,81.55 L326.31,81.56 L326.74,81.57 L327.16,81.58 L327.58,81.58 L328.01,81.59 L328.43,81.60 L328.86,81.60 L329.28,81.61 L329.71,81.62 L330.13,81.62 L330.56,81.63 L330.98,81.63 L331.41,81.64 L331.83,81.64 L332.25,81.65 L332.68,81.66 L333.10,81.66 L333.53,81.67 L333.95,81.67 L334.38,81.68 L334.80,81.68 L335.23,81.69 L335.65,81.69 L336.07,81.70 L336.50,81.70 L336.92,81.70 L337.35,81.71 L337.77,81.71 L338.20,81.72 L338.62,81.72 L339.05,81.72 L339.47,81.73 L339.90,81.73 L340.32,81.74 L340.74,81.74 L341.17,81.74 L341.59,81.75 L342.02,81.75 L342.44,81.75 L342.87,81.76 L343.29,81.76 L343.72,81.76 L344.14,81.76 L344.56,81.77 L344.99,81.77 L345.41,81.77 L345.84,81.78 L346.26,81.78 L346.69,81.78 L347.11,81.78 L347.54,81.79 L347.96,81.79 L348.39,81.79 L348.81,81.79 L349.23,81.79 L349.66,81.80 L350.08,81.80 L350.51,81.80 L350.93,81.80 L351.36,81.80 L351.78,81.81 L352.21,81.81 L352.63,81.81 L353.05,81.81 L353.48,81.81 L353.90,81.81 L354.33,81.82 L354.75,81.82 L355.18,81.82 L355.60,81.82 L356.03,81.82 L356.45,81.82 L356.88,81.82 L357.30,81.82 L357.72,81.82 L358.15,81.83 L358.57,81.83 L359.00,81.83 L359.42,81.83 L359.85,81.83 L360.27,81.83 L360.70,81.83 L361.12,81.83 L361.54,81.83 L361.97,81.83 L362.39,81.83 L362.82,81.84 L363.24,81.84 L363.67,81.84 L364.09,81.84 L364.52,81.84 L364.94,81.84 L365.37,81.84 L365.79,81.84 L366.21,81.84 L366.64,81.84 L367.06,81.84 L367.49,81.84 L367.91,81.84 L368.34,81.84 L368.76,81.84 L369.19,81.84 L369.61,81.84 L370.03,81.84 L370.46,81.84 L370.88,81.84 L371.31,81.84 L371.73,81.84 L372.16,81.84 L372.58,81.84 L373.01,81.84 L373.43,81.84 L373.86,81.84 L374.28,81.84 L374.70,81.84 L375.13,81.84 L375.55,81.84 L375.98,81.84 L376.40,81.84 L376.83,81.84 L377.25,81.85 L377.68,81.85 L378.10,81.85 L378.52,81.85 L378.95,81.85 L379.37,81.85 L379.80,81.85 L380.22,81.85 L380.65,81.85 L381.07,81.85 L381.50,81.85 L381.92,81.85 L382.35,81.85 L382.77,81.85 L383.19,81.85 L383.62,81.85 L384.04,81.85 L384.47,81.85 L384.89,81.85 L385.32,81.85 L385.74,81.85 L386.17,81.85 L386.59,81.85 L387.01,81.85 L387.44,81.85 L387.86,81.85 L388.29,81.85 L388.71,81.85 L389.14,81.85 L389.56,81.85 L389.99,81.85" style="stroke-width: 2; stroke: rgb(60, 180, 75); stroke-opacity: 0.8;"/></g></g><g class="test-xtl" style="font-family: &quot;Open Sans&quot;, verdana, arial, sans-serif;"><text text-anchor="middle" font-size="11" dominant-baseline="hanging" stroke="none" fill="rgb(50,50,50)" fill-opacity="1" x="99.62959857826529" y="88.845603543812">0.2</text><text text-anchor="middle" font-size="11" dominant-baseline="hanging" stroke="none" fill="rgb(50,50,50)" fill-opacity="1" x="172.2187436428878" y="88.845603543812">0.4</text><text text-anchor="middle" font-size="11" dominant-baseline="hanging" stroke="none" fill="rgb(50,50,50)" fill-opacity="1" x="244.80788870751033" y="88.845603543812">0.6</text><text text-anchor="middle" font-size="11" dominant-baseline="hanging" stroke="none" fill="rgb(50,50,50)" fill-opacity="1" x="317.39703377213283" y="88.845603543812">0.8</text><text text-anchor="middle" font-size="11" dominant-baseline="hanging" stroke="none" fill="rgb(50,50,50)" fill-opacity="1" x="389.98617883675536" y="88.845603543812">1</text><text text-anchor="middle" font-size="11" dominant-baseline="hanging" stroke="none" fill="rgb(50,50,50)" fill-opacity="1" x="19.040453513642774" y="86.845603543812">0</text></g><g class="test-ytl" style="font-family: &quot;Open Sans&quot;, verdana, arial, sans-serif;"><text text-anchor="end" dominant-baseline="middle" font-size="11" stroke="none" fill="rgb(50,50,50)" fill-opacity="1" x="19.040453513642774" y="154.43474860843452">-0.2</text><text text-anchor="end" dominant-baseline="middle" font-size="11" stroke="none" fill="rgb(50,50,50)" fill-opacity="1" x="19.040453513642774" y="9.25645847918949">0.2</text></g><rect class="real" x="1" y="1" width="426" height="171.5" style="fill: transparent; stroke: none;"/></g></g></g><g/></g><g/><g/><g/></svg>
        <svg xmlns="http://www.w3.org/2000/svg" xmlns:xlink="http://www.w3.org/1999/xlink" width="660" height="192" style="width:660px;height:192px;font-family:LatinModern-Math, LatinModern, Asana-Math, Asana;background:#FFF;"></svg>
</svg>
